<?xml version="1.0" encoding="UTF-8"?>
<svg width="20px" height="20px" viewBox="0 0 20 20" version="1.1" xmlns="http://www.w3.org/2000/svg" xmlns:xlink="http://www.w3.org/1999/xlink">
    <title>calendar-icon</title>
    <g id="calendar-icon" stroke="none" stroke-width="1" fill="none" fill-rule="evenodd">
        <path d="M5,0 L5,1.5 L15,1.5 L15,0 L17,0 L17,1.5 C18.6568542,1.5 20,2.84314575 20,4.5 L20,16.5 C20,18.1568542 18.6568542,19.5 17,19.5 L3,19.5 C1.34314575,19.5 0,18.1568542 0,16.5 L0,4.5 C0,2.84314575 1.34314575,1.5 3,1.5 L3,0 L5,0 Z M18,8 L2,8 L2,16.5 C2,17.0128358 2.38604019,17.4355072 2.88337887,17.4932723 L3,17.5 L17,17.5 C17.5128358,17.5 17.9355072,17.1139598 17.9932723,16.6166211 L18,16.5 L18,8 Z M15,12 C15.5522847,12 16,12.4477153 16,13 L16,15 C16,15.5522847 15.5522847,16 15,16 L12,16 C11.4477153,16 11,15.5522847 11,15 L11,13 C11,12.4477153 11.4477153,12 12,12 L15,12 Z M15,3.5 L5,3.5 L5,5 L3,5 L3,3.5 C2.48716416,3.5 2.06449284,3.88604019 2.00672773,4.38337887 L2,4.5 L2,6 L18,6 L18,4.5 C18,3.98716416 17.6139598,3.56449284 17.1166211,3.50672773 L17,3.5 L17,5 L15,5 L15,3.5 Z" id="Combined-Shape" fill="#FFFFFF" fill-rule="nonzero"></path>
    </g>
</svg>