<?xml version="1.0" encoding="UTF-8"?>
<svg width="12px" height="12px" viewBox="0 0 12 12" version="1.1" xmlns="http://www.w3.org/2000/svg" xmlns:xlink="http://www.w3.org/1999/xlink">
    <title>close-icon</title>
    <g id="close-icon" stroke="none" stroke-width="1" fill="none" fill-rule="evenodd">
        <path d="M7.61863187,6 L11.6596714,1.95896048 C12.1103768,1.50825509 12.1121844,0.781761309 11.6652115,0.334788461 C11.2151225,-0.1153006 10.4910721,-0.109703977 10.0410395,0.340328612 L6,4.38136813 L1.95896048,0.340328612 C1.50825509,-0.110376774 0.781761309,-0.112184388 0.334788461,0.334788461 C-0.1153006,0.784877521 -0.109703977,1.50892789 0.340328612,1.95896048 L4.38136813,6 L0.340328612,10.0410395 C-0.110376774,10.4917449 -0.112184388,11.2182387 0.334788461,11.6652115 C0.784877521,12.1153006 1.50892789,12.109704 1.95896048,11.6596714 L6,7.61863187 L10.0410395,11.6596714 C10.4917449,12.1103768 11.2182387,12.1121844 11.6652115,11.6652115 C12.1153006,11.2151225 12.109704,10.4910721 11.6596714,10.0410395 L7.61863187,6 L7.61863187,6 Z" id="Combined-Shape" fill="#FFFFFF"></path>
    </g>
</svg>