<?xml version="1.0" encoding="UTF-8"?>
<svg width="22px" height="22px" viewBox="0 0 22 22" version="1.1" xmlns="http://www.w3.org/2000/svg" xmlns:xlink="http://www.w3.org/1999/xlink">
    <title>contact-details-icon</title>
    <g id="contact-details-icon" stroke="none" stroke-width="1" fill="none" fill-rule="evenodd">
        <path d="M13.4057444,12.6363636 C15.323148,12.6363636 16.9832937,13.9680854 17.399237,15.8398299 L17.881199,18.0086593 C18.0772475,18.8908773 17.5209971,19.7649849 16.6387791,19.9610334 C16.5222293,19.9869333 16.4031949,20 16.283802,20 L5.63636364,20 C4.73262495,20 4,19.267375 4,18.3636364 C4,18.2442434 4.01306667,18.1252091 4.03896663,18.0086593 L4.5209287,15.8398299 C4.93687193,13.9680854 6.59701765,12.6363636 8.51442122,12.6363636 L13.4057444,12.6363636 Z M10.9600828,2 C13.2194295,2 15.0509919,3.83156239 15.0509919,6.09090909 C15.0509919,8.35025579 13.2194295,10.1818182 10.9600828,10.1818182 C8.70073612,10.1818182 6.86917374,8.35025579 6.86917374,6.09090909 C6.86917374,3.83156239 8.70073612,2 10.9600828,2 Z" id="Combined-Shape" fill="#8D98A7"></path>
    </g>
</svg>
