<?xml version="1.0" encoding="UTF-8"?>
<svg width="176px" height="176px" viewBox="0 0 176 176" version="1.1" xmlns="http://www.w3.org/2000/svg" xmlns:xlink="http://www.w3.org/1999/xlink">
    <title>dot-pattern</title>
    <g id="dot-pattern" stroke="none" stroke-width="1" fill="none" fill-rule="evenodd" stroke-dasharray="0,11" stroke-linecap="round" stroke-linejoin="round">
        <line x1="5" y1="2.5" x2="171" y2="2.5" id="Line" stroke="#EEC69E" stroke-width="4"></line>
        <line x1="5" y1="12.5" x2="171" y2="12.5" id="Line-Copy" stroke="#EEC69E" stroke-width="4"></line>
        <line x1="5" y1="23.5" x2="171" y2="23.5" id="Line-Copy-2" stroke="#EEC69E" stroke-width="4"></line>
        <line x1="5" y1="34.5" x2="171" y2="34.5" id="Line-Copy-3" stroke="#EEC69E" stroke-width="4"></line>
        <line x1="5" y1="45.5" x2="171" y2="45.5" id="Line-Copy-4" stroke="#EEC69E" stroke-width="4"></line>
        <line x1="5" y1="56.5" x2="171" y2="56.5" id="Line-Copy-5" stroke="#EEC69E" stroke-width="4"></line>
        <line x1="5" y1="66.5" x2="171" y2="66.5" id="Line-Copy-6" stroke="#EEC69E" stroke-width="4"></line>
        <line x1="5" y1="77.5" x2="171" y2="77.5" id="Line-Copy-7" stroke="#EEC69E" stroke-width="4"></line>
        <line x1="5" y1="88.5" x2="171" y2="88.5" id="Line-Copy-8" stroke="#EEC69E" stroke-width="4"></line>
        <line x1="5" y1="99.5" x2="171" y2="99.5" id="Line-Copy-9" stroke="#EEC69E" stroke-width="4"></line>
        <line x1="5" y1="109.5" x2="171" y2="109.5" id="Line-Copy-10" stroke="#EEC69E" stroke-width="4"></line>
        <line x1="5" y1="120.5" x2="171" y2="120.5" id="Line-Copy-11" stroke="#EEC69E" stroke-width="4"></line>
        <line x1="5" y1="131.5" x2="171" y2="131.5" id="Line-Copy-12" stroke="#EEC69E" stroke-width="4"></line>
        <line x1="5" y1="142.5" x2="171" y2="142.5" id="Line-Copy-13" stroke="#EEC69E" stroke-width="4"></line>
        <line x1="5" y1="153.5" x2="171" y2="153.5" id="Line-Copy-14" stroke="#EEC69E" stroke-width="4"></line>
        <line x1="5" y1="163.5" x2="171" y2="163.5" id="Line-Copy-15" stroke="#EEC69E" stroke-width="4"></line>
        <line x1="5" y1="173.5" x2="171" y2="173.5" id="Line-Copy-16" stroke="#EEC69E" stroke-width="4"></line>
    </g>
</svg>