<?xml version="1.0" encoding="UTF-8"?>
<svg width="26px" height="26px" viewBox="0 0 26 26" version="1.1" xmlns="http://www.w3.org/2000/svg" xmlns:xlink="http://www.w3.org/1999/xlink">
    <title>group-video-icon</title>
    <g id="group-video-icon" stroke="none" stroke-width="1" fill="none" fill-rule="evenodd">
        <path d="M19,4 L22.1714286,4 C23.7336054,4 25,5.20883118 25,6.7 L25,19.3 C25,20.7911688 23.7336054,22 22.1714286,22 L19,22" id="Path-Copy-5" fill="#0077FF"></path>
        <path d="M1,4 L4.17142857,4 C5.73360544,4 7,5.20883118 7,6.7 L7,19.3 C7,20.7911688 5.73360544,22 4.17142857,22 L1,22" id="Path-Copy-6" fill="#0077FF" transform="translate(4.000000, 13.000000) scale(-1, 1) translate(-4.000000, -13.000000) "></path>
        <rect id="Rectangle-Copy-28" fill="#040E22" x="5" y="2" width="16" height="22" rx="1.6"></rect>
        <path d="M18.4,1 C20.3882251,1 22,2.6117749 22,4.6 L22,21.4 C22,23.3882251 20.3882251,25 18.4,25 L7.6,25 C5.6117749,25 4,23.3882251 4,21.4 L4,4.6 C4,2.6117749 5.6117749,1 7.6,1 L18.4,1 Z M18.4,2.5 L7.6,2.5 C6.49062802,2.5 5.58217181,3.36022265 5.50527273,4.45002658 L5.5,4.6 L5.5,21.4 C5.5,22.509372 6.36022265,23.4178282 7.45002658,23.4947273 L7.6,23.5 L18.4,23.5 C19.509372,23.5 20.4178282,22.6397774 20.4947273,21.5499734 L20.5,21.4 L20.5,4.6 C20.5,3.49062802 19.6397774,2.58217181 18.5499734,2.50527273 L18.4,2.5 Z" id="Rectangle-Copy-30" fill="#FFFFFF" fill-rule="nonzero"></path>
        <circle id="Oval-Copy-81" fill="#FFFFFF" cx="13" cy="8.5" r="3"></circle>
        <path d="M10.8801604,13 L15.1198396,13 C16.9398944,13 18.5069328,14.2846642 18.863875,16.0693748 L19.3846409,18.6732044 C19.5500628,19.5003139 19.013659,20.3049195 18.1865496,20.4703414 C18.0879287,20.4900656 17.9876007,20.5 17.8870268,20.5 L8.11297323,20.5 C7.2694838,20.5 6.58570051,19.8162167 6.58570051,18.9727273 C6.58570051,18.8721533 6.59563494,18.7718253 6.61535911,18.6732044 L7.13612505,16.0693748 C7.49306716,14.2846642 9.06010555,13 10.8801604,13 Z" id="Rectangle-Copy-29" fill="#FFFFFF"></path>
    </g>
</svg>