<?xml version="1.0" encoding="UTF-8"?>
<svg width="22px" height="22px" viewBox="0 0 22 22" version="1.1" xmlns="http://www.w3.org/2000/svg" xmlns:xlink="http://www.w3.org/1999/xlink">
    <title>latency-icon</title>
    <g id="latency-icon" stroke="none" stroke-width="1" fill="none" fill-rule="evenodd">
        <path d="M11,2 C15.9705627,2 20,6.02943725 20,11 C20,15.9705627 15.9705627,20 11,20 C6.02943725,20 2,15.9705627 2,11 C2,6.02943725 6.02943725,2 11,2 Z M11,5 C7.27178644,5 4.25,8.02178644 4.25,11.75 C4.25,12.1642136 4.58578644,12.5 5,12.5 C5.41421356,12.5 5.75,12.1642136 5.75,11.75 C5.75,8.85021356 8.10021356,6.5 11,6.5 C13.8997864,6.5 16.25,8.85021356 16.25,11.75 C16.25,12.1642136 16.5857864,12.5 17,12.5 C17.4142136,12.5 17.75,12.1642136 17.75,11.75 C17.75,8.02178644 14.7282136,5 11,5 Z M11,8 C8.97033627,8 7.33333333,9.68377445 7.33333333,11.75 C7.33333333,12.1642136 7.66911977,12.5 8.08333333,12.5 C8.4975469,12.5 8.83333333,12.1642136 8.83333333,11.75 C8.83333333,10.5028922 9.80836743,9.5 11,9.5 C12.1916326,9.5 13.1666667,10.5028922 13.1666667,11.75 C13.1666667,12.1642136 13.5024531,12.5 13.9166667,12.5 C14.3308802,12.5 14.6666667,12.1642136 14.6666667,11.75 C14.6666667,9.68377445 13.0296637,8 11,8 Z" id="Combined-Shape" fill="#8D98A7"></path>
    </g>
</svg>
