<?xml version="1.0" encoding="UTF-8"?>
<svg width="16px" height="16px" viewBox="0 0 16 16" version="1.1" xmlns="http://www.w3.org/2000/svg" xmlns:xlink="http://www.w3.org/1999/xlink">
    <title>Group 8</title>
    <g id="Symbols" stroke="none" stroke-width="1" fill="none" fill-rule="evenodd">
        <g id="Group-8" transform="translate(0.416667, 0.062500)" fill="#FFFFFF" fill-rule="nonzero">
            <rect id="Rectangle-path" x="1.51567647e-12" y="4.95833333" width="3.54166667" height="9.91666667" rx="0.354166667"></rect>
            <ellipse id="Oval" cx="1.75666667" cy="1.77083333" rx="1.75666667" ry="1.77083333"></ellipse>
            <path d="M11.6875,14.875 L13.8125,14.875 C14.0081008,14.875 14.1666667,14.7164342 14.1666667,14.5208333 L14.1666667,8.57083333 C14.1666667,5.90041667 12.6579167,4.60416667 10.5470833,4.60416667 C9.70513982,4.57337388 8.88945741,4.90016147 8.30166667,5.50375 C8.2221556,5.59561165 8.09386634,5.6282717 7.98010881,5.58561262 C7.86635128,5.54295355 7.79117009,5.43399208 7.79166667,5.3125 C7.79166667,5.11689915 7.63310085,4.95833333 7.4375,4.95833333 L5.3125,4.95833333 C5.11689915,4.95833333 4.95833333,5.11689915 4.95833333,5.3125 L4.95833333,14.5208333 C4.95833333,14.7164342 5.11689915,14.875 5.3125,14.875 L7.4375,14.875 C7.63310085,14.875 7.79166667,14.7164342 7.79166667,14.5208333 L7.79166667,9.20833333 C7.79166667,8.23032909 8.58449576,7.4375 9.5625,7.4375 C10.5405042,7.4375 11.3333333,8.23032909 11.3333333,9.20833333 L11.3333333,14.5208333 C11.3333333,14.7164342 11.4918992,14.875 11.6875,14.875 Z" id="Shape"></path>
        </g>
    </g>
</svg>