<?xml version="1.0" encoding="UTF-8"?>
<svg width="156px" height="36px" viewBox="0 0 156 36" version="1.1" xmlns="http://www.w3.org/2000/svg" xmlns:xlink="http://www.w3.org/1999/xlink">
    <title>powered-by-ce-logo</title>
    <g id="powered-by-ce-logo" stroke="none" stroke-width="1" fill="none" fill-rule="evenodd">
        <path d="M144.203005,19.9326923 C144.604079,19.9326923 144.910783,20.239396 144.910783,20.64047 L144.910783,20.64047 L144.910783,32.3442106 C144.910783,33.5964328 144.179412,34.7052846 143.023375,35.1771365 C141.867338,35.6489883 140.569746,35.3894698 139.673227,34.5147291 C139.388301,34.2334328 139.388301,33.7851735 139.673227,33.525655 C139.956338,33.2407291 140.402783,33.2407291 140.687709,33.525655 C141.159561,33.995692 141.867338,34.1372476 142.480746,33.8795439 C143.094153,33.6182106 143.495227,33.0048032 143.495227,32.3442106 L143.495227,32.3442106 L143.495227,30.5983588 L141.843746,30.5983588 C140.145079,30.5983588 138.774894,29.2299884 138.774894,27.5313218 L138.774894,27.5313218 L138.774894,23.0015441 C138.774894,21.3010626 140.145079,19.9326923 141.843746,19.9326923 L141.843746,19.9326923 Z M123.463846,19.9326923 C123.86492,19.9326923 124.171624,20.239396 124.171624,20.64047 L124.171624,20.64047 L124.171624,32.3442106 C124.171624,33.5964328 123.440253,34.7052846 122.284216,35.1771365 C121.128179,35.6489883 119.830587,35.3894698 118.934068,34.5147291 C118.650957,34.2334328 118.650957,33.7851735 118.934068,33.525655 C119.217179,33.2407291 119.665439,33.2407291 119.94855,33.525655 C120.420402,33.995692 121.128179,34.1372476 121.741587,33.8795439 C122.354994,33.6182106 122.756068,33.0048032 122.756068,32.3442106 L122.756068,32.3442106 L122.756068,30.5983588 L121.104587,30.5983588 C119.40592,30.5983588 118.035735,29.2299884 118.035735,27.5313218 L118.035735,27.5313218 L118.035735,23.0015441 C118.035735,21.3010626 119.40592,19.9326923 121.104587,19.9326923 L121.104587,19.9326923 Z M30.0442587,14.7640998 L30.044,17.8190998 L37.1924512,17.8193405 L37.1924512,33.207155 L16.8030071,33.207155 L16.803,30.8120998 L-6.22613072e-12,30.8125069 L-6.22613072e-12,22.4008404 L9.166,22.4000998 L9.16662947,14.7640998 L30.0442587,14.7640998 Z M35.8150068,19.1731923 L30.044,19.1730998 L30.0442587,27.7599884 L23.316,27.7590998 L23.3167403,30.8125069 L18.18,30.8120998 L18.1804515,31.8496735 L35.8150068,31.8496735 L35.8150068,19.1731923 Z M110.451443,19.9328738 C112.126517,19.9328738 113.51848,21.3012441 113.51848,23.0017256 L113.51848,29.9851328 C113.51848,30.3862069 113.189998,30.6929106 112.812517,30.6929106 C112.409628,30.6929106 112.102924,30.3862069 112.102924,29.9851328 L112.102924,23.0017256 C112.102924,22.0797996 111.347961,21.3502441 110.451443,21.3502441 L108.799961,21.3502441 L108.799961,29.9851328 C108.799961,30.3862069 108.469665,30.6929106 108.092183,30.6929106 C107.691109,30.6929106 107.384406,30.3862069 107.384406,29.9851328 L107.384406,20.6406515 C107.384406,20.2395775 107.691109,19.9328738 108.092183,19.9328738 L110.451443,19.9328738 Z M67.4639248,19.837596 C69.1389988,19.837596 70.5309618,21.2077811 70.5309618,22.904633 L70.5309618,22.904633 L70.5309618,27.6249662 C70.5309618,29.3254477 69.1389988,30.6920032 67.4639248,30.6920032 C65.7634433,30.6920032 64.395073,29.3254477 64.395073,27.6249662 L64.395073,27.6249662 L64.395073,22.904633 C64.395073,21.2077811 65.7634433,19.837596 67.4639248,19.837596 Z M99.7992057,19.83687 C101.497872,19.83687 102.866243,21.2070552 102.866243,22.9057218 L102.866243,22.9057218 L102.866243,25.2667959 C102.866243,25.6660551 102.559539,25.9727588 102.158465,25.9727588 L102.158465,25.9727588 L98.1477243,25.9727588 L98.1477243,27.6242403 C98.1477243,28.2866477 98.5487983,28.9000551 99.1622057,29.1595736 C99.7756131,29.4190921 100.483391,29.2775366 100.955243,28.8056847 C101.238354,28.5225736 101.686613,28.5225736 101.969724,28.8056847 C102.252835,29.0652032 102.252835,29.5134625 101.969724,29.7965736 C101.096798,30.6694995 99.7756131,30.929018 98.6195761,30.4571662 C97.4635391,29.9853143 96.7303539,28.8764625 96.7303539,27.6242403 L96.7303539,27.6242403 L96.7303539,22.9057218 C96.7303539,21.2070552 98.1005391,19.83687 99.7992057,19.83687 Z M152.590897,19.83687 C154.289564,19.83687 155.657934,21.2070552 155.657934,22.9057218 L155.657934,22.9057218 L155.657934,25.2667959 C155.657934,25.6660551 155.351231,25.9727588 154.950157,25.9727588 L154.950157,25.9727588 L150.939416,25.9727588 L150.939416,27.6242403 C150.939416,28.2866477 151.34049,28.9000551 151.953897,29.1595736 C152.567305,29.4190921 153.275083,29.2775366 153.746934,28.8056847 C154.030046,28.5225736 154.478305,28.5225736 154.761416,28.8056847 C155.044527,29.0652032 155.044527,29.5134625 154.761416,29.7965736 C153.88849,30.6694995 152.567305,30.929018 151.409453,30.4571662 C150.255231,29.9853143 149.522046,28.8764625 149.522046,27.6242403 L149.522046,27.6242403 L149.522046,22.9057218 C149.522046,21.2070552 150.892231,19.83687 152.590897,19.83687 Z M53.8043583,20.7352034 C54.0638769,21.0183145 54.0638769,21.4665737 53.8043583,21.7496848 C53.5194324,22.0092033 53.0711732,22.0092033 52.7898769,21.7496848 C52.3162102,21.2542404 51.6084325,21.1362774 50.9950251,21.3722034 C50.3816177,21.6317219 49.9805436,22.2469441 49.9805436,22.9057218 L49.9805436,27.6242403 C49.9805436,28.2866477 50.3816177,28.9000551 50.9950251,29.1595736 C51.6084325,29.4190921 52.3162102,29.2775366 52.7898769,28.8056847 C53.0711732,28.5225736 53.5194324,28.5225736 53.8043583,28.8056847 C54.0638769,29.0652032 54.0638769,29.5134625 53.8043583,29.7965736 C52.9078398,30.6694995 51.6084325,30.929018 50.4523954,30.4571662 C49.2963584,29.9853143 48.5649881,28.8764625 48.5649881,27.6242403 L48.5649881,22.9057218 C48.5649881,21.6553145 49.2963584,20.5464626 50.4523954,20.0746108 C51.6084325,19.6027589 52.9078398,19.8622775 53.8043583,20.7352034 Z M58.9108842,15.1185331 C59.3119582,15.1185331 59.6186619,15.4270516 59.6186619,15.8263109 L59.6186619,28.3576069 C59.6186619,28.7822736 59.8545879,29.1597551 60.2084768,29.3720884 C60.5623656,29.5608291 60.6803286,30.0090884 60.4679953,30.3393847 C60.2792545,30.669681 59.8545879,30.7876439 59.500699,30.5989032 C58.7221434,30.1270514 58.2031064,29.2759032 58.2031064,28.3576069 L58.2031064,15.8263109 C58.2031064,15.4270516 58.5334027,15.1185331 58.9108842,15.1185331 Z M129.090861,20.7348404 C129.963787,19.8619145 131.261379,19.602396 132.393824,20.0742478 C133.526268,20.5460997 134.257638,21.6313589 134.257638,22.8599885 L134.257638,22.8599885 L134.257638,29.8923958 C134.257638,30.2916551 133.927342,30.5983588 133.549861,30.5983588 L133.549861,30.5983588 L131.190601,30.5983588 C129.491935,30.5983588 128.123564,29.2299884 128.123564,27.5313218 C128.123564,25.8308403 129.491935,24.46247 131.190601,24.46247 L131.190601,24.46247 L132.842083,24.46247 L132.842083,22.8599885 C132.842083,22.1975811 132.441009,21.6313589 131.851194,21.3718404 C131.237787,21.1359145 130.553601,21.2538774 130.105342,21.7275441 C129.822231,22.0088404 129.373972,22.0088404 129.090861,21.7275441 C128.80775,21.4426182 128.80775,20.9943589 129.090861,20.7348404 Z M91.3173059,15.1179886 C91.6947873,15.1179886 92.0250836,15.4265072 92.0250836,15.8275812 L92.0250836,15.8275812 L92.0250836,29.8923958 C92.0250836,30.2916551 91.6947873,30.5983588 91.3173059,30.5983588 L91.3173059,30.5983588 L88.9580466,30.5983588 C87.2575652,30.5983588 85.8891948,29.2299884 85.8891948,27.5313218 L85.8891948,27.5313218 L85.8891948,23.0015441 C85.8891948,21.3010626 87.2575652,19.9326923 88.9580466,19.9326923 L88.9580466,19.9326923 L90.6095281,19.9326923 L90.6095281,15.8275812 C90.6095281,15.4265072 90.9162318,15.1179886 91.3173059,15.1179886 Z M80.4750579,19.8370515 C80.876132,19.8370515 81.1828357,20.14557 81.1828357,20.5466441 L81.1828357,29.8911254 C81.1828357,30.2921995 80.876132,30.5989032 80.4750579,30.5989032 L78.1157987,30.5989032 C76.417132,30.5989032 75.0487617,29.2305329 75.0487617,27.5318662 L75.0487617,20.5466441 C75.0487617,20.14557 75.3554654,19.8370515 75.7565395,19.8370515 C76.1576135,19.8370515 76.4643172,20.14557 76.4643172,20.5466441 L76.4643172,27.5318662 C76.4643172,28.4501625 77.1956876,29.1833477 78.1157987,29.1833477 L79.7672801,29.1833477 L79.7672801,20.5466441 C79.7672801,20.14557 80.0739838,19.8370515 80.4750579,19.8370515 Z M9.166,23.7580998 L1.37744442,23.7583218 L1.37925924,29.4532106 L21.9374811,29.4532106 L21.937,27.7590998 L9.16662947,27.7599884 L9.166,23.7580998 Z M67.4639248,21.2531515 C66.5438137,21.2531515 65.8106285,21.9863367 65.8106285,22.904633 L65.8106285,22.904633 L65.8106285,27.6249662 C65.8106285,28.5468921 66.5438137,29.2764477 67.4639248,29.2764477 C68.3586285,29.2764477 69.1154062,28.5468921 69.1154062,27.6249662 L69.1154062,27.6249662 L69.1154062,22.904633 C69.1154062,21.9863367 68.3586285,21.2531515 67.4639248,21.2531515 Z M143.495227,21.3500626 L141.843746,21.3500626 C140.947227,21.3500626 140.192264,22.0796182 140.192264,23.0015441 L140.192264,23.0015441 L140.192264,27.5313218 C140.192264,28.4514329 140.947227,29.1828032 141.843746,29.1828032 L141.843746,29.1828032 L143.495227,29.1828032 L143.495227,21.3500626 Z M132.842083,25.8798403 L131.190601,25.8798403 C130.27049,25.8798403 129.53912,26.6112107 129.53912,27.5313218 C129.53912,28.4514329 130.27049,29.1828032 131.190601,29.1828032 L131.190601,29.1828032 L132.842083,29.1828032 L132.842083,25.8798403 Z M122.756068,21.3500626 L121.104587,21.3500626 C120.208068,21.3500626 119.453105,22.0796182 119.453105,23.0015441 L119.453105,23.0015441 L119.453105,27.5313218 C119.453105,28.4514329 120.208068,29.1828032 121.104587,29.1828032 L121.104587,29.1828032 L122.756068,29.1828032 L122.756068,21.3500626 Z M90.6095281,21.3500626 L88.9580466,21.3500626 C88.0379355,21.3500626 87.3047504,22.0796182 87.3047504,23.0015441 L87.3047504,23.0015441 L87.3047504,27.5313218 C87.3047504,28.4514329 88.0379355,29.1828032 88.9580466,29.1828032 L88.9580466,29.1828032 L90.6095281,29.1828032 L90.6095281,21.3500626 Z M21.9374811,23.7583218 L10.544,23.7580998 L10.5440739,26.402507 L21.937,26.4020998 L21.9374811,23.7583218 Z M28.664,19.1730998 L18.1804515,19.1731923 L18.18,22.4000998 L23.3167403,22.4008404 L23.316,26.4020998 L28.6649995,26.402507 L28.664,19.1730998 Z M152.590897,21.2542404 C151.670786,21.2542404 150.939416,21.9856108 150.939416,22.9057218 L150.939416,22.9057218 L150.939416,24.5572033 L154.242379,24.5572033 L154.242379,22.9057218 C154.242379,21.9856108 153.511008,21.2542404 152.590897,21.2542404 Z M99.7992057,21.2542404 C98.8790946,21.2542404 98.1477243,21.9856108 98.1477243,22.9057218 L98.1477243,22.9057218 L98.1477243,24.5572033 L101.450687,24.5572033 L101.450687,22.9057218 C101.450687,21.9856108 100.719317,21.2542404 99.7992057,21.2542404 Z M28.6649995,16.1179516 L10.5440739,16.1179516 L10.544,22.4000998 L16.803,22.4000998 L16.8030071,17.8193405 L28.664,17.8190998 L28.6649995,16.1179516 Z" id="Combined-Shape" fill="#FFFFFF"></path>
        <path d="M98.9268242,2.20939257 C100.453083,2.20939257 101.979343,3.34002218 101.979343,5.37442956 C101.979343,7.4052073 100.453083,8.5467258 98.9268242,8.5467258 C97.400565,8.5467258 95.872491,7.4052073 95.872491,5.37442956 C95.872491,3.34002218 97.400565,2.20939257 98.9268242,2.20939257 Z M104.554746,2.33642961 L105.892265,7.09668879 L107.418524,2.33642961 L108.302339,2.33642961 L109.86308,7.1475036 L111.175191,2.33642961 L112.040857,2.33642961 L110.309524,8.41787395 L109.442043,8.41787395 L107.855894,3.48520737 L106.28608,8.41787395 L105.44582,8.41787395 L103.68908,2.33642961 L104.554746,2.33642961 Z M151.542116,2.33642961 L153.11919,5.04594808 L154.698079,2.33642961 L155.658116,2.33642961 L153.51482,5.81905918 L153.51482,8.41787395 L152.67456,8.41787395 L152.67456,5.81905918 L150.529449,2.33642961 L151.542116,2.33642961 Z M91.9858836,2.33715553 C93.109254,2.33715553 93.8642169,3.11752589 93.8642169,4.13926661 C93.8642169,5.16645178 93.109254,5.9304888 91.9858836,5.9304888 L90.6138836,5.9304888 L90.6138836,8.41678506 L89.7736244,8.41678506 L89.7736244,2.33715553 L91.9858836,2.33715553 Z M117.999983,2.33570368 L117.999983,3.11788885 L115.143465,3.11788885 L115.143465,4.98533327 L117.73502,4.98533327 L117.73502,5.77659251 L115.143465,5.77659251 L115.143465,7.63677766 L117.999983,7.63677766 L117.999983,8.41714802 L114.303205,8.41714802 L114.303205,2.33570368 L117.999983,2.33570368 Z M122.943176,2.33715553 C124.091953,2.33715553 124.805176,3.1429333 124.805176,4.14652587 C124.805176,5.01945178 124.246213,5.69819251 123.327916,5.87059992 L124.779768,8.41678506 L123.801583,8.41678506 L122.411435,5.9304888 L121.502213,5.9304888 L121.502213,8.41678506 L120.652879,8.41678506 L120.652879,2.33715553 L122.943176,2.33715553 Z M131.025272,2.33570368 L131.025272,3.11788885 L128.168753,3.11788885 L128.168753,4.98533327 L130.758494,4.98533327 L130.758494,5.77659251 L128.168753,5.77659251 L128.168753,7.63677766 L131.025272,7.63677766 L131.025272,8.41714802 L127.328494,8.41714802 L127.328494,2.33570368 L131.025272,2.33570368 Z M135.801864,2.33715553 C137.348087,2.33715553 138.694679,3.39337774 138.694679,5.389674 C138.694679,7.38052582 137.329938,8.41678506 135.785531,8.41678506 L133.676716,8.41678506 L133.676716,2.33715553 L135.801864,2.33715553 Z M146.711442,2.33697405 C147.869294,2.33697405 148.54622,3.02297404 148.54622,3.98301106 C148.54622,4.63452957 148.170553,5.09912215 147.636997,5.29512215 C148.332072,5.46571474 148.73496,6.08456658 148.73496,6.76149249 C148.73496,7.72152952 147.972738,8.41660358 146.856627,8.41660358 L144.729664,8.41660358 L144.729664,2.33697405 L146.711442,2.33697405 Z M98.9268242,2.97887404 C97.7943798,2.97887404 96.7308984,3.7846518 96.7308984,5.37442956 C96.7308984,6.96057768 97.7943798,7.77542951 98.9268242,7.77542951 C100.059269,7.77542951 101.120935,6.96057768 101.120935,5.37442956 C101.120935,3.7846518 100.059269,2.97887404 98.9268242,2.97887404 Z M146.771331,5.71615918 L145.569923,5.71615918 L145.569923,7.67978878 L146.736849,7.67978878 C147.41559,7.67978878 147.876553,7.3023073 147.876553,6.71067768 C147.876553,6.12812213 147.50996,5.71615918 146.771331,5.71615918 Z M135.778272,3.08304441 L134.516975,3.08304441 L134.516975,7.67089618 L135.760124,7.67089618 C136.883494,7.67089618 137.827198,6.91593323 137.827198,5.389674 C137.827198,3.85434069 136.899827,3.08304441 135.778272,3.08304441 Z M91.8316244,3.09211848 L90.6138836,3.09211848 L90.6138836,5.17552585 L91.8316244,5.17552585 C92.5611799,5.17552585 93.0058095,4.77263697 93.0058095,4.14652587 C93.0058095,3.50226662 92.5611799,3.09211848 91.8316244,3.09211848 Z M122.788916,3.09211848 L121.502213,3.09211848 L121.502213,5.17552585 L122.788916,5.17552585 C123.474916,5.17552585 123.937694,4.77263697 123.937694,4.14652587 C123.937694,3.50226662 123.474916,3.09211848 122.788916,3.09211848 Z M146.58259,3.07378885 L145.569923,3.07378885 L145.569923,4.99567771 L146.617072,4.99567771 C147.293997,4.99567771 147.696886,4.59278883 147.696886,4.0247518 C147.696886,3.45308514 147.277664,3.07378885 146.58259,3.07378885 Z" id="Combined-Shape" fill="#8692A2"></path>
        <polygon id="Fill-39" fill="#FFFFE0" points="81.3537912 1 76.9147542 5.37551844 79.6896061 5.37551844 77.2976802 8.98881468 82.5225319 4.21222217 79.7186431 4.21222217"></polygon>
        <polygon id="Stroke-40" stroke="#FF9102" stroke-width="0.5" stroke-linecap="round" stroke-linejoin="round" points="81.3537912 1 76.9147542 5.37551844 79.6896061 5.37551844 77.2976802 8.98881468 82.5225319 4.21222217 79.7186431 4.21222217"></polygon>
    </g>
</svg>