<?xml version="1.0" encoding="UTF-8"?>
<svg width="22px" height="22px" viewBox="0 0 22 22" version="1.1" xmlns="http://www.w3.org/2000/svg" xmlns:xlink="http://www.w3.org/1999/xlink">
    <title>request-breakout-icon</title>
    <g id="request-breakout-icon" stroke="none" stroke-width="1" fill="#8D98A7" fill-rule="evenodd">
        <path d="M16,2 C17.1045695,2 18,2.8954305 18,4 L18,18 C18,19.1045695 17.1045695,20 16,20 L6,20 C4.8954305,20 4,19.1045695 4,18 L4,4 C4,2.8954305 4.8954305,2 6,2 L16,2 Z M14.5,10 C13.6715729,10 13,10.6715729 13,11.5 C13,12.3284271 13.6715729,13 14.5,13 C15.3284271,13 16,12.3284271 16,11.5 C16,10.6715729 15.3284271,10 14.5,10 Z" id="Combined-Shape" fill="#8D98A7"></path>
    </g>
</svg>
