<?xml version="1.0" encoding="UTF-8"?>
<svg width="22px" height="22px" viewBox="0 0 22 22" version="1.1" xmlns="http://www.w3.org/2000/svg" xmlns:xlink="http://www.w3.org/1999/xlink">
    <title>schedule-call-icon</title>
    <g id="schedule-call-icon" stroke="none" stroke-width="1" fill="none" fill-rule="evenodd">
        <path d="M10.7533333,5 C12.7266667,5 14.3288889,6.6 14.3288889,8.57333333 L14.3288889,8.57333333 L14.3288889,13.9433333 C14.3288889,15.9177778 12.7266667,17.5188889 10.7533333,17.5188889 L10.7533333,17.5188889 L4.57444444,17.5188889 C2.6,17.5188889 1,15.9177778 1,13.9433333 L1,13.9433333 L1,8.57333333 C1,6.6 2.6,5 4.57444444,5 L4.57444444,5 Z M19.9711111,7.09211111 C20.54,7.09211111 21,7.55322222 21,8.121 L21,8.121 L21,14.3965556 C21,14.9643333 20.54,15.4254444 19.9711111,15.4254444 L19.9711111,15.4254444 L18.6844444,15.4254444 C16.9255556,15.4254444 15.5,13.9998889 15.5,12.241 L15.5,12.241 L15.5,10.2776667 C15.5,8.51877778 16.9255556,7.09211111 18.6844444,7.09211111 L18.6844444,7.09211111 Z M5.10888889,11.86 C4.25222222,11.86 3.55777778,12.5533333 3.55777778,13.41 C3.55777778,14.2655556 4.25222222,14.96 5.10888889,14.96 C5.96555556,14.96 6.65888889,14.2655556 6.65888889,13.41 C6.65888889,12.5533333 5.96555556,11.86 5.10888889,11.86 Z" id="Combined-Shape" fill="#8D98A7"></path>
    </g>
</svg>
