<?xml version="1.0" encoding="UTF-8"?>
<svg width="20px" height="20px" viewBox="0 0 20 20" version="1.1" xmlns="http://www.w3.org/2000/svg" xmlns:xlink="http://www.w3.org/1999/xlink">
    <title>time-icon</title>
    <g id="time-icon" stroke="none" stroke-width="1" fill="none" fill-rule="evenodd">
        <path d="M10,0 C15.5228475,0 20,4.4771525 20,10 C20,15.5228475 15.5228475,20 10,20 C4.4771525,20 0,15.5228475 0,10 C0,4.4771525 4.4771525,0 10,0 Z M10,2 C5.581722,2 2,5.581722 2,10 C2,14.418278 5.581722,18 10,18 C14.418278,18 18,14.418278 18,10 C18,5.581722 14.418278,2 10,2 Z M10,5 C10.5128358,5 10.9355072,5.38604019 10.9932723,5.88337887 L11,6 L11,9.898 L14.6751801,13.2623471 C15.0512365,13.6065548 15.1039964,14.1720071 14.8165987,14.5773899 L14.7376529,14.6751801 C14.3934452,15.0512365 13.8279929,15.1039964 13.4226101,14.8165987 L13.3248199,14.7376529 L9,10.7791079 L9,6 C9,5.44771525 9.44771525,5 10,5 Z" id="Combined-Shape" fill="#FFFFFF" fill-rule="nonzero"></path>
    </g>
</svg>