<?xml version="1.0" encoding="UTF-8"?>
<svg width="20px" height="13px" viewBox="0 0 20 13" version="1.1" xmlns="http://www.w3.org/2000/svg" xmlns:xlink="http://www.w3.org/1999/xlink">
    <title>call-icon</title>
    <g id="Symbols" stroke="none" stroke-width="1" fill="none" fill-rule="evenodd">
        <g id="make-it-yours-red" transform="translate(-544.000000, -337.000000)" fill="#8D98A7">
            <g id="call-icon" transform="translate(544.000000, 337.000000)">
                <path d="M9.75333333,0 C11.7266667,0 13.3288889,1.6 13.3288889,3.57333333 L13.3288889,3.57333333 L13.3288889,8.94333333 C13.3288889,10.9177778 11.7266667,12.5188889 9.75333333,12.5188889 L9.75333333,12.5188889 L3.57444444,12.5188889 C1.6,12.5188889 2.52242671e-13,10.9177778 2.52242671e-13,8.94333333 L2.52242671e-13,8.94333333 L2.52242671e-13,3.57333333 C2.52242671e-13,1.6 1.6,0 3.57444444,0 L3.57444444,0 Z M4.10888889,6.86 C3.25222222,6.86 2.55777778,7.55333333 2.55777778,8.41 C2.55777778,9.26555556 3.25222222,9.96 4.10888889,9.96 C4.96555556,9.96 5.65888889,9.26555556 5.65888889,8.41 C5.65888889,7.55333333 4.96555556,6.86 4.10888889,6.86 Z" id="Combined-Shape"></path>
                <path d="M18.9711111,2.09211111 L17.6844444,2.09211111 C15.9255556,2.09211111 14.5,3.51877778 14.5,5.27766667 L14.5,6.12988889 L14.5,7.241 C14.5,8.99988889 15.9255556,10.4254444 17.6844444,10.4254444 L18.9711111,10.4254444 C19.54,10.4254444 20,9.96433333 20,9.39655556 L20,8.28544444 L20,3.121 C20,2.55322222 19.54,2.09211111 18.9711111,2.09211111" id="Fill-6"></path>
            </g>
        </g>
    </g>
</svg>