<?xml version="1.0" encoding="UTF-8"?>
<svg width="64px" height="71px" viewBox="0 0 64 71" version="1.1" xmlns="http://www.w3.org/2000/svg" xmlns:xlink="http://www.w3.org/1999/xlink">
    <title>chord-video-bg-element-beige</title>
    <defs>
        <filter id="filter-1">
            <feColorMatrix in="SourceGraphic" type="matrix" values="0 0 0 0 0.933333 0 0 0 0 0.776471 0 0 0 0 0.619608 0 0 0 1.000000 0"></feColorMatrix>
        </filter>
    </defs>
    <g id="Page-1" stroke="none" stroke-width="1" fill="none" fill-rule="evenodd">
        <g id="chord-video-lp-v2@2x" transform="translate(-808.000000, -1030.000000)">
            <g id="chord-video-bg-element-beige" transform="translate(808.000000, 1030.000000)" filter="url(#filter-1)">
                <g>
                    <path d="M-6.17639273e-12,46.5482571 C0.560255967,46.9929168 1.14852473,47.4152038 1.78161397,47.7843553 L1.78161397,47.7843553 L13.3368933,54.4402688 C16.0793463,56.0231457 17.7825244,58.9707645 17.7825244,62.1309251 C17.7825244,65.2910857 16.0793463,68.2387046 13.3396946,69.8187849 C10.5972416,71.393272 7.18808406,71.393272 4.44843238,69.8215815 C1.70317814,68.2387046 -6.17639273e-12,65.2910857 -6.17639273e-12,62.1309251 L-6.17639273e-12,62.1309251 Z M32.0004202,38.5592033 L36.4460513,41.1180944 C38.4601715,42.2842775 39.9700613,44.2418992 40.5835416,46.5015538 C40.788035,47.2538398 40.8916824,48.0340919 40.8916824,48.8087507 C40.8916824,51.9689113 39.1885042,54.9165302 36.4460513,56.4966105 L36.4460513,56.4966105 L22.9242735,64.2907411 C23.0363247,63.5832007 23.109158,62.8588807 23.109158,62.1317641 C23.109158,57.0783037 20.3835127,52.3660289 15.9995098,49.840697 L15.9995098,49.840697 L14.0330113,48.7052764 C14.7053185,48.4423958 15.3664205,48.1487526 15.9995098,47.7851943 L15.9995098,47.7851943 L32.0004202,38.5592033 Z M55.1087378,26.6179911 C56.6298328,26.6179911 58.1257162,27.0039222 59.4815356,27.7618014 C59.5067471,27.778581 59.5319587,27.7953606 59.5571702,27.8093437 C61.5712904,28.9643404 63.0755777,30.9247586 63.6918592,33.1760235 C63.8627373,33.8024624 63.9523782,34.4932232 63.9719872,35.281865 C63.9719872,35.3322039 63.9887949,35.458051 64,35.5391524 C63.980391,38.6797368 62.2828155,41.596593 59.5599715,43.1710801 L59.5599715,43.1710801 L46.0381937,50.9736006 C46.0381937,50.9596176 46.040995,50.9484311 46.040995,50.9372447 C46.1306359,50.3527549 46.181059,49.7598752 46.2006679,49.1166566 C46.2062705,49.071911 46.2230782,48.8565726 46.2230782,48.8090304 L46.2230782,48.8090304 L46.2174756,35.4888136 C46.2146743,32.3314496 47.9178525,29.3838308 50.6603054,27.7981572 C51.9993172,27.0234984 53.5372198,26.6179911 55.1087378,26.6179911 Z M0.000560255964,19.9039083 C0.560816223,20.3541612 1.14628371,20.7736516 1.78217423,21.1428031 L1.78217423,21.1428031 L26.6743468,35.4921695 L19.1389041,39.8324963 C19.1192951,39.8436827 19.0996862,39.8548691 19.0828785,39.8660555 L19.0828785,39.8660555 L13.3374535,43.1772327 C11.9900379,43.9518915 10.4521353,44.3657886 8.89182245,44.3657886 C8.07384874,44.3657886 7.18304175,44.2063823 6.17738229,43.8875696 C5.59471609,43.6974007 4.97843452,43.4876555 4.44058879,43.1800293 C1.70093712,41.5943557 0.000560255964,38.6495335 0.000560255964,35.4921695 L0.000560255964,35.4921695 Z M27.5528282,14.4854913 C30.2952812,12.9082076 33.7016374,12.9082076 36.4468917,14.4854913 L36.4468917,14.4854913 L49.954663,22.2684355 C49.2683495,22.5285195 48.61285,22.8389424 47.9937672,23.1969075 C43.6125655,25.725036 40.8897215,30.4345142 40.8925228,35.4907712 L40.8925228,35.4907712 L40.8925228,37.7504259 C40.323863,37.2861899 39.7299916,36.877886 39.1081075,36.5199209 L39.1081075,36.5199209 L14.0310504,22.0670801 C14.647332,21.8265723 15.2468059,21.5497087 15.9695361,21.160981 L15.9695361,21.160981 L21.8074033,17.8973461 Z M4.44339007,1.16303722 C7.14382383,-0.389077059 10.6426223,-0.386280457 13.3374535,1.16303722 L13.3374535,1.16303722 L26.85643,8.95716785 C26.2009306,9.21165866 25.5566362,9.5053019 24.8423098,9.90801263 L24.8423098,9.90801263 L13.3374535,16.5359601 C10.6482249,18.0852778 7.14102255,18.0824812 4.44339007,16.5387567 L4.44339007,16.5387567 C1.7037384,14.9586764 0.000560255963,12.0110576 0.000560255963,8.84810036 C0.000560255963,5.68793975 1.7037384,2.74311752 4.44339007,1.16303722 Z" id="Combined-Shape" fill="#F8EFE2"></path>
                </g>
            </g>
        </g>
    </g>
</svg>