<?xml version="1.0" encoding="UTF-8"?>
<svg width="57px" height="68px" viewBox="0 0 57 68" version="1.1" xmlns="http://www.w3.org/2000/svg" xmlns:xlink="http://www.w3.org/1999/xlink">
    <title>chord-connect-icon</title>
    <g id="Page-1" stroke="none" stroke-width="1" fill="none" fill-rule="evenodd" opacity="0.119999997">
        <g id="chord-video-lp-v2@2x" transform="translate(-933.000000, -9920.000000)" fill="#F8EFE2">
            <g id="Group-35" transform="translate(118.000000, 8820.000000)">
                <g id="chord-connect-icon" transform="translate(815.000000, 1100.000000)">
                    <path d="M48.9651111,0.259666667 C48.8722222,0.956333333 48.6801111,2.26733333 48.6315556,2.58611111 L48.6315556,2.58611111 C48.5154444,3.37355556 48.3993333,4.161 48.279,4.94844444 L48.279,4.94844444 C48.1248889,5.98077778 47.9707778,7.00888889 47.8166667,8.03911111 L47.8166667,8.03911111 C47.7575556,8.42122222 47.7005556,8.80544444 47.6435556,9.18755556 L47.6435556,9.18755556 C45.7541111,16.8804444 42.3784444,26.4733333 41.1371111,29.7413333 L41.1371111,29.7413333 L34.0838889,49.4907778 C32.8784444,54.2893333 30.7314444,59.7338889 26.9082222,63.8336667 L26.9082222,63.8336667 L30.97,67.5555556 C37.0732222,61.009 39.5305556,51.9354444 40.5185556,45.4775556 L40.5185556,45.4775556 C40.7022222,44.2868889 40.8436667,43.1321111 40.9534444,42.028 L40.9534444,42.028 C41.3461111,41.4537778 41.743,40.8457778 42.1441111,40.1997778 L42.1441111,40.1997778 C45.4268889,34.8713333 49.4844444,25.7914444 50.1663333,12.7764444 L50.1663333,12.7764444 L50.0692222,11.9172222 C52.2394444,13.4477778 53.6285556,16.9142222 53.6285556,16.9142222 L53.6285556,16.9142222 C55.5348889,24.0518889 49.8538889,30.0558889 49.8538889,30.0558889 L49.8538889,30.0558889 C49.3535556,31.2803333 50.0312222,31.1051111 50.0312222,31.1051111 L50.0312222,31.1051111 C51.8868889,30.0284444 54.4286667,26.1503333 54.4286667,26.1503333 L54.4286667,26.1503333 C60.3102222,17.0261111 51.5702222,8.246 51.5702222,8.246 L51.5702222,8.246 C50.6561111,7.45011111 50.1853333,6.10111111 50.027,4.68244444 L50.027,4.68244444 C49.9615556,4.09555556 49.9467778,3.49388889 49.9678889,2.888 L49.9678889,2.888 C49.9784444,2.622 50.2296667,0.823333333 50.255,0.553111111 L50.255,0.553111111 C50.274,0.377888889 50.3077778,0.181555556 50.3098889,0.00211111111 L50.3098889,0.00211111111 L48.9651111,0.259666667 Z" id="Fill-1"></path>
                    <path d="M9.92433333,21.4193333 C7.05744444,23.978 5.88788889,27.9806667 6.63311111,32.6947778 L6.63311111,32.6947778 C7.334,37.1323333 9.67733333,41.7303333 13.2282222,45.6401111 L13.2282222,45.6401111 C15.3815556,48.013 17.8325556,49.97 20.4081111,51.4013333 L20.4081111,51.4013333 C19.3778889,51.1881111 18.3392222,50.9094444 17.309,50.559 L17.309,50.559 C12.92,49.0896667 9.18755556,46.6238889 6.79566667,43.6176667 L6.79566667,43.6176667 C5.29466667,41.7261111 4.46288889,39.786 4.34466667,37.9641111 L4.34466667,37.9641111 C3.75355556,36.3828889 3.32288889,34.7826667 3.07166667,33.1972222 L3.07166667,33.1972222 C2.97877778,32.6061111 2.91333333,32.0192222 2.869,31.4428889 L2.869,31.4428889 C2.18922222,32.319 1.66144444,33.288 1.30255556,34.3414444 L1.30255556,34.3414444 C0.0654444444,37.9704444 1.03022222,42.0343333 4.01111111,45.79 L4.01111111,45.79 C6.821,49.3261111 11.1403333,52.2035556 16.1774444,53.8924444 L16.1774444,53.8924444 C18.7614444,54.7601111 21.3897778,55.2625556 23.9294444,55.3976667 L23.9294444,55.3976667 L23.9547778,55.3976667 C23.2665556,55.5581111 22.5635556,55.6974444 21.85,55.8093333 L21.85,55.8093333 C17.2815556,56.5228889 12.8271111,56.0542222 9.31211111,54.4898889 L9.31211111,54.4898889 C8.51833333,54.1373333 7.80055556,53.7362222 7.15877778,53.3013333 L7.15877778,53.3013333 C7.15455556,53.3097778 7.15033333,53.3161111 7.144,53.3224444 L7.144,53.3224444 C4.85977778,51.775 2.87533333,49.9721111 1.28988889,47.9771111 L1.28988889,47.9771111 C0.842333333,47.4113333 0.426444444,46.8371111 0.0527777778,46.2523333 L0.0527777778,46.2523333 C-0.0337777778,47.101 -0.0126666667,47.956 0.122444444,48.8046667 L0.122444444,48.8046667 C0.726222222,52.5835556 3.47277778,55.7396667 7.866,57.6903333 L7.866,57.6903333 C10.5471111,58.8852222 13.6567778,59.5417778 16.9416667,59.6304444 L16.9416667,59.6304444 C18.7255556,59.6832222 20.5622222,59.565 22.4052222,59.28 L22.4052222,59.28 C27.6428889,58.4608889 32.3823333,56.354 35.7432222,53.3435556 L35.7432222,53.3435556 C35.8297778,53.2654444 35.9142222,53.1894444 35.9986667,53.1092222 L35.9986667,53.1092222 L40.5164444,40.4594444 C40.4995556,40.3581111 40.4868889,40.2588889 40.4742222,40.1575556 L40.4742222,40.1575556 C39.7712222,35.72 37.4278889,31.122 33.8748889,27.2101111 L33.8748889,27.2101111 C30.3261111,23.2982222 25.9582222,20.5094444 21.5755556,19.3567778 L21.5755556,19.3567778 C20.1041111,18.9683333 18.6833333,18.7762222 17.3364444,18.7762222 L17.3364444,18.7762222 C14.4336667,18.7762222 11.8813333,19.6713333 9.92433333,21.4193333 M12.293,24.0286667 C14.2394444,22.2912222 17.214,21.8352222 20.6698889,22.7451111 L20.6698889,22.7451111 C24.3917778,23.731 28.1474444,26.1482222 31.2465556,29.5597778 L31.2465556,29.5597778 C31.9474444,30.3282222 32.5913333,31.1262222 33.1782222,31.9453333 L33.1782222,31.9453333 C30.8454444,30.1952222 28.0883333,28.7554444 25.0715556,27.7463333 L25.0715556,27.7463333 C20.0365556,26.0574444 14.8474444,25.745 10.45,26.8681111 L10.45,26.8681111 L10.4457778,26.8681111 C10.8363333,25.7386667 11.4548889,24.776 12.293,24.0286667 M10.1312222,32.1522222 C10.051,31.6518889 10.0003333,31.1621111 9.975,30.6892222 L9.975,30.6892222 C10.4077778,30.5351111 10.8616667,30.3936667 11.3345556,30.2712222 L11.3345556,30.2712222 C13.129,29.8152222 15.0902222,29.6421111 17.1316667,29.7497778 L17.1316667,29.7497778 C19.3483333,29.8658889 21.6557778,30.3113333 23.9378889,31.0755556 L23.9378889,31.0755556 C24.6662222,31.3204444 25.3755556,31.5927778 26.0637778,31.8904444 L26.0637778,31.8904444 C23.5093333,31.578 20.7944444,31.6286667 18.0605556,32.0551111 L18.0605556,32.0551111 C15.4047778,32.471 12.8841111,33.2141111 10.602,34.2401111 L10.602,34.2401111 C10.3993333,33.5413333 10.241,32.8446667 10.1312222,32.1522222 M26.4374444,50.1051111 C22.7134444,49.1234444 18.9556667,46.702 15.8565556,43.2925556 L15.8565556,43.2925556 C14.2183333,41.4875556 12.8735556,39.5221111 11.8855556,37.5186667 L11.8855556,37.5186667 C13.9206667,36.5813333 16.1985556,35.8994444 18.6136667,35.5236667 L18.6136667,35.5236667 C20.2476667,35.2661111 21.8711111,35.1647778 23.4375556,35.2091111 L23.4375556,35.2091111 C26.2495556,35.2851111 28.8926667,35.8382222 31.1494444,36.8431111 L31.1494444,36.8431111 C34.3034444,38.247 36.2963333,40.3581111 36.7966667,42.8154444 L36.7966667,42.8154444 C36.8811111,43.2841111 36.9233333,43.7422222 36.917,44.1961111 L36.917,44.1961111 C36.9001111,45.0152222 36.7206667,45.8427778 36.3892222,46.6618889 L36.3892222,46.6618889 C36.005,47.5021111 35.4772222,48.2304444 34.8122222,48.8215556 L34.8122222,48.8215556 C33.5202222,49.9742222 31.7764444,50.5632222 29.7413333,50.5632222 L29.7413333,50.5632222 C28.709,50.5632222 27.6006667,50.4112222 26.4374444,50.1051111" id="Fill-4"></path>
                </g>
            </g>
        </g>
    </g>
</svg>