<?xml version="1.0" encoding="UTF-8"?>
<svg width="64px" height="66px" viewBox="0 0 64 66" version="1.1" xmlns="http://www.w3.org/2000/svg" xmlns:xlink="http://www.w3.org/1999/xlink">
    <title>firefox-logo</title>
    <defs>
        <linearGradient x1="87.3761876%" y1="15.485279%" x2="9.2268893%" y2="93.1163773%" id="linearGradient-1">
            <stop stop-color="#FFF44F" offset="4.8%"></stop>
            <stop stop-color="#FFE847" offset="11.1%"></stop>
            <stop stop-color="#FFC830" offset="22.5%"></stop>
            <stop stop-color="#FF980E" offset="36.8%"></stop>
            <stop stop-color="#FF8B16" offset="40.1%"></stop>
            <stop stop-color="#FF672A" offset="46.2%"></stop>
            <stop stop-color="#FF3647" offset="53.4%"></stop>
            <stop stop-color="#E31587" offset="70.5%"></stop>
        </linearGradient>
        <radialGradient cx="85.9133053%" cy="-12.9389624%" fx="85.9133053%" fy="-12.9389624%" r="128.566972%" gradientTransform="translate(0.859133,-0.129390),scale(0.811741,1.000000),translate(-0.859133,0.129390)" id="radialGradient-2">
            <stop stop-color="#FFBD4F" offset="12.9%"></stop>
            <stop stop-color="#FFAC31" offset="18.6%"></stop>
            <stop stop-color="#FF9D17" offset="24.7%"></stop>
            <stop stop-color="#FF980E" offset="28.3%"></stop>
            <stop stop-color="#FF563B" offset="40.3%"></stop>
            <stop stop-color="#FF3750" offset="46.7%"></stop>
            <stop stop-color="#F5156C" offset="71%"></stop>
            <stop stop-color="#EB0878" offset="78.2%"></stop>
            <stop stop-color="#E50080" offset="86%"></stop>
        </radialGradient>
        <radialGradient cx="47.7781081%" cy="39.5405056%" fx="47.7781081%" fy="39.5405056%" r="128.567343%" gradientTransform="translate(0.477781,0.395405),scale(0.811741,1.000000),translate(-0.477781,-0.395405)" id="radialGradient-3">
            <stop stop-color="#960E18" offset="30%"></stop>
            <stop stop-color="#B11927" stop-opacity="0.74" offset="35.1%"></stop>
            <stop stop-color="#DB293D" stop-opacity="0.343" offset="43.5%"></stop>
            <stop stop-color="#F5334B" stop-opacity="0.094" offset="49.7%"></stop>
            <stop stop-color="#FF3750" stop-opacity="0" offset="53%"></stop>
        </radialGradient>
        <radialGradient cx="49.999253%" cy="-29.9986434%" fx="49.999253%" fy="-29.9986434%" r="314.94394%" gradientTransform="translate(0.499993,-0.299986),scale(1.000000,0.589937),translate(-0.499993,0.299986)" id="radialGradient-4">
            <stop stop-color="#FFF44F" offset="13.2%"></stop>
            <stop stop-color="#FFDC3E" offset="25.2%"></stop>
            <stop stop-color="#FF9D12" offset="50.6%"></stop>
            <stop stop-color="#FF980E" offset="52.6%"></stop>
        </radialGradient>
        <radialGradient cx="19.4626795%" cy="110.094003%" fx="19.4626795%" fy="110.094003%" r="111.751472%" gradientTransform="translate(0.194627,1.100940),scale(1.000000,0.913696),translate(-0.194627,-1.100940)" id="radialGradient-5">
            <stop stop-color="#3A8EE6" offset="35.3%"></stop>
            <stop stop-color="#5C79F0" offset="47.2%"></stop>
            <stop stop-color="#9059FF" offset="66.9%"></stop>
            <stop stop-color="#C139E6" offset="100%"></stop>
        </radialGradient>
        <radialGradient cx="58.2460892%" cy="36.6190028%" fx="58.2460892%" fy="36.6190028%" r="59.2511466%" gradientTransform="translate(0.582461,0.366190),scale(1.000000,0.913696),rotate(-13.578607),translate(-0.582461,-0.366190)" id="radialGradient-6">
            <stop stop-color="#9059FF" stop-opacity="0" offset="20.6%"></stop>
            <stop stop-color="#8C4FF3" stop-opacity="0.064" offset="27.8%"></stop>
            <stop stop-color="#7716A8" stop-opacity="0.45" offset="74.7%"></stop>
            <stop stop-color="#6E008B" stop-opacity="0.6" offset="97.5%"></stop>
        </radialGradient>
        <radialGradient cx="208.106392%" cy="-103.896481%" fx="208.106392%" fy="-103.896481%" r="293.18616%" gradientTransform="translate(2.081064,-1.038965),scale(1.000000,0.997838),translate(-2.081064,1.038965)" id="radialGradient-7">
            <stop stop-color="#FFE226" offset="0%"></stop>
            <stop stop-color="#FFDB27" offset="12.1%"></stop>
            <stop stop-color="#FFC82A" offset="29.5%"></stop>
            <stop stop-color="#FFA930" offset="50.2%"></stop>
            <stop stop-color="#FF7E37" offset="73.2%"></stop>
            <stop stop-color="#FF7139" offset="79.2%"></stop>
        </radialGradient>
        <radialGradient cx="79.3105134%" cy="-40.8871847%" fx="79.3105134%" fy="-40.8871847%" r="194.096012%" gradientTransform="translate(0.793105,-0.408872),scale(0.838273,1.000000),translate(-0.793105,0.408872)" id="radialGradient-8">
            <stop stop-color="#FFF44F" offset="11.3%"></stop>
            <stop stop-color="#FF980E" offset="45.6%"></stop>
            <stop stop-color="#FF5634" offset="62.2%"></stop>
            <stop stop-color="#FF3647" offset="71.6%"></stop>
            <stop stop-color="#E31587" offset="90.4%"></stop>
        </radialGradient>
        <radialGradient cx="6.31528983%" cy="-10.3355023%" fx="6.31528983%" fy="-10.3355023%" r="348.22765%" gradientTransform="translate(0.063153,-0.103355),scale(1.000000,0.474239),rotate(83.963276),translate(-0.063153,0.103355)" id="radialGradient-9">
            <stop stop-color="#FFF44F" offset="0%"></stop>
            <stop stop-color="#FFE847" offset="6%"></stop>
            <stop stop-color="#FFC830" offset="16.8%"></stop>
            <stop stop-color="#FF980E" offset="30.4%"></stop>
            <stop stop-color="#FF8B16" offset="35.6%"></stop>
            <stop stop-color="#FF672A" offset="45.5%"></stop>
            <stop stop-color="#FF3647" offset="57%"></stop>
            <stop stop-color="#E31587" offset="73.7%"></stop>
        </radialGradient>
        <radialGradient cx="15.3712894%" cy="-42.6893496%" fx="15.3712894%" fy="-42.6893496%" r="239.07279%" gradientTransform="translate(0.153713,-0.426893),scale(0.979770,1.000000),translate(-0.153713,0.426893)" id="radialGradient-10">
            <stop stop-color="#FFF44F" offset="13.7%"></stop>
            <stop stop-color="#FF980E" offset="48%"></stop>
            <stop stop-color="#FF5634" offset="59.2%"></stop>
            <stop stop-color="#FF3647" offset="65.5%"></stop>
            <stop stop-color="#E31587" offset="90.4%"></stop>
        </radialGradient>
        <radialGradient cx="155.394022%" cy="-44.5826662%" fx="155.394022%" fy="-44.5826662%" r="313.313895%" gradientTransform="translate(1.553940,-0.445827),scale(0.894206,1.000000),translate(-1.553940,0.445827)" id="radialGradient-11">
            <stop stop-color="#FFF44F" offset="9.4%"></stop>
            <stop stop-color="#FFE141" offset="23.1%"></stop>
            <stop stop-color="#FFAF1E" offset="50.9%"></stop>
            <stop stop-color="#FF980E" offset="62.6%"></stop>
        </radialGradient>
        <linearGradient x1="86.4396942%" y1="15.072741%" x2="19.9426058%" y2="83.5367748%" id="linearGradient-12">
            <stop stop-color="#FFF44F" stop-opacity="0.8" offset="16.7%"></stop>
            <stop stop-color="#FFF44F" stop-opacity="0.634" offset="26.6%"></stop>
            <stop stop-color="#FFF44F" stop-opacity="0.217" offset="48.9%"></stop>
            <stop stop-color="#FFF44F" stop-opacity="0" offset="60%"></stop>
        </linearGradient>
    </defs>
    <g id="firefox-logo" stroke="none" stroke-width="1" fill="none" fill-rule="evenodd">
        <g id="firefox-seeklogo.com-3-copy-2" fill-rule="nonzero">
            <path d="M61.5912526,22.189598 C60.202519,18.8555477 57.388955,15.2535176 55.1807336,14.1168141 C56.7543806,17.1577889 57.8457024,20.4230754 58.4149481,23.7969246 L58.4221453,23.851206 C54.8109066,14.8588442 48.6868374,11.2351457 43.6833218,3.33968844 C43.4295363,2.94147739 43.1757509,2.53972864 42.9291626,2.11973869 C42.7877647,1.87729648 42.6752664,1.6600603 42.5773841,1.46095477 C42.3707682,1.05909548 42.2111003,0.635457286 42.1023668,0.197447236 C42.1023668,0.154 42.0698131,0.121386935 42.0299516,0.114201005 C42.0117924,0.110552764 41.99009,0.110552764 41.9682768,0.114201005 C41.9646228,0.114201005 41.9573149,0.121386935 41.9537716,0.125035176 C41.9501176,0.125035176 41.9392664,0.135979899 41.9319585,0.135979899 L41.9429204,0.114311558 C33.9190035,4.8058392 31.1960138,13.4905327 30.9459931,17.8347035 C27.7407889,18.0554774 24.6769827,19.2320905 22.1534118,21.2194975 C21.8886644,20.9950754 21.6167197,20.7887839 21.3302699,20.5967538 C20.6015779,18.0519397 20.5724567,15.3620804 21.2396955,12.7991357 C18.2919308,14.2253769 15.6740208,16.2455075 13.5493979,18.7325025 L13.5348927,18.7325025 C12.2695087,17.1287136 12.3564291,11.8470553 12.4290657,10.7428543 C12.0555848,10.8948643 11.6967197,11.0831357 11.3631003,11.3075578 C10.2463114,12.1039799 9.20204844,12.9981307 8.24127336,13.9791759 C7.14629758,15.0869146 6.14920415,16.2815477 5.25364706,17.5558894 L5.25364706,17.5595377 L5.25364706,17.5522412 C3.20155017,20.4592261 1.74394464,23.7426432 0.967972318,27.2179799 L0.924456747,27.4279196 C0.862782007,27.7102714 0.648858131,29.1149548 0.60899654,29.4189749 C0.60899654,29.444402 0.605342561,29.4660704 0.601688581,29.4877387 C0.326089965,30.939407 0.152027682,32.409206 0.0868096886,33.886191 L0.0868096886,34.0491457 C0.101314879,51.6646231 14.4195986,65.9351055 32.0626713,65.9169921 C47.6029343,65.9024925 60.876955,54.730804 63.5164567,39.4394774 C63.5708235,39.0268945 63.6143391,38.6213869 63.6615087,38.2050452 C64.3215502,32.7819899 63.6071419,27.2721508 61.5912526,22.189598 Z M24.7713218,47.1538492 C24.919917,47.2261508 25.0613149,47.3023216 25.2136747,47.3710854 L25.2353772,47.3855678 C25.079474,47.3130452 24.9235709,47.2370955 24.7713218,47.1538492 Z M58.42591,23.858392 L58.42591,23.8294271 L58.4331073,23.8620402 L58.42591,23.858392 Z" id="path980" fill="url(#linearGradient-1)"></path>
            <path d="M61.5912526,22.189598 C60.202519,18.8555477 57.388955,15.2535176 55.1807336,14.1168141 C56.7543806,17.1577889 57.8457024,20.4230754 58.4149481,23.7969246 L58.4149481,23.8258894 L58.4221453,23.8585025 C60.8840415,30.8924221 60.5287197,38.606794 57.4287059,45.3873266 C53.7666436,53.2320402 44.9050796,61.2723216 31.0328028,60.8812965 C16.0438478,60.4577688 2.84224221,49.351196 0.373038062,34.8056583 C-0.0766228374,32.5104724 0.373038062,31.3484523 0.597813149,29.4840905 C0.293204152,30.9321106 0.119252595,32.4055578 0.0865882353,33.8860804 L0.0865882353,34.0490352 C0.101093426,51.6645126 14.4193772,65.934995 32.0624498,65.9168816 C47.6027128,65.9023819 60.8767336,54.7306935 63.5162353,39.4393668 C63.5706021,39.0267839 63.6141176,38.6212764 63.6612872,38.2049347 C64.3215502,32.7819899 63.6071419,27.2721508 61.5912526,22.189598 Z" id="path982" fill="url(#radialGradient-2)"></path>
            <path d="M61.5912526,22.189598 C60.202519,18.8555477 57.388955,15.2535176 55.1807336,14.1168141 C56.7543806,17.1577889 57.8457024,20.4230754 58.4149481,23.7969246 L58.4149481,23.8258894 L58.4221453,23.8585025 C60.8840415,30.8924221 60.5287197,38.606794 57.4287059,45.3873266 C53.7666436,53.2320402 44.9050796,61.2723216 31.0328028,60.8812965 C16.0438478,60.4577688 2.84224221,49.351196 0.373038062,34.8056583 C-0.0766228374,32.5104724 0.373038062,31.3484523 0.597813149,29.4840905 C0.293204152,30.9321106 0.119252595,32.4055578 0.0865882353,33.8860804 L0.0865882353,34.0490352 C0.101093426,51.6645126 14.4193772,65.934995 32.0624498,65.9168816 C47.6027128,65.9023819 60.8767336,54.7306935 63.5162353,39.4393668 C63.5706021,39.0267839 63.6141176,38.6212764 63.6612872,38.2049347 C64.3215502,32.7819899 63.6071419,27.2721508 61.5912526,22.189598 Z" id="path984" fill="url(#radialGradient-3)"></path>
            <path d="M46.0656055,25.9363417 C46.1344775,25.9834372 46.1998062,26.0341809 46.2650242,26.0811658 C45.4638062,24.6621106 44.4630588,23.3589146 43.2992111,22.2185628 C33.3681384,12.303196 40.6958062,0.722462312 41.9321799,0.132331658 L41.9431419,0.114311558 C33.9192249,4.8058392 31.1962353,13.4905327 30.9462145,17.8347035 C31.3195848,17.8093869 31.6895225,17.7767739 32.07009,17.7767739 C37.8639723,17.7874975 43.208526,20.9045327 46.0656055,25.9363417 Z" id="path986" fill="url(#radialGradient-4)"></path>
            <path d="M32.0881384,27.9165628 C32.0337716,28.7093367 29.2274048,31.4461809 28.2448166,31.4461809 C19.1622422,31.4461809 17.6864775,36.9343518 17.6864775,36.9343518 C18.0889689,41.5535779 21.3123322,45.3582513 25.2100208,47.3710854 C25.3876263,47.4615176 25.5689965,47.5447638 25.7502561,47.6280101 C26.0620623,47.7656482 26.3739792,47.8959899 26.6894394,48.0118492 C28.0273495,48.4860101 29.4269343,48.7539899 30.8445675,48.811809 C46.7653979,49.557598 49.8509066,29.8027035 38.3608028,24.0684422 C41.0729412,23.7172161 43.8176332,24.383407 46.0620623,25.9363417 C43.208526,20.9044221 37.864083,17.7874975 32.0665467,17.7765528 C31.6858685,17.7765528 31.3160415,17.8091658 30.9425606,17.8344824 C27.7373564,18.0552563 24.6735502,19.2318693 22.15009,21.2192764 C22.6359585,21.6318593 23.1869343,22.182191 24.3436955,23.3188945 C26.5152664,25.4512362 32.0771765,27.6595276 32.0881384,27.9165628 Z" id="path988" fill="url(#radialGradient-5)"></path>
            <path d="M32.0881384,27.9165628 C32.0337716,28.7093367 29.2274048,31.4461809 28.2448166,31.4461809 C19.1622422,31.4461809 17.6864775,36.9343518 17.6864775,36.9343518 C18.0889689,41.5535779 21.3123322,45.3582513 25.2100208,47.3710854 C25.3876263,47.4615176 25.5689965,47.5447638 25.7502561,47.6280101 C26.0620623,47.7656482 26.3739792,47.8959899 26.6894394,48.0118492 C28.0273495,48.4860101 29.4269343,48.7539899 30.8445675,48.811809 C46.7653979,49.557598 49.8509066,29.8027035 38.3608028,24.0684422 C41.0729412,23.7172161 43.8176332,24.383407 46.0620623,25.9363417 C43.208526,20.9044221 37.864083,17.7874975 32.0665467,17.7765528 C31.6858685,17.7765528 31.3160415,17.8091658 30.9425606,17.8344824 C27.7373564,18.0552563 24.6735502,19.2318693 22.15009,21.2192764 C22.6359585,21.6318593 23.1869343,22.182191 24.3436955,23.3188945 C26.5152664,25.4512362 32.0771765,27.6595276 32.0881384,27.9165628 Z" id="path990" fill="url(#radialGradient-6)"></path>
            <path d="M20.6632526,20.1550955 C20.9205813,20.3179397 21.1346159,20.4627638 21.3230727,20.5931055 C20.5943806,18.0480704 20.5652595,15.3583216 21.2324983,12.7953769 C18.2847336,14.2217286 15.6668235,16.2417487 13.5422007,18.7287437 C13.7016471,18.725206 18.3355571,18.6418492 20.6632526,20.1550955 Z" id="path992" fill="url(#radialGradient-7)"></path>
            <path d="M0.377024221,34.8056583 C2.84257439,49.351196 16.0440692,60.4541206 31.0330242,60.8812965 C44.905301,61.2722111 53.7667543,53.2320402 57.4289273,45.3872161 C60.5289412,38.606794 60.884263,30.8959598 58.4223668,23.8585025 L58.4223668,23.8295377 C58.4223668,23.8041106 58.4188235,23.7933869 58.4223668,23.8005729 L58.429564,23.8548543 C59.5645121,31.2434271 55.8009135,38.400392 49.9162353,43.2405025 L49.8980761,43.2803015 C38.4333287,52.6021106 27.4616471,48.906 25.2426851,47.396402 C25.086782,47.3241005 24.9345329,47.244392 24.7786298,47.1646834 C18.0961661,43.9753467 15.3334256,37.8936181 15.9243737,32.6806131 C12.6829619,32.7277085 9.71692734,30.866995 8.35731488,27.927397 C11.9251488,25.7445327 16.3702699,25.5670955 20.1013149,27.4567739 C23.8830727,29.1726633 28.1905606,29.3392663 32.0954464,27.927397 C32.0844844,27.6668241 26.5225744,25.4585327 24.354436,23.3263015 C23.1977855,22.1860603 22.6465882,21.6392663 22.1607197,21.2266834 C21.8959723,21.0022613 21.6240277,20.7959698 21.3375779,20.6039397 C21.1491211,20.473598 20.9350865,20.3360704 20.6777578,20.1659296 C18.3462976,18.6526834 13.712609,18.7359296 13.5603599,18.7396884 L13.5458547,18.7396884 C12.2803599,17.1358995 12.367391,11.8542412 12.439917,10.7500402 C12.0665467,10.9020503 11.7075709,11.0903216 11.3739516,11.3147437 C10.2572734,12.1111658 9.21301038,13.0053166 8.25223529,13.9863618 C7.15360554,15.0904523 6.15285813,16.2850854 5.25364706,17.5557789 L5.25364706,17.5593166 L5.25364706,17.5521307 C3.20155017,20.4591156 1.74394464,23.7425327 0.967972318,27.2178693 C0.953467128,27.2830955 -0.181370242,32.2354171 0.377024221,34.8056583 Z" id="path994" fill="url(#radialGradient-8)"></path>
            <path d="M43.2991003,22.2184523 C44.4666021,23.3624523 45.4636955,24.6657588 46.2650242,26.0848141 C46.4389758,26.218804 46.6057301,26.3491457 46.7435848,26.4757286 C53.9878754,33.140402 50.1917232,42.5634774 49.9089273,43.2368543 C55.7936055,38.3967437 59.5534394,31.2398894 58.4222561,23.851206 C54.8073633,14.8553065 48.6834048,11.231608 43.6797785,3.33615075 C43.4259931,2.9379397 43.1720969,2.5360804 42.9255087,2.11620101 C42.7841107,1.87364824 42.6717232,1.65641206 42.5738408,1.45730653 C42.3671142,1.05544724 42.2075571,0.631919598 42.0988235,0.193909548 C42.0988235,0.150351759 42.0661592,0.117849246 42.0262976,0.110552764 C42.0082491,0.107015075 41.9865467,0.107015075 41.9646228,0.110552764 C41.9610796,0.110552764 41.9537716,0.117738693 41.9501176,0.121497487 C41.9465744,0.121497487 41.9356125,0.132331658 41.9284152,0.132331658 C40.6956955,0.722351759 33.3680277,12.3030854 43.2991003,22.2184523 Z" id="path996" fill="url(#radialGradient-9)"></path>
            <path d="M46.7399308,26.4757286 C46.6021869,26.3491457 46.4353218,26.2151558 46.2613702,26.0848141 C46.1960415,26.0377186 46.1308235,25.9870854 46.0619516,25.9399899 C43.8138685,24.3869447 41.0691765,23.7208643 38.360692,24.0719799 C49.8507958,29.8098894 46.7688304,49.5612462 30.8444567,48.8154573 C29.4267128,48.7575276 28.0272388,48.4860101 26.6893287,48.0153869 C26.3775225,47.8995276 26.0656055,47.7691859 25.7501453,47.6316583 C25.5688858,47.5484121 25.3876263,47.4687035 25.20991,47.3746231 L25.2316125,47.3891055 C27.4505744,48.9023518 38.4187128,52.5984623 49.8870035,43.2731156 L49.9051626,43.2333166 C50.1917232,42.5635879 53.9843322,33.1367538 46.7399308,26.4757286 Z" id="path998" fill="url(#radialGradient-10)"></path>
            <path d="M17.6864775,36.9343518 C17.6864775,36.9343518 19.1622422,31.4461809 28.2448166,31.4461809 C29.2274048,31.4461809 32.0373149,28.7093367 32.0881384,27.9165628 C28.1831419,29.3283216 23.875654,29.1619397 20.0940069,27.4459397 C16.3630727,25.5561508 11.9178408,25.7335879 8.35000692,27.9165628 C9.70961938,30.8560503 12.6755433,32.7167638 15.9170657,32.6696683 C15.3260069,37.8863216 18.0853149,43.9645126 24.7713218,47.1538492 C24.919917,47.2261508 25.0613149,47.3023216 25.2136747,47.3710854 C21.3123322,45.3582513 18.0888581,41.5535779 17.6864775,36.9343518 Z" id="path1000" fill="url(#radialGradient-11)"></path>
            <path d="M61.5912526,22.189598 C60.202519,18.8555477 57.388955,15.2535176 55.1807336,14.1168141 C56.7543806,17.1577889 57.8457024,20.4230754 58.4149481,23.7969246 L58.4221453,23.851206 C54.8109066,14.8588442 48.6868374,11.2351457 43.6833218,3.33968844 C43.4295363,2.94147739 43.1757509,2.53972864 42.9291626,2.11973869 C42.7877647,1.87729648 42.6752664,1.6600603 42.5773841,1.46095477 C42.3707682,1.05909548 42.2111003,0.635457286 42.1023668,0.197447236 C42.1023668,0.154 42.0698131,0.121386935 42.0299516,0.114201005 C42.0117924,0.110552764 41.99009,0.110552764 41.9682768,0.114201005 C41.9646228,0.114201005 41.9573149,0.121386935 41.9537716,0.125035176 C41.9501176,0.125035176 41.9392664,0.135979899 41.9319585,0.135979899 L41.9429204,0.114311558 C33.9190035,4.8058392 31.1960138,13.4905327 30.9459931,17.8347035 C31.3193633,17.8093869 31.689301,17.7767739 32.0698685,17.7767739 C37.8675156,17.7877186 43.2084152,20.9046432 46.0691488,25.9365628 C43.8210657,24.3835176 41.0763737,23.7174372 38.3678893,24.0686633 C49.8579931,29.8064623 46.7760277,49.5579296 30.851654,48.8120302 C29.43391,48.7542111 28.034436,48.4826935 26.696526,48.0120704 C26.3847197,47.8962111 26.0728028,47.7658693 25.7573426,47.6282312 C25.576083,47.5449849 25.3948235,47.4653869 25.2171073,47.3713065 L25.2388097,47.3857889 C25.0829066,47.3133769 24.9306574,47.2337789 24.7747543,47.1540704 C24.9234602,47.2263719 25.0648581,47.3025427 25.2171073,47.3713065 C21.3157647,45.3584724 18.0959446,41.553799 17.693564,36.9345729 C17.693564,36.9345729 19.1693287,31.446402 28.2519031,31.446402 C29.2344913,31.446402 32.0444014,28.7095578 32.0952249,27.9167839 C32.084263,27.6562111 26.5223529,25.447809 24.3542145,23.3155779 C23.197564,22.1753367 22.6463668,21.6286533 22.1604983,21.2159598 C21.8957509,20.9915377 21.6238062,20.7852462 21.3373564,20.5933266 C20.6086644,18.0482915 20.5795433,15.3585427 21.246782,12.795598 C18.2990173,14.2219497 15.681218,16.2419698 13.5564844,18.7289648 L13.5419792,18.7289648 C12.2765952,17.1252864 12.3635156,11.8436281 12.4361522,10.7393166 C12.0626713,10.8914372 11.7038062,11.079598 11.3701869,11.3040201 C10.2533979,12.1004422 9.20913495,12.994593 8.24835986,13.9757487 C7.15338408,15.0834874 6.15640138,16.2780101 5.26073356,17.5524623 L5.26073356,17.556 L5.26073356,17.5487035 C3.20863668,20.4556884 1.75103114,23.7391055 0.975058824,27.2144422 L0.931543253,27.4243819 C0.869868512,27.7067337 0.601577855,29.1294372 0.561716263,29.4371055 C0.561716263,29.4587739 0.561716263,29.4116784 0.561716263,29.4371055 C0.311474048,30.9104422 0.155570934,32.3947236 0.0866989619,33.886191 L0.0866989619,34.0491457 C0.101204152,51.6646231 14.4194879,65.9351055 32.0625606,65.9169921 C47.6028235,65.9024925 60.8768443,54.730804 63.516346,39.4394774 C63.5707128,39.0268945 63.6142284,38.6213869 63.6613979,38.2050452 C64.3215502,32.7819899 63.6071419,27.2721508 61.5912526,22.189598 Z M58.4222561,23.8257789 L58.4294533,23.858392 L58.4222561,23.8257789 Z" id="path1002" fill="url(#linearGradient-12)"></path>
        </g>
    </g>
</svg>