<?xml version="1.0" encoding="UTF-8"?>
<svg width="40px" height="40px" viewBox="0 0 40 40" version="1.1" xmlns="http://www.w3.org/2000/svg" xmlns:xlink="http://www.w3.org/1999/xlink">
    <title>linkedin-icon</title>
    <g id="Symbols" stroke="none" stroke-width="1" fill="none" fill-rule="evenodd">
        <g id="make-it-yours-red" transform="translate(-587.000000, -611.000000)">
            <g id="linkedin-icon" transform="translate(587.000000, 611.000000)">
                <rect id="Rectangle-Copy" fill="#C20112" x="0" y="0" width="40" height="40" rx="20"></rect>
                <path d="M23.423,17.6428571 C25.509,17.6428571 27,18.95 27,21.6428571 L27,21.6428571 L27,27.6428571 C27,27.8401017 26.8432997,28 26.65,28 L26.65,28 L24.55,28 C24.3567003,28 24.2,27.8401017 24.2,27.6428571 L24.2,27.6428571 L24.2,22.2857143 C24.2,21.2994915 23.4164983,20.5 22.45,20.5 C21.4835017,20.5 20.7,21.2994915 20.7,22.2857143 L20.7,22.2857143 L20.7,27.6428571 C20.7,27.8401017 20.5432997,28 20.35,28 L20.35,28 L18.25,28 C18.0567003,28 17.9,27.8401017 17.9,27.6428571 L17.9,27.6428571 L17.9,18.3571429 C17.9,18.1598983 18.0567003,18 18.25,18 L18.25,18 L20.35,18 C20.5432997,18 20.7,18.1598983 20.7,18.3571429 C20.6995093,18.4796559 20.773806,18.589533 20.8862252,18.6325505 C20.9986444,18.6755681 21.1254244,18.6426336 21.204,18.55 C21.7848756,17.9413393 22.5909617,17.6118056 23.423,17.6428571 Z M16.1458333,18 C16.3414342,18 16.5,18.1585658 16.5,18.3541667 L16.5,27.6458333 C16.5,27.8414342 16.3414342,28 16.1458333,28 L13.3541667,28 C13.1585658,28 13,27.8414342 13,27.6458333 L13,18.3541667 C13,18.1585658 13.1585658,18 13.3541667,18 L16.1458333,18 Z M14.736,13 C15.6947663,13 16.472,13.7994915 16.472,14.7857143 C16.472,15.7719371 15.6947663,16.5714286 14.736,16.5714286 C13.7772337,16.5714286 13,15.7719371 13,14.7857143 C13,13.7994915 13.7772337,13 14.736,13 Z" id="Combined-Shape" fill="#FFFFFF" fill-rule="nonzero"></path>
            </g>
        </g>
    </g>
</svg>