<?xml version="1.0" encoding="UTF-8"?>
<svg width="64px" height="64px" viewBox="0 0 64 64" version="1.1" xmlns="http://www.w3.org/2000/svg" xmlns:xlink="http://www.w3.org/1999/xlink">
    <title>opera-logo</title>
    <defs>
        <linearGradient x1="49.9594311%" y1="1.62999913%" x2="49.9594311%" y2="98.5399474%" id="linearGradient-1">
            <stop stop-color="#FF1B2D" offset="30%"></stop>
            <stop stop-color="#FA1A2C" offset="44%"></stop>
            <stop stop-color="#ED1528" offset="59%"></stop>
            <stop stop-color="#D60E21" offset="76%"></stop>
            <stop stop-color="#B70519" offset="93%"></stop>
            <stop stop-color="#A70014" offset="100%"></stop>
        </linearGradient>
        <linearGradient x1="50.041612%" y1="0.852534562%" x2="50.041612%" y2="99.6082949%" id="linearGradient-2">
            <stop stop-color="#9C0000" offset="0%"></stop>
            <stop stop-color="#FF4B4B" offset="70%"></stop>
        </linearGradient>
    </defs>
    <g id="opera-logo" stroke="none" stroke-width="1" fill="none" fill-rule="evenodd">
        <g id="opera_Icon_full-color_red_rgb-Copy-2" fill-rule="nonzero">
            <path d="M21.4656,50.0352 C17.92,45.856 15.6352,39.68 15.4816,32.7552 L15.4816,31.2448 C15.6352,24.32 17.9264,18.144 21.4656,13.9648 C26.0608,8.0064 32.8832,4.224 40.4992,4.224 C45.0598408,4.2378972 49.5140615,5.60311586 53.2992,8.1472 C47.4790968,2.92446389 39.9414443,0.0246658821 32.1216,0 L32,0 C14.6405861,0.0235451721 0.46575803,13.8836198 0.052472732,31.2381293 C-0.360812566,48.5926389 13.1381854,63.111746 30.4768,63.9616 C30.9824,63.9616 31.488,64.0000341 32,64.0000341 C39.8694188,64.0115119 47.4650001,61.1118783 53.3248,55.8592 C49.5377819,58.3985759 45.0843746,59.7613186 40.5248,59.776 C32.8832,59.776 26.0608,55.9936 21.4656,50.0352 Z" id="Path" fill="url(#linearGradient-1)"></path>
            <path d="M21.4656,13.9648 C24.4032,10.5024 28.1984,8.4096 32.3456,8.4096 C41.664,8.4096 49.216,18.9696 49.216,32 C49.216,45.0304 41.6576,55.5904 32.3392,55.5904 C28.1984,55.5904 24.4032,53.4976 21.4592,50.0352 C26.0608,55.9936 32.8832,59.776 40.4992,59.776 C45.0587746,59.7613186 49.5121819,58.3985759 53.2992,55.8592 C60.0895157,49.788397 63.97102,41.1116047 63.97102,32.0032 C63.97102,22.8947953 60.0895157,14.218003 53.2992,8.1472 C49.5140615,5.60311586 45.0598408,4.2378972 40.4992,4.224 C32.8832,4.224 26.0608,8.0064 21.4656,13.9648 Z" id="Path" fill="url(#linearGradient-2)"></path>
        </g>
    </g>
</svg>