<?xml version="1.0" encoding="UTF-8"?>
<svg width="64px" height="64px" viewBox="0 0 64 64" version="1.1" xmlns="http://www.w3.org/2000/svg" xmlns:xlink="http://www.w3.org/1999/xlink">
    <title>safari-logo</title>
    <defs>
        <linearGradient x1="50%" y1="100%" x2="50%" y2="3.55271367e-13%" id="linearGradient-1">
            <stop stop-color="#DBDBDA" offset="25%"></stop>
            <stop stop-color="#FFFFFF" offset="100%"></stop>
        </linearGradient>
        <radialGradient cx="57.0254209%" cy="39.0167405%" fx="57.0254209%" fy="39.0167405%" r="61.0315689%" id="radialGradient-2">
            <stop stop-color="#2ABCE1" offset="0%"></stop>
            <stop stop-color="#2ABBE1" offset="11.3629426%"></stop>
            <stop stop-color="#3375F8" offset="100%"></stop>
        </radialGradient>
        <linearGradient x1="49.0502524%" y1="35.7034487%" x2="25.7128956%" y2="77.5718894%" id="linearGradient-3">
            <stop stop-color="#000000" stop-opacity="0" offset="0%"></stop>
            <stop stop-color="#000000" offset="100%"></stop>
        </linearGradient>
    </defs>
    <g id="safari-logo" stroke="none" stroke-width="1" fill="none" fill-rule="evenodd">
        <g id="safari-seeklogo.com-copy-2" fill-rule="nonzero">
            <circle id="Oval" fill="url(#linearGradient-1)" cx="32" cy="32" r="32"></circle>
            <circle id="Oval" fill="url(#radialGradient-2)" cx="32" cy="32" r="29.6"></circle>
            <g id="Group" transform="translate(2.500000, 2.250000)">
                <path d="M29.55,7.35 C29.35,7.35 29.175,7.2 29.175,7 L29.175,1.775 C29.175,1.575 29.35,1.425 29.55,1.425 C29.75,1.425 29.925,1.575 29.925,1.775 L29.925,7 C29.9,7.2 29.75,7.35 29.55,7.35 L29.55,7.35 Z" id="Path" fill="#F3F3F3"></path>
                <path d="M29.65,7.375 C29.36875,7.375 29.15,7.2 29.15,7 L29.15,1.775 C29.15,1.575 29.36875,1.4 29.65,1.4 C29.93125,1.4 30.15,1.575 30.15,1.775 L30.15,7 C30.15,7.2 29.9,7.375 29.65,7.375 L29.65,7.375 Z M29.65,1.45 C29.43125,1.45 29.2125,1.6 29.2125,1.775 L29.2125,7 C29.2125,7.175 29.4,7.325 29.65,7.325 C29.86875,7.325 30.0875,7.175 30.0875,7 L30.0875,1.775 C30.05625,1.6 29.86875,1.45 29.65,1.45 L29.65,1.45 Z" id="Shape" fill="#FFFFFF"></path>
                <path d="M32.05,4.55 C31.85,4.525 31.7,4.375 31.7,4.175 L31.875,1.85 C31.9,1.65 32.075,1.5 32.275,1.525 C32.475,1.55 32.625,1.7 32.625,1.9 L32.45,4.225 C32.425,4.425 32.25,4.575 32.05,4.55 L32.05,4.55 Z" id="Path" fill="#F3F3F3"></path>
                <path d="M32.0596154,4.575 C31.8288462,4.55 31.675,4.375 31.675,4.175 L31.8544872,1.85 C31.8801282,1.65 32.0596154,1.475 32.2903846,1.5 C32.5211538,1.525 32.675,1.7 32.675,1.9 L32.4955128,4.225 C32.4698718,4.45 32.2903846,4.6 32.0596154,4.575 L32.0596154,4.575 Z M32.2903846,1.55 C32.1108974,1.55 31.9314103,1.675 31.9314103,1.85 L31.7519231,4.175 C31.7519231,4.35 31.8801282,4.5 32.0852564,4.525 C32.2647436,4.525 32.4442308,4.4 32.4442308,4.225 L32.6237179,1.9 C32.6237179,1.725 32.4698718,1.575 32.2903846,1.55 L32.2903846,1.55 Z" id="Shape" fill="#FFFFFF"></path>
                <path d="M33.925,7.8 C33.725,7.75 33.6,7.575 33.625,7.375 L34.65,2.25 C34.7,2.05 34.875,1.925 35.075,1.975 C35.275,2.025 35.4,2.2 35.375,2.4 L34.35,7.525 C34.325,7.7 34.125,7.825 33.925,7.8 L33.925,7.8 Z" id="Path" fill="#F3F3F3"></path>
                <path d="M33.925,7.825 C33.7,7.775 33.575,7.575 33.6,7.375 L34.625,2.25 C34.675,2.05 34.875,1.9 35.1,1.95 C35.325,2 35.45,2.2 35.425,2.4 L34.4,7.525 C34.35,7.725 34.15,7.85 33.925,7.825 L33.925,7.825 Z M35.1,2 C34.925,1.975 34.75,2.075 34.7,2.25 L33.675,7.375 C33.65,7.55 33.75,7.725 33.95,7.775 C34.125,7.8 34.3,7.7 34.35,7.525 L35.375,2.4 C35.4,2.2 35.275,2.05 35.1,2 L35.1,2 Z" id="Shape" fill="#FFFFFF"></path>
                <path d="M36.925,5.55 C36.725,5.5 36.6,5.3 36.65,5.1 L37.275,2.85 C37.325,2.65 37.525,2.55 37.725,2.6 C37.925,2.65 38.05,2.85 38,3.05 L37.375,5.3 C37.325,5.5 37.125,5.6 36.925,5.55 L36.925,5.55 Z" id="Path" fill="#F3F3F3"></path>
                <path d="M36.925,5.575 C36.725,5.525 36.575,5.3 36.65,5.1 L37.275,2.85 C37.325,2.65 37.55,2.525 37.75,2.575 C37.95,2.625 38.1,2.85 38.025,3.05 L37.4,5.3 C37.35,5.5 37.15,5.625 36.925,5.575 L36.925,5.575 Z M37.75,2.65 C37.575,2.6 37.375,2.7 37.325,2.875 L36.7,5.125 C36.65,5.3 36.75,5.475 36.95,5.525 C37.125,5.575 37.325,5.475 37.375,5.3 L38,3.05 C38.025,2.875 37.925,2.7 37.75,2.65 L37.75,2.65 Z" id="Shape" fill="#FFFFFF"></path>
                <path d="M38.15,9.075 C37.95,9 37.875,8.775 37.95,8.6 L39.95,3.775 C40.025,3.6 40.25,3.5 40.425,3.6 C40.625,3.675 40.7,3.9 40.625,4.075 L38.625,8.9 C38.55,9.075 38.325,9.175 38.15,9.075 L38.15,9.075 Z" id="Path" fill="#F3F3F3"></path>
                <path d="M38.15,9.1 C37.95,9.025 37.85,8.8 37.925,8.6 L39.925,3.775 C40,3.575 40.225,3.5 40.45,3.575 C40.65,3.65 40.75,3.875 40.675,4.075 L38.675,8.9 C38.575,9.1 38.35,9.2 38.15,9.1 L38.15,9.1 Z M40.425,3.625 C40.25,3.55 40.05,3.625 39.975,3.8 L37.975,8.625 C37.9,8.8 38,8.975 38.175,9.05 C38.35,9.125 38.55,9.05 38.625,8.875 L40.625,4.05 C40.675,3.9 40.6,3.7 40.425,3.625 L40.425,3.625 Z" id="Shape" fill="#FFFFFF"></path>
                <path d="M41.525,7.475 C41.35,7.375 41.275,7.175 41.35,7 L42.4,4.925 C42.5,4.75 42.7,4.675 42.9,4.775 C43.075,4.875 43.15,5.075 43.075,5.25 L42.025,7.325 C41.925,7.5 41.725,7.575 41.525,7.475 L41.525,7.475 Z" id="Path" fill="#F3F3F3"></path>
                <path d="M41.525,7.5 C41.325,7.4 41.25,7.175 41.35,6.975 L42.4,4.9 C42.5,4.7 42.725,4.625 42.925,4.725 C43.125,4.825 43.2,5.05 43.1,5.25 L42.05,7.325 C41.95,7.525 41.725,7.6 41.525,7.5 L41.525,7.5 Z M42.9,4.775 C42.725,4.7 42.525,4.75 42.45,4.925 L41.4,7 C41.325,7.15 41.4,7.35 41.55,7.45 C41.725,7.525 41.925,7.475 42,7.3 L43.05,5.225 C43.125,5.075 43.05,4.875 42.9,4.775 L42.9,4.775 Z" id="Shape" fill="#FFFFFF"></path>
                <path d="M42.025,11.175 C41.85,11.05 41.8,10.825 41.925,10.675 L44.825,6.35 C44.925,6.175 45.15,6.15 45.325,6.25 C45.5,6.375 45.55,6.6 45.425,6.75 L42.525,11.075 C42.425,11.25 42.2,11.3 42.025,11.175 L42.025,11.175 Z" id="Path" fill="#F3F3F3"></path>
                <path d="M42.025,11.2 C41.85,11.075 41.8,10.825 41.9,10.65 L44.8,6.325 C44.925,6.15 45.15,6.1 45.35,6.225 C45.525,6.35 45.575,6.6 45.475,6.775 L42.575,11.1 C42.45,11.275 42.2,11.325 42.025,11.2 L42.025,11.2 Z M45.325,6.275 C45.175,6.175 44.95,6.2 44.85,6.35 L41.95,10.675 C41.85,10.825 41.9,11.025 42.05,11.125 C42.2,11.225 42.425,11.2 42.525,11.05 L45.425,6.75 C45.525,6.6 45.475,6.375 45.325,6.275 L45.325,6.275 Z" id="Shape" fill="#FFFFFF"></path>
                <path d="M45.675,10.25 C45.525,10.125 45.475,9.9 45.6,9.75 L47.05,7.925 C47.175,7.775 47.4,7.75 47.55,7.875 C47.7,8 47.75,8.225 47.625,8.375 L46.175,10.2 C46.05,10.35 45.825,10.375 45.675,10.25 L45.675,10.25 Z" id="Path" fill="#F3F3F3"></path>
                <path d="M45.65,10.275 C45.475,10.15 45.45,9.9 45.575,9.725 L47.025,7.9 C47.15,7.725 47.4,7.7 47.575,7.85 C47.75,7.975 47.775,8.225 47.65,8.4 L46.2,10.225 C46.075,10.4 45.825,10.425 45.65,10.275 L45.65,10.275 Z M47.525,7.9 C47.375,7.775 47.175,7.8 47.05,7.95 L45.6,9.775 C45.5,9.925 45.525,10.125 45.675,10.25 C45.825,10.375 46.025,10.35 46.15,10.2 L47.6,8.375 C47.7,8.225 47.675,8 47.525,7.9 L47.525,7.9 Z" id="Shape" fill="#FFFFFF"></path>
                <path d="M45.425,14 C45.275,13.85 45.275,13.625 45.425,13.5 L49.125,9.825 C49.275,9.675 49.5,9.7 49.625,9.825 C49.75,9.95 49.775,10.2 49.625,10.325 L45.95,14 C45.8,14.15 45.575,14.15 45.425,14 L45.425,14 Z" id="Path" fill="#F3F3F3"></path>
                <path d="M45.4,14.025 C45.25,13.875 45.25,13.625 45.4,13.475 L49.1,9.8 C49.25,9.65 49.5,9.65 49.65,9.8 C49.8,9.95 49.8,10.2 49.65,10.35 L45.95,14.025 C45.8,14.175 45.55,14.175 45.4,14.025 L45.4,14.025 Z M49.625,9.825 C49.5,9.7 49.275,9.7 49.15,9.825 L45.45,13.5 C45.325,13.625 45.325,13.85 45.45,13.975 C45.575,14.1 45.8,14.1 45.925,13.975 L49.625,10.3 C49.75,10.175 49.75,9.975 49.625,9.825 L49.625,9.825 Z" id="Shape" fill="#FFFFFF"></path>
                <path d="M49.175,13.8 C49.05,13.65 49.05,13.425 49.2,13.3 L50.975,11.8 C51.125,11.675 51.35,11.7 51.475,11.85 C51.6,12 51.6,12.225 51.45,12.35 L49.675,13.85 C49.525,13.975 49.3,13.95 49.175,13.8 L49.175,13.8 Z" id="Path" fill="#F3F3F3"></path>
                <path d="M49.15,13.825 C49,13.65 49.025,13.4 49.175,13.275 L50.95,11.775 C51.1,11.625 51.35,11.65 51.5,11.825 C51.65,12 51.625,12.25 51.475,12.375 L49.7,13.875 C49.55,14.025 49.3,14 49.15,13.825 L49.15,13.825 Z M51.45,11.85 C51.325,11.7 51.125,11.7 50.975,11.8 L49.2,13.3 C49.075,13.425 49.05,13.625 49.175,13.775 C49.3,13.925 49.5,13.925 49.65,13.825 L51.425,12.325 C51.575,12.2 51.575,12 51.45,11.85 L51.45,11.85 Z" id="Shape" fill="#FFFFFF"></path>
                <path d="M48.175,17.4 C48.05,17.225 48.1,17 48.275,16.9 L52.625,14 C52.8,13.9 53.025,13.95 53.125,14.1 C53.25,14.275 53.2,14.5 53.025,14.6 L48.675,17.5 C48.525,17.6 48.3,17.55 48.175,17.4 L48.175,17.4 Z" id="Path" fill="#F3F3F3"></path>
                <path d="M48.15,17.4 C48.025,17.225 48.075,16.975 48.25,16.85 L52.6,13.95 C52.775,13.825 53.025,13.875 53.15,14.075 C53.275,14.25 53.225,14.5 53.05,14.625 L48.7,17.525 C48.525,17.65 48.275,17.6 48.15,17.4 L48.15,17.4 Z M53.1,14.125 C53,13.975 52.8,13.925 52.65,14.025 L48.3,16.925 C48.15,17.025 48.1,17.225 48.225,17.4 C48.325,17.55 48.525,17.6 48.675,17.5 L53.025,14.6 C53.175,14.475 53.2,14.275 53.1,14.125 L53.1,14.125 Z" id="Shape" fill="#FFFFFF"></path>
                <path d="M51.9,17.925 C51.8,17.75 51.85,17.525 52.025,17.425 L54.05,16.275 C54.225,16.175 54.45,16.25 54.55,16.425 C54.65,16.6 54.6,16.825 54.425,16.925 L52.4,18.075 C52.225,18.175 52,18.1 51.9,17.925 L51.9,17.925 Z" id="Path" fill="#F3F3F3"></path>
                <path d="M51.875,17.95 C51.775,17.75 51.825,17.525 52,17.425 L54.025,16.275 C54.2,16.175 54.45,16.25 54.55,16.425 C54.65,16.625 54.6,16.85 54.425,16.95 L52.4,18.1 C52.225,18.2 51.975,18.125 51.875,17.95 L51.875,17.95 Z M54.525,16.45 C54.425,16.275 54.225,16.225 54.075,16.325 L52.05,17.475 C51.9,17.575 51.85,17.775 51.925,17.925 C52.025,18.1 52.225,18.15 52.375,18.05 L54.4,16.9 C54.55,16.825 54.6,16.625 54.525,16.45 L54.525,16.45 Z" id="Shape" fill="#FFFFFF"></path>
                <path d="M50.225,21.25 C50.15,21.05 50.225,20.85 50.425,20.775 L55.25,18.775 C55.425,18.7 55.65,18.8 55.725,18.975 C55.8,19.175 55.725,19.375 55.525,19.45 L50.7,21.45 C50.525,21.525 50.3,21.45 50.225,21.25 L50.225,21.25 Z" id="Path" fill="#F3F3F3"></path>
                <path d="M50.2,21.275 C50.125,21.075 50.2,20.85 50.4,20.75 L55.225,18.75 C55.425,18.675 55.65,18.775 55.725,18.975 C55.8,19.175 55.725,19.4 55.525,19.5 L50.7,21.5 C50.5,21.575 50.275,21.475 50.2,21.275 L50.2,21.275 Z M55.675,19 C55.6,18.825 55.4,18.75 55.25,18.8 L50.425,20.8 C50.25,20.875 50.175,21.075 50.25,21.25 C50.325,21.425 50.525,21.5 50.675,21.45 L55.5,19.45 C55.675,19.375 55.75,19.175 55.675,19 L55.675,19 Z" id="Shape" fill="#FFFFFF"></path>
                <path d="M53.75,22.5 C53.675,22.3 53.775,22.1 53.975,22.025 L56.175,21.3 C56.35,21.225 56.575,21.35 56.625,21.525 C56.7,21.725 56.6,21.925 56.4,22 L54.2,22.725 C54.025,22.8 53.825,22.7 53.75,22.5 L53.75,22.5 Z" id="Path" fill="#F3F3F3"></path>
                <path d="M53.725,22.525 C53.65,22.325 53.75,22.1 53.975,22.025 L56.175,21.3 C56.375,21.225 56.6,21.35 56.675,21.55 C56.75,21.75 56.65,21.975 56.425,22.05 L54.225,22.775 C54.025,22.825 53.8,22.725 53.725,22.525 L53.725,22.525 Z M56.625,21.575 C56.575,21.4 56.375,21.3 56.2,21.35 L54,22.075 C53.825,22.125 53.75,22.325 53.8,22.5 C53.85,22.675 54.05,22.775 54.225,22.725 L56.425,22 C56.6,21.925 56.675,21.75 56.625,21.575 L56.625,21.575 Z" id="Shape" fill="#FFFFFF"></path>
                <path d="M51.5,25.475 C51.45,25.275 51.575,25.075 51.775,25.05 L56.9,24.05 C57.1,24 57.275,24.15 57.325,24.35 C57.375,24.55 57.25,24.75 57.05,24.775 L51.925,25.775 C51.725,25.8 51.525,25.675 51.5,25.475 L51.5,25.475 Z" id="Path" fill="#F3F3F3"></path>
                <path d="M51.45,25.475 C51.4,25.25 51.55,25.05 51.75,25 L56.875,24 C57.075,23.95 57.275,24.1 57.325,24.325 C57.375,24.55 57.225,24.75 57.025,24.8 L51.9,25.8 C51.7,25.85 51.5,25.7 51.45,25.475 L51.45,25.475 Z M57.275,24.35 C57.25,24.175 57.075,24.05 56.9,24.075 L51.775,25.075 C51.6,25.1 51.475,25.3 51.525,25.475 C51.55,25.65 51.725,25.775 51.9,25.75 L57.025,24.75 C57.2,24.7 57.325,24.525 57.275,24.35 L57.275,24.35 Z" id="Shape" fill="#FFFFFF"></path>
                <path d="M54.7,27.4 C54.675,27.2 54.8,27.025 55,27 L57.3,26.725 C57.5,26.7 57.675,26.85 57.7,27.05 C57.725,27.25 57.6,27.425 57.4,27.45 L55.1,27.725 C54.925,27.75 54.725,27.6 54.7,27.4 L54.7,27.4 Z" id="Path" fill="#F3F3F3"></path>
                <path d="M54.675,27.4 C54.65,27.175 54.8,26.975 55,26.95 L57.3,26.675 C57.5,26.65 57.7,26.8 57.725,27.025 C57.75,27.25 57.6,27.45 57.4,27.475 L55.1,27.75 C54.9,27.775 54.7,27.625 54.675,27.4 L54.675,27.4 Z M57.7,27.05 C57.675,26.875 57.5,26.725 57.325,26.75 L55.025,27.025 C54.85,27.05 54.725,27.225 54.75,27.4 C54.775,27.575 54.95,27.725 55.125,27.7 L57.425,27.425 C57.6,27.4 57.725,27.225 57.7,27.05 L57.7,27.05 Z" id="Shape" fill="#FFFFFF"></path>
                <path d="M51.9,29.825 C51.9,29.625 52.05,29.45 52.25,29.45 L57.475,29.45 C57.675,29.45 57.825,29.625 57.825,29.825 C57.825,30.025 57.675,30.2 57.475,30.2 L52.25,30.2 C52.05,30.2 51.9,30.025 51.9,29.825 L51.9,29.825 Z" id="Path" fill="#F3F3F3"></path>
                <path d="M51.875,29.925 C51.875,29.64375 52.05,29.425 52.25,29.425 L57.475,29.425 C57.675,29.425 57.85,29.64375 57.85,29.925 C57.85,30.20625 57.675,30.425 57.475,30.425 L52.25,30.425 C52.05,30.425 51.875,30.20625 51.875,29.925 L51.875,29.925 Z M57.8,29.95625 C57.8,29.7375 57.65,29.51875 57.475,29.51875 L52.25,29.51875 C52.075,29.51875 51.925,29.70625 51.925,29.95625 C51.925,30.175 52.075,30.39375 52.25,30.39375 L57.475,30.39375 C57.65,30.3625 57.8,30.175 57.8,29.95625 L57.8,29.95625 Z" id="Shape" fill="#FFFFFF"></path>
                <path d="M54.675,32.35 C54.7,32.15 54.85,32 55.05,32 L57.375,32.175 C57.575,32.2 57.725,32.375 57.7,32.575 C57.675,32.775 57.525,32.925 57.325,32.925 L55,32.75 C54.825,32.725 54.675,32.55 54.675,32.35 L54.675,32.35 Z" id="Path" fill="#F3F3F3"></path>
                <path d="M54.65,32.3596154 C54.675,32.1288462 54.85,31.975 55.05,31.975 L57.375,32.1544872 C57.575,32.1801282 57.75,32.3596154 57.725,32.5903846 C57.7,32.8211538 57.525,32.975 57.325,32.975 L55,32.7955128 C54.8,32.7698718 54.65,32.5647436 54.65,32.3596154 L54.65,32.3596154 Z M57.7,32.5903846 C57.725,32.4108974 57.575,32.2314103 57.4,32.2314103 L55.075,32.0519231 C54.9,32.0519231 54.75,32.1801282 54.725,32.3852564 C54.7,32.5647436 54.85,32.7442308 55.025,32.7442308 L57.35,32.9237179 C57.525,32.9237179 57.675,32.7698718 57.7,32.5903846 L57.7,32.5903846 Z" id="Shape" fill="#FFFFFF"></path>
                <path d="M51.45,34.175 C51.5,33.975 51.675,33.85 51.875,33.875 L57,34.9 C57.2,34.95 57.325,35.125 57.275,35.325 C57.225,35.525 57.05,35.65 56.85,35.625 L51.725,34.6 C51.55,34.575 51.425,34.375 51.45,34.175 L51.45,34.175 Z" id="Path" fill="#F3F3F3"></path>
                <path d="M51.425,34.175 C51.475,33.95 51.675,33.825 51.875,33.85 L57,34.875 C57.2,34.925 57.35,35.125 57.3,35.35 C57.25,35.575 57.05,35.7 56.85,35.675 L51.725,34.65 C51.525,34.6 51.4,34.4 51.425,34.175 L51.425,34.175 Z M57.25,35.35 C57.275,35.175 57.175,35 57,34.95 L51.875,33.925 C51.7,33.9 51.525,34 51.475,34.2 C51.45,34.375 51.55,34.55 51.725,34.6 L56.85,35.625 C57.05,35.65 57.2,35.525 57.25,35.35 L57.25,35.35 Z" id="Shape" fill="#FFFFFF"></path>
                <path d="M53.7,37.175 C53.75,36.975 53.95,36.85 54.15,36.9 L56.4,37.525 C56.6,37.575 56.7,37.775 56.65,37.975 C56.6,38.175 56.4,38.3 56.2,38.25 L53.95,37.625 C53.75,37.575 53.65,37.375 53.7,37.175 L53.7,37.175 Z" id="Path" fill="#F3F3F3"></path>
                <path d="M53.675,37.175 C53.725,36.975 53.95,36.825 54.15,36.9 L56.4,37.525 C56.6,37.575 56.725,37.8 56.675,38 C56.625,38.2 56.4,38.35 56.2,38.275 L53.95,37.65 C53.75,37.6 53.625,37.4 53.675,37.175 L53.675,37.175 Z M56.6,38 C56.65,37.825 56.55,37.625 56.375,37.575 L54.125,36.95 C53.95,36.9 53.775,37 53.725,37.2 C53.675,37.375 53.775,37.575 53.95,37.625 L56.2,38.25 C56.375,38.275 56.55,38.175 56.6,38 L56.6,38 Z" id="Shape" fill="#FFFFFF"></path>
                <path d="M50.175,38.375 C50.25,38.175 50.475,38.1 50.65,38.175 L55.475,40.175 C55.65,40.25 55.75,40.475 55.675,40.65 C55.6,40.85 55.375,40.925 55.2,40.85 L50.375,38.85 C50.175,38.775 50.1,38.55 50.175,38.375 L50.175,38.375 Z" id="Path" fill="#F3F3F3"></path>
                <path d="M50.15,38.35 C50.225,38.15 50.45,38.05 50.65,38.125 L55.475,40.125 C55.675,40.2 55.75,40.425 55.675,40.65 C55.6,40.85 55.375,40.95 55.175,40.875 L50.35,38.875 C50.15,38.775 50.075,38.55 50.15,38.35 L50.15,38.35 Z M55.625,40.625 C55.7,40.45 55.625,40.25 55.45,40.175 L50.625,38.175 C50.45,38.1 50.275,38.2 50.2,38.375 C50.125,38.55 50.2,38.75 50.375,38.825 L55.2,40.825 C55.375,40.875 55.575,40.8 55.625,40.625 L55.625,40.625 Z" id="Shape" fill="#FFFFFF"></path>
                <path d="M51.8,41.75 C51.9,41.575 52.1,41.5 52.275,41.575 L54.35,42.625 C54.525,42.7 54.6,42.925 54.5,43.125 C54.4,43.3 54.2,43.375 54.025,43.3 L51.95,42.25 C51.775,42.15 51.7,41.925 51.8,41.75 L51.8,41.75 Z" id="Path" fill="#F3F3F3"></path>
                <path d="M51.775,41.725 C51.875,41.525 52.1,41.45 52.3,41.55 L54.375,42.6 C54.575,42.7 54.65,42.925 54.55,43.125 C54.45,43.325 54.225,43.4 54.025,43.3 L51.95,42.25 C51.75,42.175 51.675,41.925 51.775,41.725 L51.775,41.725 Z M54.475,43.1 C54.55,42.925 54.5,42.725 54.325,42.65 L52.25,41.6 C52.1,41.525 51.9,41.6 51.8,41.75 C51.725,41.925 51.775,42.125 51.95,42.2 L54.025,43.25 C54.2,43.325 54.4,43.275 54.475,43.1 L54.475,43.1 Z" id="Shape" fill="#FFFFFF"></path>
                <path d="M48.125,42.225 C48.25,42.05 48.45,42 48.625,42.125 L52.975,45.025 C53.15,45.125 53.175,45.35 53.075,45.525 C52.95,45.7 52.75,45.75 52.575,45.625 L48.225,42.725 C48.05,42.6 48,42.375 48.125,42.225 L48.125,42.225 Z" id="Path" fill="#F3F3F3"></path>
                <path d="M48.1,42.2 C48.225,42.025 48.475,41.975 48.65,42.075 L53,44.975 C53.175,45.1 53.225,45.325 53.1,45.525 C52.975,45.7 52.725,45.75 52.55,45.65 L48.2,42.75 C48,42.625 47.975,42.375 48.1,42.2 L48.1,42.2 Z M53.025,45.5 C53.125,45.35 53.1,45.125 52.95,45.025 L48.6,42.125 C48.45,42.025 48.25,42.075 48.15,42.225 C48.05,42.375 48.075,42.6 48.225,42.7 L52.575,45.6 C52.725,45.7 52.925,45.65 53.025,45.5 L53.025,45.5 Z" id="Shape" fill="#FFFFFF"></path>
                <path d="M49.05,45.85 C49.175,45.7 49.4,45.65 49.55,45.775 L51.375,47.2 C51.525,47.325 51.55,47.55 51.425,47.7 C51.3,47.85 51.075,47.9 50.925,47.775 L49.1,46.35 C48.95,46.225 48.925,46 49.05,45.85 L49.05,45.85 Z" id="Path" fill="#F3F3F3"></path>
                <path d="M49.025,45.825 C49.15,45.65 49.4,45.625 49.575,45.75 L51.4,47.175 C51.575,47.3 51.6,47.55 51.475,47.725 C51.35,47.9 51.1,47.925 50.925,47.8 L49.1,46.375 C48.925,46.25 48.9,46 49.025,45.825 L49.025,45.825 Z M51.425,47.7 C51.55,47.55 51.525,47.35 51.375,47.225 L49.55,45.8 C49.4,45.7 49.2,45.725 49.075,45.875 C48.95,46.025 48.975,46.225 49.125,46.35 L50.95,47.775 C51.1,47.875 51.3,47.85 51.425,47.7 L51.425,47.7 Z" id="Shape" fill="#FFFFFF"></path>
                <path d="M45.325,45.6 C45.475,45.45 45.7,45.45 45.825,45.6 L49.525,49.275 C49.675,49.425 49.65,49.65 49.525,49.775 C49.375,49.925 49.15,49.925 49.025,49.775 L45.325,46.1 C45.2,45.975 45.2,45.725 45.325,45.6 L45.325,45.6 Z" id="Path" fill="#F3F3F3"></path>
                <path d="M45.325,45.575 C45.475,45.425 45.725,45.425 45.875,45.575 L49.575,49.25 C49.725,49.4 49.725,49.65 49.575,49.8 C49.425,49.95 49.175,49.95 49.025,49.8 L45.325,46.125 C45.15,45.975 45.15,45.725 45.325,45.575 L45.325,45.575 Z M49.525,49.75 C49.65,49.625 49.65,49.4 49.525,49.275 L45.825,45.6 C45.7,45.475 45.475,45.475 45.35,45.6 C45.225,45.725 45.225,45.95 45.35,46.075 L49.05,49.75 C49.175,49.9 49.375,49.9 49.525,49.75 L49.525,49.75 Z" id="Shape" fill="#FFFFFF"></path>
                <path d="M45.55,49.325 C45.7,49.2 45.925,49.2 46.05,49.35 L47.575,51.1 C47.7,51.25 47.675,51.475 47.525,51.6 C47.375,51.725 47.15,51.725 47.025,51.575 L45.5,49.825 C45.375,49.7 45.4,49.475 45.55,49.325 L45.55,49.325 Z" id="Path" fill="#F3F3F3"></path>
                <path d="M45.525,49.325 C45.7,49.175 45.925,49.2 46.075,49.35 L47.6,51.1 C47.75,51.25 47.725,51.5 47.55,51.65 C47.375,51.8 47.15,51.775 47,51.625 L45.475,49.875 C45.35,49.7 45.35,49.45 45.525,49.325 L45.525,49.325 Z M47.525,51.6 C47.675,51.475 47.675,51.275 47.575,51.125 L46.05,49.375 C45.925,49.25 45.725,49.225 45.575,49.35 C45.425,49.475 45.425,49.675 45.525,49.825 L47.05,51.575 C47.175,51.725 47.375,51.725 47.525,51.6 L47.525,51.6 Z" id="Shape" fill="#FFFFFF"></path>
                <path d="M41.95,48.375 C42.125,48.25 42.35,48.3 42.45,48.475 L45.35,52.8 C45.45,52.975 45.4,53.2 45.25,53.3 C45.075,53.425 44.85,53.375 44.75,53.2 L41.85,48.875 C41.75,48.7 41.8,48.475 41.95,48.375 L41.95,48.375 Z" id="Path" fill="#F3F3F3"></path>
                <path d="M41.95,48.35 C42.125,48.225 42.375,48.275 42.5,48.45 L45.4,52.775 C45.525,52.95 45.475,53.2 45.275,53.325 C45.1,53.45 44.85,53.4 44.725,53.225 L41.825,48.9 C41.7,48.7 41.75,48.475 41.95,48.35 L41.95,48.35 Z M45.25,53.275 C45.4,53.175 45.45,52.975 45.35,52.825 L42.45,48.5 C42.35,48.35 42.15,48.325 41.975,48.425 C41.825,48.525 41.775,48.725 41.875,48.875 L44.775,53.2 C44.875,53.325 45.1,53.375 45.25,53.275 L45.25,53.275 Z" id="Shape" fill="#FFFFFF"></path>
                <path d="M41.425,52.075 C41.6,51.975 41.825,52.025 41.925,52.2 L43.075,54.225 C43.175,54.4 43.1,54.625 42.925,54.725 C42.75,54.825 42.525,54.775 42.425,54.6 L41.275,52.575 C41.2,52.4 41.25,52.175 41.425,52.075 L41.425,52.075 Z" id="Path" fill="#F3F3F3"></path>
                <path d="M41.425,52.05 C41.625,51.95 41.85,52 41.95,52.175 L43.1,54.2 C43.2,54.375 43.15,54.625 42.95,54.725 C42.75,54.825 42.525,54.775 42.425,54.6 L41.275,52.575 C41.175,52.4 41.225,52.175 41.425,52.05 L41.425,52.05 Z M42.925,54.7 C43.075,54.6 43.15,54.4 43.05,54.25 L41.9,52.225 C41.8,52.075 41.6,52.025 41.45,52.1 C41.3,52.2 41.225,52.4 41.325,52.55 L42.475,54.575 C42.55,54.725 42.775,54.8 42.925,54.7 L42.925,54.7 Z" id="Shape" fill="#FFFFFF"></path>
                <path d="M38.1,50.425 C38.3,50.35 38.5,50.425 38.575,50.6 L40.6,55.425 C40.675,55.6 40.575,55.825 40.4,55.9 C40.225,55.975 40,55.9 39.925,55.725 L37.9,50.9 C37.825,50.725 37.925,50.5 38.1,50.425 L38.1,50.425 Z" id="Path" fill="#F3F3F3"></path>
                <path d="M38.1,50.4 C38.3,50.325 38.525,50.4 38.625,50.6 L40.65,55.425 C40.725,55.625 40.625,55.85 40.425,55.925 C40.225,56 40,55.925 39.9,55.725 L37.875,50.9 C37.8,50.725 37.9,50.5 38.1,50.4 L38.1,50.4 Z M40.375,55.875 C40.55,55.8 40.625,55.6 40.55,55.45 L38.525,50.625 C38.45,50.45 38.25,50.375 38.075,50.45 C37.9,50.525 37.825,50.725 37.9,50.875 L39.925,55.7 C40.025,55.875 40.2,55.95 40.375,55.875 L40.375,55.875 Z" id="Shape" fill="#FFFFFF"></path>
                <path d="M36.875,53.975 C37.075,53.9 37.275,54 37.35,54.2 L38.075,56.4 C38.15,56.575 38.025,56.8 37.85,56.85 C37.65,56.925 37.45,56.825 37.375,56.625 L36.65,54.425 C36.575,54.25 36.675,54.05 36.875,53.975 L36.875,53.975 Z" id="Path" fill="#F3F3F3"></path>
                <path d="M36.85,53.95 C37.05,53.875 37.275,53.975 37.35,54.175 L38.075,56.375 C38.15,56.575 38.025,56.8 37.825,56.875 C37.625,56.95 37.4,56.85 37.325,56.65 L36.6,54.45 C36.55,54.25 36.65,54.025 36.85,53.95 L36.85,53.95 Z M37.825,56.825 C38,56.775 38.1,56.575 38.05,56.4 L37.325,54.2 C37.275,54.025 37.075,53.95 36.9,54 C36.725,54.05 36.625,54.25 36.675,54.425 L37.4,56.625 C37.45,56.8 37.65,56.9 37.825,56.825 L37.825,56.825 Z" id="Shape" fill="#FFFFFF"></path>
                <path d="M33.925,51.7 C34.125,51.65 34.325,51.775 34.35,51.975 L35.4,57.1 C35.45,57.3 35.3,57.475 35.1,57.525 C34.9,57.575 34.7,57.45 34.675,57.25 L33.625,52.125 C33.6,51.95 33.725,51.75 33.925,51.7 L33.925,51.7 Z" id="Path" fill="#F3F3F3"></path>
                <path d="M33.925,51.675 C34.15,51.625 34.35,51.775 34.4,51.975 L35.45,57.1 C35.5,57.3 35.35,57.525 35.15,57.55 C34.925,57.6 34.725,57.45 34.675,57.25 L33.625,52.125 C33.575,51.925 33.7,51.725 33.925,51.675 L33.925,51.675 Z M35.1,57.5 C35.275,57.475 35.4,57.3 35.375,57.1 L34.325,51.975 C34.3,51.8 34.1,51.675 33.925,51.725 C33.75,51.75 33.625,51.925 33.65,52.125 L34.7,57.25 C34.75,57.425 34.925,57.525 35.1,57.5 L35.1,57.5 Z" id="Shape" fill="#FFFFFF"></path>
                <path d="M32.025,54.95 C32.225,54.925 32.4,55.05 32.45,55.25 L32.75,57.55 C32.775,57.75 32.625,57.925 32.425,57.95 C32.225,57.975 32.05,57.85 32,57.65 L31.7,55.35 C31.675,55.15 31.825,54.975 32.025,54.95 L32.025,54.95 Z" id="Path" fill="#F3F3F3"></path>
                <path d="M32.025,54.925 C32.25,54.9 32.45,55.05 32.475,55.25 L32.775,57.55 C32.8,57.75 32.65,57.95 32.425,57.975 C32.2,58 32,57.85 31.975,57.65 L31.675,55.35 C31.65,55.15 31.8,54.95 32.025,54.925 L32.025,54.925 Z M32.4,57.925 C32.575,57.9 32.725,57.725 32.7,57.55 L32.4,55.25 C32.375,55.075 32.2,54.95 32.025,54.975 C31.85,55 31.7,55.175 31.725,55.35 L32.025,57.65 C32.05,57.825 32.225,57.95 32.4,57.925 L32.4,57.925 Z" id="Shape" fill="#FFFFFF"></path>
                <path d="M29.45,52.15 C29.65,52.15 29.825,52.3 29.825,52.5 L29.825,57.725 C29.825,57.925 29.65,58.075 29.45,58.075 C29.25,58.075 29.075,57.925 29.075,57.725 L29.075,52.5 C29.1,52.3 29.25,52.15 29.45,52.15 L29.45,52.15 Z" id="Path" fill="#F3F3F3"></path>
                <path d="M29.55,52.125 C29.83125,52.125 30.05,52.3 30.05,52.5 L30.05,57.725 C30.05,57.925 29.83125,58.1 29.55,58.1 C29.26875,58.1 29.05,57.925 29.05,57.725 L29.05,52.5 C29.05,52.3 29.3,52.125 29.55,52.125 L29.55,52.125 Z M29.55,58.05 C29.76875,58.05 29.9875,57.9 29.9875,57.725 L29.9875,52.5 C29.9875,52.325 29.8,52.175 29.55,52.175 C29.33125,52.175 29.1125,52.325 29.1125,52.5 L29.1125,57.725 C29.14375,57.9 29.33125,58.05 29.55,58.05 L29.55,58.05 Z" id="Shape" fill="#FFFFFF"></path>
                <path d="M26.95,54.95 C27.15,54.975 27.3,55.125 27.3,55.325 L27.125,57.65 C27.1,57.85 26.925,58 26.725,57.975 C26.525,57.95 26.375,57.8 26.375,57.6 L26.55,55.275 C26.575,55.075 26.75,54.925 26.95,54.95 L26.95,54.95 Z" id="Path" fill="#F3F3F3"></path>
                <path d="M26.9653846,54.925 C27.1961538,54.95 27.35,55.125 27.35,55.325 L27.1705128,57.65 C27.1448718,57.85 26.9653846,58.025 26.7346154,58 C26.5038462,57.975 26.35,57.8 26.35,57.6 L26.5294872,55.275 C26.5551282,55.05 26.7346154,54.9 26.9653846,54.925 L26.9653846,54.925 Z M26.7346154,57.95 C26.9141026,57.95 27.0935897,57.825 27.0935897,57.65 L27.2730769,55.325 C27.2730769,55.15 27.1448718,55 26.9397436,54.975 C26.7602564,54.975 26.5807692,55.1 26.5807692,55.275 L26.4012821,57.6 C26.4012821,57.775 26.5551282,57.925 26.7346154,57.95 L26.7346154,57.95 Z" id="Shape" fill="#FFFFFF"></path>
                <path d="M25.075,51.7 C25.275,51.75 25.4,51.925 25.375,52.125 L24.35,57.25 C24.3,57.45 24.125,57.575 23.925,57.525 C23.725,57.475 23.6,57.3 23.625,57.1 L24.65,51.975 C24.675,51.8 24.875,51.675 25.075,51.7 L25.075,51.7 Z" id="Path" fill="#F3F3F3"></path>
                <path d="M25.075,51.675 C25.3,51.725 25.425,51.925 25.4,52.125 L24.375,57.25 C24.325,57.45 24.125,57.6 23.9,57.55 C23.675,57.5 23.55,57.3 23.575,57.1 L24.6,51.975 C24.65,51.775 24.85,51.65 25.075,51.675 L25.075,51.675 Z M23.9,57.5 C24.075,57.525 24.25,57.425 24.3,57.25 L25.325,52.125 C25.35,51.95 25.25,51.775 25.05,51.725 C24.875,51.7 24.7,51.8 24.65,51.975 L23.625,57.1 C23.6,57.3 23.725,57.45 23.9,57.5 L23.9,57.5 Z" id="Shape" fill="#FFFFFF"></path>
                <path d="M22.075,53.95 C22.275,54 22.4,54.2 22.35,54.4 L21.725,56.65 C21.675,56.85 21.475,56.95 21.275,56.9 C21.075,56.85 20.95,56.65 21,56.45 L21.625,54.2 C21.675,54 21.875,53.9 22.075,53.95 L22.075,53.95 Z" id="Path" fill="#F3F3F3"></path>
                <path d="M22.075,53.925 C22.275,53.975 22.425,54.2 22.35,54.4 L21.725,56.65 C21.675,56.85 21.45,56.975 21.25,56.925 C21.05,56.875 20.9,56.65 20.975,56.45 L21.6,54.2 C21.65,54 21.85,53.875 22.075,53.925 L22.075,53.925 Z M21.25,56.85 C21.425,56.9 21.625,56.8 21.675,56.625 L22.3,54.375 C22.35,54.2 22.25,54.025 22.05,53.975 C21.875,53.925 21.675,54.025 21.625,54.2 L21,56.45 C20.975,56.625 21.075,56.8 21.25,56.85 L21.25,56.85 Z" id="Shape" fill="#FFFFFF"></path>
                <path d="M20.85,50.425 C21.05,50.5 21.125,50.725 21.05,50.9 L19.05,55.725 C18.975,55.9 18.75,56 18.575,55.9 C18.4,55.8 18.3,55.6 18.375,55.425 L20.375,50.6 C20.45,50.425 20.675,50.325 20.85,50.425 L20.85,50.425 Z" id="Path" fill="#F3F3F3"></path>
                <path d="M20.85,50.4 C21.05,50.475 21.15,50.7 21.075,50.9 L19.075,55.725 C19,55.925 18.775,56 18.55,55.925 C18.35,55.85 18.25,55.625 18.325,55.425 L20.325,50.6 C20.425,50.4 20.65,50.3 20.85,50.4 L20.85,50.4 Z M18.575,55.875 C18.75,55.95 18.95,55.875 19.025,55.7 L21.025,50.875 C21.1,50.7 21,50.525 20.825,50.45 C20.65,50.375 20.45,50.45 20.375,50.625 L18.375,55.45 C18.325,55.6 18.4,55.8 18.575,55.875 L18.575,55.875 Z" id="Shape" fill="#FFFFFF"></path>
                <path d="M17.475,52.025 C17.65,52.125 17.725,52.325 17.65,52.5 L16.6,54.575 C16.5,54.75 16.3,54.825 16.1,54.725 C15.925,54.625 15.85,54.425 15.925,54.25 L16.975,52.175 C17.075,52 17.275,51.925 17.475,52.025 L17.475,52.025 Z" id="Path" fill="#F3F3F3"></path>
                <path d="M17.475,52 C17.675,52.1 17.75,52.325 17.65,52.525 L16.6,54.6 C16.5,54.8 16.275,54.875 16.075,54.775 C15.875,54.675 15.8,54.45 15.9,54.25 L16.95,52.175 C17.05,51.975 17.275,51.9 17.475,52 L17.475,52 Z M16.1,54.725 C16.275,54.8 16.475,54.75 16.55,54.575 L17.6,52.5 C17.675,52.35 17.6,52.15 17.45,52.05 C17.275,51.975 17.075,52.025 17,52.2 L15.95,54.275 C15.875,54.425 15.95,54.625 16.1,54.725 L16.1,54.725 Z" id="Shape" fill="#FFFFFF"></path>
                <path d="M16.975,48.325 C17.15,48.45 17.2,48.675 17.075,48.825 L14.175,53.15 C14.075,53.325 13.85,53.35 13.675,53.25 C13.5,53.125 13.45,52.9 13.575,52.75 L16.475,48.425 C16.575,48.25 16.8,48.2 16.975,48.325 L16.975,48.325 Z" id="Path" fill="#F3F3F3"></path>
                <path d="M16.975,48.3 C17.15,48.425 17.2,48.675 17.1,48.85 L14.2,53.175 C14.075,53.35 13.85,53.4 13.65,53.275 C13.475,53.15 13.425,52.9 13.525,52.725 L16.425,48.4 C16.55,48.225 16.8,48.175 16.975,48.3 L16.975,48.3 Z M13.675,53.225 C13.825,53.325 14.05,53.3 14.15,53.15 L17.05,48.825 C17.15,48.675 17.1,48.475 16.95,48.375 C16.8,48.275 16.575,48.3 16.475,48.45 L13.575,52.75 C13.475,52.9 13.525,53.125 13.675,53.225 L13.675,53.225 Z" id="Shape" fill="#FFFFFF"></path>
                <path d="M13.325,49.25 C13.475,49.375 13.525,49.6 13.4,49.75 L11.95,51.575 C11.825,51.725 11.6,51.75 11.45,51.625 C11.3,51.5 11.25,51.275 11.375,51.125 L12.825,49.3 C12.95,49.15 13.175,49.125 13.325,49.25 L13.325,49.25 Z" id="Path" fill="#F3F3F3"></path>
                <path d="M13.35,49.225 C13.525,49.35 13.55,49.6 13.425,49.775 L11.975,51.6 C11.85,51.775 11.6,51.8 11.425,51.65 C11.25,51.525 11.225,51.275 11.35,51.1 L12.8,49.275 C12.925,49.1 13.175,49.075 13.35,49.225 L13.35,49.225 Z M11.475,51.6 C11.625,51.725 11.825,51.7 11.95,51.55 L13.4,49.725 C13.5,49.575 13.475,49.375 13.325,49.25 C13.175,49.125 12.975,49.15 12.85,49.3 L11.4,51.125 C11.3,51.275 11.325,51.5 11.475,51.6 L11.475,51.6 Z" id="Shape" fill="#FFFFFF"></path>
                <path d="M13.575,45.5 C13.725,45.65 13.725,45.875 13.575,46 L9.875,49.675 C9.725,49.825 9.5,49.8 9.375,49.675 C9.25,49.55 9.225,49.3 9.375,49.175 L13.05,45.5 C13.2,45.35 13.425,45.35 13.575,45.5 L13.575,45.5 Z" id="Path" fill="#F3F3F3"></path>
                <path d="M13.6,45.475 C13.75,45.625 13.75,45.875 13.6,46.025 L9.9,49.7 C9.75,49.85 9.5,49.85 9.35,49.7 C9.2,49.55 9.2,49.3 9.35,49.15 L13.05,45.475 C13.2,45.325 13.45,45.325 13.6,45.475 L13.6,45.475 Z M9.375,49.675 C9.5,49.8 9.725,49.8 9.85,49.675 L13.55,46 C13.675,45.875 13.675,45.65 13.55,45.525 C13.425,45.4 13.2,45.4 13.075,45.525 L9.375,49.2 C9.25,49.325 9.25,49.525 9.375,49.675 L9.375,49.675 Z" id="Shape" fill="#FFFFFF"></path>
                <path d="M9.825,45.7 C9.95,45.85 9.95,46.075 9.8,46.2 L8.025,47.7 C7.875,47.825 7.65,47.8 7.525,47.65 C7.4,47.5 7.4,47.275 7.55,47.15 L9.325,45.65 C9.475,45.525 9.7,45.55 9.825,45.7 L9.825,45.7 Z" id="Path" fill="#F3F3F3"></path>
                <path d="M9.85,45.675 C10,45.85 9.975,46.1 9.825,46.225 L8.05,47.725 C7.9,47.875 7.65,47.85 7.5,47.675 C7.35,47.5 7.375,47.25 7.525,47.125 L9.3,45.625 C9.45,45.475 9.7,45.5 9.85,45.675 L9.85,45.675 Z M7.55,47.65 C7.675,47.8 7.875,47.8 8.025,47.7 L9.8,46.2 C9.925,46.075 9.95,45.875 9.825,45.725 C9.7,45.575 9.5,45.575 9.35,45.675 L7.575,47.175 C7.425,47.3 7.425,47.5 7.55,47.65 L7.55,47.65 Z" id="Shape" fill="#FFFFFF"></path>
                <path d="M10.825,42.1 C10.95,42.275 10.9,42.5 10.725,42.6 L6.375,45.5 C6.2,45.6 5.975,45.55 5.875,45.4 C5.75,45.225 5.8,45 5.975,44.9 L10.325,42 C10.475,41.9 10.7,41.95 10.825,42.1 L10.825,42.1 Z" id="Path" fill="#F3F3F3"></path>
                <path d="M10.85,42.1 C10.975,42.275 10.925,42.525 10.75,42.65 L6.4,45.55 C6.225,45.675 5.975,45.625 5.85,45.425 C5.725,45.25 5.775,45 5.95,44.875 L10.3,41.975 C10.475,41.85 10.725,41.9 10.85,42.1 L10.85,42.1 Z M5.9,45.375 C6,45.525 6.2,45.575 6.35,45.475 L10.7,42.575 C10.85,42.475 10.9,42.275 10.775,42.1 C10.675,41.95 10.475,41.9 10.325,42 L5.975,44.9 C5.825,45.025 5.8,45.225 5.9,45.375 L5.9,45.375 Z" id="Shape" fill="#FFFFFF"></path>
                <path d="M7.1,41.575 C7.2,41.75 7.15,41.975 6.975,42.075 L4.95,43.225 C4.775,43.325 4.55,43.25 4.45,43.075 C4.35,42.9 4.4,42.675 4.575,42.575 L6.6,41.425 C6.775,41.325 7,41.4 7.1,41.575 L7.1,41.575 Z" id="Path" fill="#F3F3F3"></path>
                <path d="M7.125,41.55 C7.225,41.75 7.175,41.975 7,42.075 L4.975,43.225 C4.8,43.325 4.55,43.25 4.45,43.075 C4.35,42.875 4.4,42.65 4.575,42.55 L6.6,41.4 C6.775,41.3 7.025,41.375 7.125,41.55 L7.125,41.55 Z M4.475,43.05 C4.575,43.225 4.775,43.275 4.925,43.175 L6.95,42.025 C7.1,41.925 7.15,41.725 7.075,41.575 C6.975,41.4 6.775,41.35 6.625,41.45 L4.6,42.6 C4.45,42.675 4.4,42.875 4.475,43.05 L4.475,43.05 Z" id="Shape" fill="#FFFFFF"></path>
                <path d="M8.775,38.25 C8.85,38.45 8.775,38.65 8.575,38.725 L3.75,40.725 C3.575,40.8 3.35,40.7 3.275,40.525 C3.2,40.325 3.275,40.125 3.475,40.05 L8.3,38.05 C8.475,37.975 8.7,38.05 8.775,38.25 L8.775,38.25 Z" id="Path" fill="#F3F3F3"></path>
                <path d="M8.8,38.225 C8.875,38.425 8.8,38.65 8.6,38.75 L3.775,40.75 C3.575,40.825 3.35,40.725 3.275,40.525 C3.2,40.325 3.275,40.1 3.475,40 L8.3,38 C8.5,37.925 8.725,38.025 8.8,38.225 L8.8,38.225 Z M3.325,40.5 C3.4,40.675 3.6,40.75 3.75,40.7 L8.575,38.7 C8.75,38.625 8.825,38.425 8.75,38.25 C8.675,38.075 8.475,38 8.325,38.05 L3.5,40.05 C3.325,40.125 3.25,40.325 3.325,40.5 L3.325,40.5 Z" id="Shape" fill="#FFFFFF"></path>
                <path d="M5.25,37 C5.325,37.2 5.225,37.4 5.025,37.475 L2.825,38.2 C2.65,38.275 2.425,38.15 2.375,37.975 C2.3,37.775 2.4,37.575 2.6,37.5 L4.8,36.775 C4.975,36.7 5.175,36.8 5.25,37 L5.25,37 Z" id="Path" fill="#F3F3F3"></path>
                <path d="M5.275,36.975 C5.35,37.175 5.25,37.4 5.025,37.475 L2.825,38.2 C2.625,38.275 2.4,38.15 2.325,37.95 C2.25,37.75 2.35,37.525 2.575,37.45 L4.775,36.725 C4.975,36.675 5.2,36.775 5.275,36.975 L5.275,36.975 Z M2.375,37.925 C2.425,38.1 2.625,38.2 2.8,38.15 L5,37.425 C5.175,37.375 5.25,37.175 5.2,37 C5.15,36.825 4.95,36.725 4.775,36.775 L2.575,37.5 C2.4,37.575 2.325,37.75 2.375,37.925 L2.375,37.925 Z" id="Shape" fill="#FFFFFF"></path>
                <path d="M7.5,34.025 C7.55,34.225 7.425,34.425 7.225,34.45 L2.1,35.45 C1.9,35.5 1.725,35.35 1.675,35.15 C1.625,34.95 1.75,34.75 1.95,34.725 L7.075,33.725 C7.275,33.7 7.475,33.825 7.5,34.025 L7.5,34.025 Z" id="Path" fill="#F3F3F3"></path>
                <path d="M7.55,34.025 C7.6,34.25 7.45,34.45 7.25,34.5 L2.125,35.5 C1.925,35.55 1.725,35.4 1.675,35.175 C1.625,34.95 1.775,34.75 1.975,34.7 L7.1,33.7 C7.3,33.65 7.5,33.8 7.55,34.025 L7.55,34.025 Z M1.725,35.15 C1.75,35.325 1.925,35.45 2.1,35.425 L7.225,34.425 C7.4,34.4 7.525,34.2 7.475,34.025 C7.45,33.85 7.275,33.725 7.1,33.75 L1.975,34.75 C1.8,34.8 1.675,34.975 1.725,35.15 L1.725,35.15 Z" id="Shape" fill="#FFFFFF"></path>
                <path d="M4.3,32.1 C4.325,32.3 4.2,32.475 4,32.5 L1.7,32.775 C1.5,32.8 1.325,32.65 1.3,32.45 C1.275,32.25 1.4,32.075 1.6,32.05 L3.9,31.775 C4.075,31.75 4.275,31.9 4.3,32.1 L4.3,32.1 Z" id="Path" fill="#F3F3F3"></path>
                <path d="M4.325,32.1 C4.35,32.325 4.2,32.525 4,32.55 L1.7,32.825 C1.5,32.85 1.3,32.7 1.275,32.475 C1.25,32.25 1.4,32.05 1.6,32.025 L3.9,31.75 C4.1,31.725 4.3,31.875 4.325,32.1 L4.325,32.1 Z M1.3,32.45 C1.325,32.625 1.5,32.775 1.675,32.75 L3.975,32.475 C4.15,32.45 4.275,32.275 4.25,32.1 C4.225,31.925 4.05,31.775 3.875,31.8 L1.575,32.075 C1.4,32.1 1.275,32.275 1.3,32.45 L1.3,32.45 Z" id="Shape" fill="#FFFFFF"></path>
                <path d="M7.1,29.675 C7.1,29.875 6.95,30.05 6.75,30.05 L1.525,30.05 C1.325,30.05 1.175,29.875 1.175,29.675 C1.175,29.475 1.325,29.3 1.525,29.3 L6.75,29.3 C6.95,29.3 7.1,29.475 7.1,29.675 L7.1,29.675 Z" id="Path" fill="#F3F3F3"></path>
                <path d="M7.125,29.775 C7.125,30.05625 6.95,30.275 6.75,30.275 L1.525,30.275 C1.325,30.275 1.15,30.05625 1.15,29.775 C1.15,29.49375 1.325,29.275 1.525,29.275 L6.75,29.275 C6.95,29.275 7.125,29.49375 7.125,29.775 L7.125,29.775 Z M1.2,29.74375 C1.2,29.9625 1.35,30.18125 1.525,30.18125 L6.75,30.18125 C6.925,30.18125 7.075,29.99375 7.075,29.74375 C7.075,29.525 6.925,29.30625 6.75,29.30625 L1.525,29.30625 C1.35,29.3375 1.2,29.525 1.2,29.74375 L1.2,29.74375 Z" id="Shape" fill="#FFFFFF"></path>
                <path d="M4.325,27.15 C4.3,27.35 4.15,27.5 3.95,27.5 L1.625,27.325 C1.425,27.3 1.275,27.125 1.3,26.925 C1.325,26.725 1.475,26.575 1.675,26.575 L4,26.75 C4.175,26.775 4.325,26.95 4.325,27.15 L4.325,27.15 Z" id="Path" fill="#E2E2E2"></path>
                <path d="M4.35,27.1653846 C4.325,27.3961538 4.15,27.55 3.95,27.55 L1.625,27.3705128 C1.425,27.3448718 1.25,27.1653846 1.275,26.9346154 C1.3,26.7038462 1.475,26.55 1.675,26.55 L4,26.7294872 C4.2,26.7551282 4.35,26.9602564 4.35,27.1653846 L4.35,27.1653846 Z M1.3,26.9346154 C1.275,27.1141026 1.425,27.2935897 1.6,27.2935897 L3.925,27.4730769 C4.1,27.4730769 4.25,27.3448718 4.275,27.1397436 C4.3,26.9602564 4.15,26.7807692 3.975,26.7807692 L1.65,26.6012821 C1.475,26.6012821 1.325,26.7551282 1.3,26.9346154 L1.3,26.9346154 Z" id="Shape" fill="#FFFFFF"></path>
                <path d="M7.55,25.325 C7.5,25.525 7.325,25.65 7.125,25.625 L2,24.575 C1.8,24.525 1.675,24.35 1.725,24.15 C1.775,23.95 1.95,23.825 2.15,23.85 L7.275,24.875 C7.45,24.925 7.575,25.125 7.55,25.325 L7.55,25.325 Z" id="Path" fill="#F3F3F3"></path>
                <path d="M7.575,25.325 C7.525,25.55 7.325,25.675 7.125,25.65 L2,24.625 C1.8,24.575 1.65,24.375 1.7,24.15 C1.75,23.925 1.95,23.8 2.15,23.825 L7.275,24.85 C7.475,24.9 7.6,25.1 7.575,25.325 L7.575,25.325 Z M1.75,24.15 C1.725,24.325 1.825,24.5 2,24.55 L7.125,25.575 C7.3,25.6 7.475,25.5 7.525,25.3 C7.55,25.125 7.45,24.95 7.275,24.9 L2.15,23.875 C1.95,23.85 1.8,23.975 1.75,24.15 L1.75,24.15 Z" id="Shape" fill="#FFFFFF"></path>
                <path d="M5.3,22.325 C5.25,22.525 5.05,22.65 4.85,22.6 L2.6,21.975 C2.4,21.925 2.3,21.725 2.35,21.525 C2.4,21.325 2.6,21.2 2.8,21.25 L5.05,21.875 C5.25,21.925 5.35,22.125 5.3,22.325 L5.3,22.325 Z" id="Path" fill="#F3F3F3"></path>
                <path d="M5.325,22.325 C5.275,22.525 5.05,22.675 4.85,22.6 L2.6,21.975 C2.4,21.925 2.275,21.7 2.325,21.5 C2.375,21.3 2.6,21.15 2.8,21.225 L5.05,21.85 C5.25,21.9 5.375,22.1 5.325,22.325 L5.325,22.325 Z M2.4,21.5 C2.35,21.675 2.45,21.875 2.625,21.925 L4.875,22.55 C5.05,22.6 5.225,22.5 5.275,22.3 C5.325,22.125 5.225,21.925 5.05,21.875 L2.8,21.25 C2.625,21.225 2.45,21.325 2.4,21.5 L2.4,21.5 Z" id="Shape" fill="#FFFFFF"></path>
                <path d="M8.825,21.125 C8.75,21.325 8.525,21.4 8.35,21.325 L3.525,19.325 C3.35,19.25 3.25,19.025 3.325,18.85 C3.4,18.65 3.625,18.575 3.8,18.65 L8.625,20.65 C8.825,20.725 8.9,20.95 8.825,21.125 L8.825,21.125 Z" id="Path" fill="#F3F3F3"></path>
                <path d="M8.85,21.15 C8.775,21.35 8.55,21.45 8.35,21.375 L3.525,19.375 C3.325,19.3 3.25,19.075 3.325,18.85 C3.4,18.65 3.625,18.55 3.825,18.625 L8.65,20.625 C8.85,20.725 8.925,20.95 8.85,21.15 L8.85,21.15 Z M3.375,18.875 C3.3,19.05 3.375,19.25 3.55,19.325 L8.375,21.325 C8.55,21.4 8.725,21.3 8.8,21.125 C8.875,20.95 8.8,20.75 8.625,20.675 L3.8,18.675 C3.625,18.625 3.425,18.7 3.375,18.875 L3.375,18.875 Z" id="Shape" fill="#FFFFFF"></path>
                <path d="M7.2,17.75 C7.1,17.925 6.9,18 6.725,17.925 L4.65,16.875 C4.475,16.8 4.4,16.575 4.5,16.375 C4.6,16.2 4.8,16.125 4.975,16.2 L7.05,17.25 C7.225,17.35 7.3,17.575 7.2,17.75 L7.2,17.75 Z" id="Path" fill="#F3F3F3"></path>
                <path d="M7.225,17.775 C7.125,17.975 6.9,18.05 6.7,17.95 L4.625,16.9 C4.425,16.8 4.35,16.575 4.45,16.375 C4.55,16.175 4.775,16.1 4.975,16.2 L7.05,17.25 C7.25,17.325 7.325,17.575 7.225,17.775 L7.225,17.775 Z M4.525,16.4 C4.45,16.575 4.5,16.775 4.675,16.85 L6.75,17.9 C6.9,17.975 7.1,17.9 7.2,17.75 C7.275,17.575 7.225,17.375 7.05,17.3 L4.95,16.25 C4.8,16.175 4.6,16.225 4.525,16.4 L4.525,16.4 Z" id="Shape" fill="#FFFFFF"></path>
                <path d="M10.875,17.275 C10.75,17.45 10.55,17.5 10.375,17.375 L6.05,14.5 C5.875,14.4 5.85,14.175 5.95,14 C6.05,13.825 6.275,13.775 6.45,13.9 L10.8,16.8 C10.95,16.9 11,17.125 10.875,17.275 L10.875,17.275 Z" id="Path" fill="#F3F3F3"></path>
                <path d="M10.9,17.3 C10.775,17.475 10.525,17.525 10.35,17.425 L6.025,14.525 C5.85,14.4 5.8,14.175 5.925,13.975 C6.05,13.8 6.3,13.75 6.475,13.85 L10.8,16.75 C11,16.875 11.025,17.125 10.9,17.3 L10.9,17.3 Z M5.975,14 C5.875,14.15 5.9,14.375 6.05,14.475 L10.4,17.375 C10.55,17.475 10.75,17.425 10.85,17.275 C10.95,17.125 10.925,16.9 10.775,16.8 L6.425,13.9 C6.275,13.8 6.075,13.85 5.975,14 L5.975,14 Z" id="Shape" fill="#FFFFFF"></path>
                <path d="M9.95,13.65 C9.825,13.8 9.6,13.85 9.45,13.725 L7.625,12.3 C7.475,12.175 7.45,11.95 7.575,11.8 C7.7,11.65 7.925,11.6 8.075,11.725 L9.9,13.15 C10.05,13.275 10.075,13.5 9.95,13.65 L9.95,13.65 Z" id="Path" fill="#F3F3F3"></path>
                <path d="M9.975,13.675 C9.85,13.85 9.6,13.875 9.425,13.75 L7.6,12.325 C7.425,12.2 7.4,11.95 7.525,11.775 C7.65,11.6 7.9,11.575 8.075,11.7 L9.9,13.125 C10.075,13.25 10.1,13.5 9.975,13.675 L9.975,13.675 Z M7.575,11.8 C7.45,11.95 7.475,12.15 7.625,12.275 L9.45,13.7 C9.6,13.8 9.8,13.775 9.925,13.625 C10.05,13.475 10.025,13.275 9.875,13.15 L8.05,11.725 C7.9,11.625 7.7,11.65 7.575,11.8 L7.575,11.8 Z" id="Shape" fill="#FFFFFF"></path>
                <path d="M13.675,13.9 C13.525,14.05 13.3,14.05 13.175,13.9 L9.45,10.225 C9.3,10.075 9.325,9.85 9.45,9.725 C9.6,9.575 9.825,9.575 9.95,9.725 L13.65,13.4 C13.8,13.525 13.8,13.775 13.675,13.9 L13.675,13.9 Z" id="Path" fill="#F3F3F3"></path>
                <path d="M13.675,13.925 C13.525,14.075 13.275,14.075 13.125,13.925 L9.425,10.25 C9.275,10.1 9.275,9.85 9.425,9.7 C9.575,9.55 9.825,9.55 9.975,9.7 L13.675,13.375 C13.85,13.525 13.85,13.775 13.675,13.925 L13.675,13.925 Z M9.475,9.75 C9.35,9.875 9.35,10.1 9.475,10.225 L13.175,13.9 C13.3,14.025 13.525,14.025 13.65,13.9 C13.775,13.775 13.775,13.55 13.65,13.425 L9.95,9.725 C9.825,9.6 9.625,9.6 9.475,9.75 L9.475,9.75 Z" id="Shape" fill="#FFFFFF"></path>
                <path d="M13.45,10.175 C13.3,10.3 13.075,10.3 12.95,10.15 L11.425,8.4 C11.3,8.25 11.325,8.025 11.475,7.9 C11.625,7.775 11.85,7.775 11.975,7.925 L13.5,9.675 C13.625,9.8 13.6,10.025 13.45,10.175 L13.45,10.175 Z" id="Path" fill="#F3F3F3"></path>
                <path d="M13.475,10.175 C13.3,10.325 13.075,10.3 12.925,10.15 L11.4,8.4 C11.25,8.25 11.275,8 11.45,7.85 C11.625,7.7 11.85,7.725 12,7.875 L13.525,9.625 C13.65,9.8 13.65,10.05 13.475,10.175 L13.475,10.175 Z M11.475,7.9 C11.325,8.025 11.325,8.225 11.425,8.375 L12.95,10.125 C13.075,10.25 13.275,10.275 13.425,10.15 C13.575,10.025 13.575,9.825 13.475,9.675 L11.95,7.925 C11.825,7.775 11.625,7.775 11.475,7.9 L11.475,7.9 Z" id="Shape" fill="#FFFFFF"></path>
                <path d="M17.05,11.125 C16.875,11.25 16.65,11.2 16.55,11.025 L13.625,6.7 C13.525,6.525 13.575,6.3 13.725,6.2 C13.9,6.075 14.125,6.125 14.225,6.3 L17.125,10.625 C17.25,10.8 17.2,11.025 17.05,11.125 L17.05,11.125 Z" id="Path" fill="#F3F3F3"></path>
                <path d="M17.05,11.15 C16.875,11.275 16.625,11.225 16.5,11.05 L13.6,6.725 C13.475,6.55 13.525,6.3 13.725,6.175 C13.9,6.05 14.15,6.1 14.275,6.275 L17.175,10.6 C17.3,10.8 17.25,11.025 17.05,11.15 L17.05,11.15 Z M13.75,6.225 C13.6,6.325 13.55,6.525 13.65,6.675 L16.55,11 C16.65,11.15 16.85,11.175 17.025,11.075 C17.175,10.975 17.225,10.775 17.125,10.625 L14.225,6.325 C14.125,6.175 13.9,6.125 13.75,6.225 L13.75,6.225 Z" id="Shape" fill="#FFFFFF"></path>
                <path d="M17.575,7.425 C17.4,7.525 17.175,7.475 17.075,7.3 L15.925,5.275 C15.825,5.1 15.9,4.875 16.075,4.775 C16.25,4.675 16.475,4.725 16.575,4.9 L17.725,6.925 C17.8,7.1 17.75,7.325 17.575,7.425 L17.575,7.425 Z" id="Path" fill="#F3F3F3"></path>
                <path d="M17.575,7.45 C17.375,7.55 17.15,7.5 17.05,7.325 L15.9,5.3 C15.8,5.125 15.85,4.875 16.05,4.775 C16.25,4.675 16.475,4.725 16.575,4.9 L17.725,6.925 C17.825,7.1 17.775,7.325 17.575,7.45 L17.575,7.45 Z M16.075,4.8 C15.925,4.9 15.85,5.1 15.95,5.25 L17.1,7.275 C17.2,7.425 17.4,7.475 17.55,7.4 C17.7,7.3 17.775,7.1 17.675,6.95 L16.525,4.925 C16.45,4.775 16.225,4.7 16.075,4.8 L16.075,4.8 Z" id="Shape" fill="#FFFFFF"></path>
                <path d="M20.9,9.075 C20.7,9.15 20.5,9.075 20.425,8.9 L18.4,4.075 C18.325,3.9 18.425,3.675 18.6,3.6 C18.8,3.525 19,3.6 19.075,3.775 L21.1,8.6 C21.175,8.775 21.075,9 20.9,9.075 L20.9,9.075 Z" id="Path" fill="#F3F3F3"></path>
                <path d="M20.9,9.1 C20.7,9.175 20.475,9.1 20.375,8.9 L18.35,4.075 C18.275,3.875 18.375,3.65 18.575,3.575 C18.775,3.5 19,3.575 19.1,3.775 L21.125,8.6 C21.2,8.775 21.1,9 20.9,9.1 L20.9,9.1 Z M18.625,3.625 C18.45,3.7 18.375,3.9 18.45,4.05 L20.475,8.875 C20.55,9.05 20.75,9.125 20.925,9.05 C21.1,8.975 21.175,8.775 21.1,8.625 L19.075,3.8 C18.975,3.625 18.8,3.55 18.625,3.625 L18.625,3.625 Z" id="Shape" fill="#FFFFFF"></path>
                <path d="M22.125,5.525 C21.925,5.6 21.725,5.5 21.65,5.3 L20.925,3.1 C20.85,2.925 20.975,2.7 21.15,2.65 C21.325,2.6 21.55,2.675 21.625,2.875 L22.35,5.075 C22.425,5.25 22.325,5.45 22.125,5.525 L22.125,5.525 Z" id="Path" fill="#F3F3F3"></path>
                <path d="M22.15,5.55 C21.95,5.625 21.725,5.525 21.65,5.325 L20.925,3.125 C20.85,2.925 20.975,2.7 21.175,2.625 C21.375,2.55 21.6,2.65 21.675,2.85 L22.4,5.05 C22.45,5.25 22.35,5.475 22.15,5.55 L22.15,5.55 Z M21.175,2.675 C21,2.725 20.9,2.925 20.95,3.1 L21.675,5.3 C21.725,5.475 21.925,5.55 22.1,5.5 C22.275,5.45 22.375,5.25 22.325,5.075 L21.6,2.875 C21.55,2.7 21.35,2.6 21.175,2.675 L21.175,2.675 Z" id="Shape" fill="#FFFFFF"></path>
                <path d="M25.075,7.8 C24.875,7.85 24.675,7.725 24.65,7.525 L23.6,2.4 C23.55,2.2 23.7,2.025 23.9,1.975 C24.1,1.925 24.3,2.05 24.325,2.25 L25.375,7.375 C25.4,7.55 25.275,7.75 25.075,7.8 L25.075,7.8 Z" id="Path" fill="#F3F3F3"></path>
                <path d="M25.075,7.825 C24.85,7.875 24.65,7.725 24.6,7.525 L23.55,2.4 C23.5,2.2 23.65,1.975 23.85,1.95 C24.075,1.9 24.275,2.05 24.325,2.25 L25.375,7.375 C25.425,7.575 25.3,7.775 25.075,7.825 L25.075,7.825 Z M23.9,2 C23.725,2.025 23.6,2.2 23.625,2.4 L24.675,7.525 C24.7,7.7 24.9,7.825 25.075,7.775 C25.25,7.75 25.375,7.575 25.35,7.375 L24.3,2.25 C24.25,2.075 24.075,1.975 23.9,2 L23.9,2 Z" id="Shape" fill="#FFFFFF"></path>
                <path d="M26.975,4.55 C26.775,4.575 26.6,4.45 26.55,4.25 L26.25,1.95 C26.225,1.75 26.375,1.575 26.575,1.55 C26.775,1.525 26.95,1.65 27,1.85 L27.3,4.15 C27.325,4.35 27.175,4.525 26.975,4.55 L26.975,4.55 Z" id="Path" fill="#F3F3F3"></path>
                <path d="M26.975,4.575 C26.75,4.6 26.55,4.45 26.525,4.25 L26.225,1.95 C26.2,1.75 26.35,1.55 26.575,1.525 C26.8,1.5 27,1.65 27.025,1.85 L27.325,4.15 C27.35,4.35 27.2,4.55 26.975,4.575 L26.975,4.575 Z M26.6,1.575 C26.425,1.6 26.275,1.775 26.3,1.95 L26.6,4.25 C26.625,4.425 26.8,4.55 26.975,4.525 C27.15,4.5 27.3,4.325 27.275,4.15 L26.975,1.85 C26.95,1.675 26.775,1.55 26.6,1.575 L26.6,1.575 Z" id="Shape" fill="#FFFFFF"></path>
                <circle id="Oval" fill-opacity="0.200000003" fill="url(#linearGradient-3)" cx="29.675" cy="29.725" r="29.6"></circle>
            </g>
            <polygon id="Path" fill-opacity="0.05" fill="#000000" points="52.675 13.2 28.8 28.5 28.775 28.5 28.775 28.525 28.75 28.55 13.85 53.125 35.75 35.5 35.775 35.475 35.775 35.45"></polygon>
            <polyline id="Path" fill="#CD151E" points="52.225 11.775 28.625 28.55 35.625 35.5 52.225 11.775"></polyline>
            <polygon id="Path" fill="#FA5153" points="28.65 28.5 32.175 31.975 52.225 11.775"></polygon>
            <polygon id="Path" fill="#ACACAC" points="28.65 28.5 35.65 35.45 12.05 52.225"></polygon>
            <polygon id="Path" fill="#EEEEEE" points="12.05 52.225 32.175 31.975 28.65 28.5"></polygon>
        </g>
    </g>
</svg>