<?xml version="1.0" encoding="UTF-8"?>
<svg width="24px" height="24px" viewBox="0 0 24 24" version="1.1" xmlns="http://www.w3.org/2000/svg" xmlns:xlink="http://www.w3.org/1999/xlink">
    <title>view-number-icon</title>
    <g id="view-number-icon" stroke="none" stroke-width="1" fill="none" fill-rule="evenodd">
        <path d="M18,3 L21.1714286,3 C22.7336054,3 24,4.20883118 24,5.7 L24,18.3 C24,19.7911688 22.7336054,21 21.1714286,21 L18,21" id="Path-Copy-5" fill="#0077FF"></path>
        <path d="M0,3 L3.17142857,3 C4.73360544,3 6,4.20883118 6,5.7 L6,18.3 C6,19.7911688 4.73360544,21 3.17142857,21 L0,21" id="Path-Copy-6" fill="#0077FF" transform="translate(3.000000, 12.000000) scale(-1, 1) translate(-3.000000, -12.000000) "></path>
        <rect id="Rectangle-Copy-28" fill="#040E22" x="4" y="1" width="16" height="22" rx="1.6"></rect>
        <path d="M17.4,0 C19.3882251,0 21,1.6117749 21,3.6 L21,20.4 C21,22.3882251 19.3882251,24 17.4,24 L6.6,24 C4.6117749,24 3,22.3882251 3,20.4 L3,3.6 C3,1.6117749 4.6117749,0 6.6,0 L17.4,0 Z M17.4,1.5 L6.6,1.5 C5.49062802,1.5 4.58217181,2.36022265 4.50527273,3.45002658 L4.5,3.6 L4.5,20.4 C4.5,21.509372 5.36022265,22.4178282 6.45002658,22.4947273 L6.6,22.5 L17.4,22.5 C18.509372,22.5 19.4178282,21.6397774 19.4947273,20.5499734 L19.5,20.4 L19.5,3.6 C19.5,2.49062802 18.6397774,1.58217181 17.5499734,1.50527273 L17.4,1.5 Z" id="Rectangle-Copy-30" fill="#FFFFFF" fill-rule="nonzero"></path>
        <circle id="Oval-Copy-81" fill="#FFFFFF" cx="12" cy="7.5" r="3"></circle>
        <path d="M9.88016036,12 L14.1198396,12 C15.9398944,12 17.5069328,13.2846642 17.863875,15.0693748 L18.3846409,17.6732044 C18.5500628,18.5003139 18.013659,19.3049195 17.1865496,19.4703414 C17.0879287,19.4900656 16.9876007,19.5 16.8870268,19.5 L7.11297323,19.5 C6.2694838,19.5 5.58570051,18.8162167 5.58570051,17.9727273 C5.58570051,17.8721533 5.59563494,17.7718253 5.61535911,17.6732044 L6.13612505,15.0693748 C6.49306716,13.2846642 8.06010555,12 9.88016036,12 Z" id="Rectangle-Copy-29" fill="#FFFFFF"></path>
    </g>
</svg>