<?xml version="1.0" encoding="UTF-8"?>
<svg width="63px" height="52px" viewBox="0 0 63 52" version="1.1" xmlns="http://www.w3.org/2000/svg" xmlns:xlink="http://www.w3.org/1999/xlink">
    <title>answerdash-icon</title>
    <g id="Page-1" stroke="none" stroke-width="1" fill="none" fill-rule="evenodd" opacity="0.119999997">
        <g id="chord-video-lp-v2@2x" transform="translate(-933.000000, -9630.000000)" fill="#F8EFE2">
            <g id="Group-35" transform="translate(118.000000, 8820.000000)">
                <g id="answerdash-icon" transform="translate(815.000000, 810.000000)">
                    <path d="M23.6139823,29.5000914 C19.58542,29.9444707 13.8857048,31.3435754 9.10849871,33.354277 L39.3447053,0.0217331684 C24.0241,0.455373798 8.72855179,11.8236106 4.89891184,25.7942026 C3.92782274,29.3369648 3.79231004,32.7089298 4.36862253,35.7812327 C3.20423607,36.5135127 0.710802448,38.4654069 1.65808394e-13,40.2863907 C8.77355223,36.3958979 19.5849086,34.0594544 30.8871789,34.0594544 C35.5667136,34.0594544 39.9409611,34.4624129 43.9352618,35.2069657 L36.7070657,15.0667107 L23.6139823,29.5000914 Z" id="Fill-24"></path>
                    <path d="M40.2504415,2.01658857e-14 C40.2427709,2.01658857e-14 40.2356118,0.000511368668 40.2279412,0.000511368668 C40.1404972,0.000511368668 40.0530532,0.00613642401 39.9656091,0.00664779268 L53.5925614,37.9747486 C53.876371,38.0887838 54.1744989,38.193103 54.4511494,38.3117406 C57.7346476,34.6027836 60.2147856,30.3420599 61.4615024,25.793947 C65.3663136,11.5482386 55.869686,2.01658857e-14 40.2504415,2.01658857e-14" id="Fill-26"></path>
                    <path d="M26.1098705,51.5883542 C32.9003351,51.5883542 39.7240386,49.3971394 45.5955736,45.7587513 C47.2012712,45.8364794 48.7609457,45.8421044 50.2807333,45.7792061 C50.8596027,45.7551718 51.2753454,45.382384 51.4159718,44.9339137 C45.2238086,41.9101907 36.5786099,40.046252 26.7122628,40.046252 C19.8906048,40.046252 13.1640613,40.9385903 7.06598997,42.4870146 C10.727901,48.049683 17.4759219,51.5883542 26.1098705,51.5883542" id="Fill-29"></path>
                </g>
            </g>
        </g>
    </g>
</svg>