<?xml version="1.0" encoding="UTF-8"?>
<svg width="58px" height="64px" viewBox="0 0 58 64" version="1.1" xmlns="http://www.w3.org/2000/svg" xmlns:xlink="http://www.w3.org/1999/xlink">
    <title>chord-video-bg-element</title>
    <defs>
        <polygon id="path-1" points="0 0.959 16.0019 0.959 16.0019 23 0 23"></polygon>
        <polygon id="path-3" points="0.001 0 24.168 0 24.168 15.952375 0.001 15.952375"></polygon>
    </defs>
    <g id="Page-1" stroke="none" stroke-width="1" fill="none" fill-rule="evenodd">
        <g id="chord-video-lp-v2@2x" transform="translate(-840.000000, -6524.000000)">
            <g id="chord-video-bg-element" transform="translate(840.000000, 6524.000000)">
                <g id="Group-3" transform="translate(0.000000, 41.000000)">
                    <mask id="mask-2" fill="white">
                        <use xlink:href="#path-1"></use>
                    </mask>
                    <g id="Clip-2"></g>
                    <path d="M12.0019,8.073 L1.6039,2.073 C1.0329,1.74 0.5039,1.36 -0.0001,0.959 L-0.0001,15.006 C-0.0001,17.854 1.5329,20.511 4.0029,21.938 C6.4679,23.355 9.5369,23.355 12.0039,21.935 C14.4699,20.511 16.0019,17.854 16.0019,15.006 C16.0019,12.157 14.4699,9.5 12.0019,8.073" id="Fill-1" fill="#0074FF" mask="url(#mask-2)"></path>
                </g>
                <path d="M3.9965,38.923 C4.4805,39.2 5.0355,39.389 5.5595,39.561 C6.4645,39.848 7.2665,39.992 8.0015,39.992 C9.4065,39.992 10.7905,39.619 12.0025,38.921 L17.1735,35.936 C17.1885,35.925 17.2055,35.916 17.2245,35.905 L24.0045,31.993 L1.6045,19.058 C1.0325,18.726 0.5055,18.348 0.0015,17.942 L0.0015,31.993 C0.0015,34.839 1.5315,37.494 3.9965,38.923" id="Fill-4" fill="#061F44"></path>
                <path d="M32.7983,37.0642 L28.7983,34.7582 L14.3983,43.0742 C13.8293,43.4012 13.2343,43.6672 12.6293,43.9032 L14.3983,44.9272 C18.3443,47.2032 20.7973,51.4512 20.7973,56.0062 C20.7973,56.6612 20.7313,57.3142 20.6303,57.9522 L32.7983,50.9262 C35.2663,49.5022 36.7983,46.8452 36.7983,43.9972 C36.7983,43.2982 36.7063,42.5952 36.5223,41.9172 C35.9693,39.8802 34.6103,38.1152 32.7983,37.0642" id="Fill-6" fill="#061F44"></path>
                <path d="M44.9545,20.073 L32.7995,13.057 C30.3285,11.635 27.2635,11.635 24.7955,13.057 L19.6245,16.133 L14.3715,19.075 C13.7205,19.425 13.1815,19.675 12.6265,19.891 L35.1935,32.919 C35.7535,33.242 36.2875,33.61 36.7995,34.029 L36.7995,31.992 C36.7965,27.434 39.2465,23.189 43.1895,20.91 C43.7465,20.587 44.3365,20.307 44.9545,20.073" id="Fill-8" fill="#061F44"></path>
                <g id="Group-12">
                    <mask id="mask-4" fill="white">
                        <use xlink:href="#path-3"></use>
                    </mask>
                    <g id="Clip-11"></g>
                    <path d="M3.999,14.9055 L3.999,14.9075 C6.427,16.2995 9.583,16.3025 12.003,14.9055 L22.356,8.9315 C22.999,8.5685 23.579,8.3035 24.168,8.0735 L12.003,1.0485 C9.578,-0.3485 6.43,-0.3505 3.999,1.0485 C1.534,2.4725 0.001,5.1275 0.001,7.9755 C0.001,10.8265 1.534,13.4835 3.999,14.9055" id="Fill-10" fill="#0074FF" mask="url(#mask-4)"></path>
                </g>
                <path d="M57.5688,31.8029 C57.5518,31.0919 57.4708,30.4699 57.3168,29.9049 C56.7628,27.8759 55.4088,26.1089 53.5958,25.0669 C53.5738,25.0549 53.5508,25.0399 53.5278,25.0239 C52.3078,24.3409 50.9618,23.9929 49.5928,23.9929 C48.1788,23.9929 46.7948,24.3589 45.5898,25.0569 C43.1218,26.4869 41.5898,29.1439 41.5918,31.9899 L41.5968,43.9959 C41.5968,44.0389 41.5818,44.2339 41.5768,44.2739 C41.5588,44.8539 41.5138,45.3879 41.4328,45.9149 C41.4328,45.9249 41.4308,45.9349 41.4308,45.9479 L53.5988,38.9139 C56.0488,37.4949 57.5758,34.8659 57.5938,32.0349 C57.5848,31.9619 57.5688,31.8479 57.5688,31.8029" id="Fill-13" fill="#0074FF"></path>
            </g>
        </g>
    </g>
</svg>