<?xml version="1.0" encoding="UTF-8"?>
<svg width="53px" height="59px" viewBox="0 0 53 59" version="1.1" xmlns="http://www.w3.org/2000/svg" xmlns:xlink="http://www.w3.org/1999/xlink">
    <title>chord-video-bg-element-plain</title>
    <g id="Page-1" stroke="none" stroke-width="1" fill="none" fill-rule="evenodd" opacity="0.119999997">
        <g id="chord-video-lp-v2@2x" transform="translate(-321.000000, -9925.000000)" fill="#F8EFE2">
            <g id="Group-35" transform="translate(118.000000, 8820.000000)">
                <g id="chord-video-bg-element-plain" transform="translate(203.000000, 1105.000000)">
                    <path d="M-1.02274761e-11,38.680946 C0.463961973,39.050452 0.951122044,39.4013665 1.47539907,39.7081262 L1.47539907,39.7081262 L11.0446148,45.2390966 C13.3157086,46.554445 14.726153,49.0038747 14.726153,51.6299237 C14.726153,54.2559727 13.3157086,56.7054024 11.0469346,58.0184269 C8.77584071,59.3268035 5.95263211,59.3268035 3.68385806,58.0207508 C1.4104444,56.7054024 -1.02274761e-11,54.2559727 -1.02274761e-11,51.6299237 L-1.02274761e-11,51.6299237 Z M26.500348,32.0421548 L30.1818862,34.1685573 C31.8498295,35.1376391 33.100207,36.7643951 33.6082454,38.6421363 C33.7775915,39.2672754 33.8634245,39.9156538 33.8634245,40.5593844 C33.8634245,43.1854334 32.4529801,45.6348631 30.1818862,46.9478876 L30.1818862,46.9478876 L18.984164,53.4247003 C19.0769564,52.8367442 19.1372715,52.2348445 19.1372715,51.6306209 C19.1372715,47.4312665 16.8800965,43.5154324 13.249594,41.4169172 L13.249594,41.4169172 L11.6210875,40.4733987 C12.1778419,40.2549486 12.725317,40.0109352 13.249594,39.7088234 L13.249594,39.7088234 L26.500348,32.0421548 Z M45.6369235,22.1191757 C46.8965803,22.1191757 48.1353587,22.439879 49.2581467,23.069666 C49.279025,23.0836096 49.2999033,23.0975532 49.3207816,23.1091729 C50.9887248,24.0689589 52.2344627,25.6980389 52.7448209,27.5688082 C52.8863293,28.0893702 52.9605632,28.6633826 52.9768019,29.3187329 C52.9768019,29.3605638 52.9907208,29.4651409 53,29.5325351 C52.9837613,32.1423165 51.5779566,34.5661829 49.3231014,35.8745595 L49.3231014,35.8745595 L38.1253792,42.3583441 C38.1253792,42.3467244 38.127699,42.3374287 38.127699,42.3281329 C38.2019329,41.8424301 38.2436895,41.3497554 38.2599281,40.8152499 C38.2645677,40.7780669 38.2784866,40.5991237 38.2784866,40.5596168 L38.2784866,40.5596168 L38.273847,29.4907043 C38.2715272,26.8669792 39.6819716,24.4175495 41.9530654,23.0998772 C43.0619345,22.4561466 44.3355102,22.1191757 45.6369235,22.1191757 Z M0.000463961965,16.5398674 C0.464425935,16.9140213 0.949266196,17.2626119 1.47586303,17.5693716 L1.47586303,17.5693716 L22.0896935,29.493493 L15.8494049,33.1002434 C15.8331663,33.1095391 15.8169276,33.1188349 15.8030087,33.1281306 L15.8030087,33.1281306 L11.0450787,35.8796722 C9.92925018,36.5234028 8.65567456,36.8673455 7.36354047,36.8673455 C6.68615599,36.8673455 5.94845645,36.7348811 5.11564471,36.4699522 C4.63312426,36.3119245 4.12276609,36.1376292 3.6773626,35.8819961 C1.40858855,34.5643238 0.000463961965,32.117218 0.000463961965,29.493493 L0.000463961965,29.493493 Z M22.8171859,12.0372392 C25.0882797,10.7265387 27.9091685,10.7265387 30.1825822,12.0372392 L30.1825822,12.0372392 L41.3687053,18.5047563 C40.8003519,18.7208824 40.2575164,18.9788394 39.7448384,19.2763034 C36.1166558,21.3771426 33.8618006,25.2906527 33.8641204,29.492331 L33.8641204,29.492331 L33.8641204,31.3700722 C33.393199,30.9842986 32.9013993,30.6450038 32.3864015,30.3475399 L32.3864015,30.3475399 L11.6194636,18.3374328 C12.1298218,18.1375742 12.6262611,17.9075044 13.2247721,17.5844772 L13.2247721,17.5844772 L18.0592558,14.8724425 Z M3.6796824,0.96646755 C5.91597911,-0.323317556 8.81342163,-0.320993619 11.0450787,0.96646755 L11.0450787,0.96646755 L22.2404811,7.44328033 C21.6976456,7.6547586 21.1640893,7.898772 20.5725378,8.23341895 L20.5725378,8.23341895 L11.0450787,13.7411499 C8.81806125,15.0286111 5.9136593,15.0262872 3.6796824,13.7434739 L3.6796824,13.7434739 C1.41090836,12.4304494 0.000463961964,9.98101967 0.000463961964,7.35264678 C0.000463961964,4.72659782 1.41090836,2.27949203 3.6796824,0.96646755 Z" id="Combined-Shape"></path>
                </g>
            </g>
        </g>
    </g>
</svg>