<?xml version="1.0" encoding="UTF-8"?>
<svg width="64px" height="64px" viewBox="0 0 64 64" version="1.1" xmlns="http://www.w3.org/2000/svg" xmlns:xlink="http://www.w3.org/1999/xlink">
    <title>chrome-logo</title>
    <defs>
        <radialGradient cx="-0.19022914%" cy="-0.146252285%" fx="-0.19022914%" fy="-0.146252285%" r="137.734544%" gradientTransform="translate(-0.001902,-0.001463),scale(1.000000,0.845704),translate(0.001902,0.001463)" id="radialGradient-1">
            <stop stop-color="#000000" offset="0%"></stop>
            <stop stop-color="#000000" offset="100%"></stop>
        </radialGradient>
        <radialGradient cx="-0.456505199%" cy="-15.9756947%" fx="-0.456505199%" fy="-15.9756947%" r="230.890185%" gradientTransform="translate(-0.004565,-0.159757),scale(1.000000,0.499146),translate(0.004565,0.159757)" id="radialGradient-2">
            <stop stop-color="#000000" offset="0%"></stop>
            <stop stop-color="#000000" offset="100%"></stop>
        </radialGradient>
        <radialGradient cx="-0.860813976%" cy="-0.496102055%" fx="-0.860813976%" fy="-0.496102055%" r="380.014174%" gradientTransform="translate(-0.008608,-0.004961),scale(0.267928,1.000000),translate(0.008608,0.004961)" id="radialGradient-3">
            <stop stop-color="#3E2723" offset="0%"></stop>
            <stop stop-color="#3E2723" offset="100%"></stop>
        </radialGradient>
    </defs>
    <g id="chrome-logo" stroke="none" stroke-width="1" fill="none" fill-rule="evenodd">
        <g id="chrome-copy-2" fill-rule="nonzero">
            <path d="M32.0489617,31.9125683 L32.0489617,31.9125683 L32.0489617,15.9597814 L59.7018579,15.9597814 C54.1814208,5.29311475 43.8994536,-4.77853081e-07 32.0926776,-4.77853081e-07 C20.6872058,-0.00197075949 10.1504122,6.0920305 4.4642623,15.9790164 L18.2469945,39.8898361 L32.0489617,31.9125683 Z" id="Path" fill="#DB4437"></path>
            <path d="M32.0489617,15.9597814 L32.0489617,31.9125683 L32.0489617,31.9125683 L45.8893989,39.8898361 L32.0821858,63.8251366 L32.0821858,63.8251366 C49.7066667,63.8251366 64,49.5387978 64,31.9143169 C64,26.0948634 62.4262295,21.2056831 59.7018579,15.9597814 L32.0489617,15.9597814 Z" id="Path" fill="#FFCD40"></path>
            <path d="M32.0489617,31.9125683 L32.0489617,31.9125683 L18.2539891,39.8898361 L4.45901639,15.9790164 C1.65100341,20.8195336 0.172989381,26.3165393 0.174861608,31.9125683 C0.174861608,49.5370492 14.4646995,63.8251366 32.090929,63.8251366 L45.8876503,39.8898361 L32.0489617,31.9125683 Z" id="Path" fill="#0F9D58"></path>
            <g id="Group" opacity="0.1" transform="translate(4.371585, 15.912568)" fill="url(#radialGradient-1)">
                <g id="Path">
                    <polygon style="mix-blend-mode: multiply;" points="0.0646994536 0.0664480874 20.2876503 20.2911475 13.8998907 23.9790164"></polygon>
                </g>
            </g>
            <g id="Group" opacity="0.1" transform="translate(32.000000, 36.196721)" fill="url(#radialGradient-2)">
                <g id="Path">
                    <polygon style="mix-blend-mode: multiply;" points="0.122404372 27.6336612 7.52437158 0.00699453552 13.9121311 3.69661202"></polygon>
                </g>
            </g>
            <g id="Group" opacity="0.1" transform="translate(32.000000, 15.912568)" fill="url(#radialGradient-3)">
                <g id="Path">
                    <polygon style="mix-blend-mode: multiply;" points="27.7193443 0.0157377049 0.0926775956 7.41770492 0.0944262295 0.0402185792"></polygon>
                </g>
            </g>
            <circle id="Oval" fill="#F1F1F1" cx="32.0926776" cy="31.9125683" r="15.9562842"></circle>
            <circle id="Oval" fill="#4285F4" cx="32.0926776" cy="31.9125683" r="11.7018579"></circle>
            <g id="Group" opacity="0.04" style="mix-blend-mode: multiply;" fill="#000000">
                <path d="M32.0926776,0.087370975 C44.9701835,0.0759433705 56.5844652,7.82891328 61.5124095,19.7262093 C66.4403539,31.6235054 63.7098427,45.3181902 54.595847,54.4157377 C45.510516,63.4894265 31.8624259,66.2145203 19.9892007,61.3255952 C8.11597541,56.43667 0.343793814,44.8915545 0.281370181,32.0513357 C0.219694871,19.211117 7.87993414,7.59142536 19.7053552,2.58797814 C23.6241878,0.929585395 27.8373931,0.0790936436 32.0926776,0.087370975 M32.0926776,-4.34251432e-07 C19.1847714,-0.00212184762 7.54668107,7.77178037 2.60556891,19.6965218 C-2.33554325,31.6212631 0.393465616,45.3482881 9.51998346,54.4763064 C18.6465013,63.6043247 32.3730774,66.3355902 44.2986309,61.3964385 C56.2241844,56.4572868 64,44.8204747 64,31.9125683 C64,14.289792 49.7154537,0.00289689474 32.0926776,-4.34251432e-07 Z" id="Shape"></path>
            </g>
        </g>
    </g>
</svg>