<?xml version="1.0" encoding="UTF-8"?>
<svg width="18px" height="18px" viewBox="0 0 18 18" version="1.1" xmlns="http://www.w3.org/2000/svg" xmlns:xlink="http://www.w3.org/1999/xlink">
    <title>message-icon</title>
    <g id="Symbols" stroke="none" stroke-width="1" fill="none" fill-rule="evenodd">
        <g id="make-it-yours-red" transform="translate(-545.000000, -427.000000)" fill="#8D98A7">
            <g id="message-icon" transform="translate(545.000000, 427.000000)">
                <path d="M13.3178495,10.447875 C12.5190995,10.447875 11.8699745,9.799875 11.8699745,9 C11.8699745,8.200125 12.5190995,7.552125 13.3178495,7.552125 C14.1177245,7.552125 14.7657245,8.200125 14.7657245,9 C14.7657245,9.799875 14.1177245,10.447875 13.3178495,10.447875 M9.00009951,10.447875 C8.20022451,10.447875 7.55222451,9.799875 7.55222451,9 C7.55222451,8.200125 8.20022451,7.552125 9.00009951,7.552125 C9.79997451,7.552125 10.4479745,8.200125 10.4479745,9 C10.4479745,9.799875 9.79997451,10.447875 9.00009951,10.447875 M4.68234951,10.447875 C3.88247451,10.447875 3.23447451,9.799875 3.23447451,9 C3.23447451,8.200125 3.88247451,7.552125 4.68234951,7.552125 C5.48222451,7.552125 6.13022451,8.200125 6.13022451,9 C6.13022451,9.799875 5.48222451,10.447875 4.68234951,10.447875 M17.3014745,5.5125 C16.8469745,4.433625 16.1967245,3.465 15.3664745,2.633625 C14.5418495,1.80675 13.5642245,1.14975 12.4875995,0.698625 C11.3828495,0.235125 10.2094745,0 9.00009951,0 L8.95959951,0 C7.74234951,0.00675 6.56334951,0.2475 5.45409951,0.721125 C4.38759951,1.17675 3.41784951,1.834875 2.60222451,2.660625 C1.78097451,3.48975 1.13522451,4.453875 0.689724514,5.52825 C0.227349514,6.642 -0.00552548642,7.824375 -6.57252031e-14,9.041625 C0.00684951358,10.43775 0.337599514,11.811375 0.965349514,13.057875 L0.965349514,16.11225 C0.965349514,16.621875 1.37822451,17.035875 1.88897451,17.035875 L4.94447451,17.035875 C6.19097451,17.663625 7.56459951,17.99325 8.95959951,18 L9.00234951,18 C10.2049745,18 11.3727245,17.767125 12.4718495,17.3115 C13.5428495,16.866 14.5170995,16.21575 15.3405995,15.397875 C16.1697245,14.576625 16.8233495,13.615875 17.2789745,12.546 C17.7525995,11.43675 17.9944745,10.25775 18.0001976,9.0405 C18.0057245,7.8165 17.7694745,6.629625 17.3014745,5.5125" id="Fill-1"></path>
            </g>
        </g>
    </g>
</svg>