<?xml version="1.0" encoding="UTF-8"?>
<svg width="16px" height="22px" viewBox="0 0 16 22" version="1.1" xmlns="http://www.w3.org/2000/svg" xmlns:xlink="http://www.w3.org/1999/xlink">
    <title>mute-icon</title>
    <g id="Symbols" stroke="none" stroke-width="1" fill="none" fill-rule="evenodd">
        <g id="make-it-yours-red" transform="translate(-732.000000, -425.000000)" fill="#C10011" fill-rule="nonzero">
            <path d="M740.496304,425.086957 C742.241044,425.086957 743.655435,426.501347 743.655435,428.246087 L743.655435,428.246087 L743.655,430.244957 L745.792893,428.108111 C746.183418,427.717586 746.816582,427.717586 747.207107,428.108111 C747.567591,428.468595 747.59532,429.035826 747.290295,429.428117 L747.207107,429.522324 L743.655,433.073957 L743.655435,435.518478 C743.655435,437.203054 742.336906,438.579672 740.675572,438.672608 L740.496304,438.677609 L740.09,438.677609 C739.505261,438.677609 738.957627,438.518742 738.487906,438.241817 L737.58736,439.142691 C738.350506,439.680864 739.281492,439.996957 740.286304,439.996957 C742.803752,439.996957 744.857787,438.01285 744.969958,435.52309 L744.974783,435.308478 L744.974783,433.637609 C744.974783,433.133349 745.383566,432.724565 745.887826,432.724565 C746.356068,432.724565 746.741985,433.077037 746.794727,433.531129 L746.80087,433.637609 L746.80087,435.308478 C746.80087,438.597648 744.363268,441.317484 741.196022,441.76003 L741.199348,441.823043 L741.199348,445.543696 C741.199348,446.047956 740.790564,446.456739 740.286304,446.456739 C739.818063,446.456739 739.432146,446.104268 739.379404,445.650176 L739.373261,445.543696 L739.373261,441.823043 L739.377582,441.760169 C738.221013,441.598749 737.161706,441.133667 736.282815,440.448076 L734.207107,442.522324 C733.816582,442.912848 733.183418,442.912848 732.792893,442.522324 C732.432409,442.16184 732.40468,441.594609 732.709705,441.202318 L732.792893,441.108111 L734.910931,438.989911 C734.233409,438.002536 733.820868,436.819096 733.775851,435.542135 L733.771739,435.308478 L733.771739,433.637609 C733.771739,433.133349 734.180523,432.724565 734.684783,432.724565 C735.153024,432.724565 735.538941,433.077037 735.591683,433.531129 L735.597826,433.637609 L735.597826,435.308478 C735.597826,436.168743 735.829516,436.974893 736.233901,437.667933 L737.171551,436.73008 C737.016478,436.356969 736.93087,435.947721 736.93087,435.518478 L736.93087,435.518478 L736.93087,428.246087 C736.93087,426.501347 738.34526,425.086957 740.09,425.086957 L740.09,425.086957 Z" id="mute-icon"></path>
        </g>
    </g>
</svg>