<?xml version="1.0" encoding="UTF-8"?>
<svg width="40px" height="40px" viewBox="0 0 40 40" version="1.1" xmlns="http://www.w3.org/2000/svg" xmlns:xlink="http://www.w3.org/1999/xlink">
    <title>twitter-icon</title>
    <g id="Symbols" stroke="none" stroke-width="1" fill="none" fill-rule="evenodd">
        <g id="make-it-yours-red" transform="translate(-667.000000, -611.000000)">
            <g id="twitter-icon" transform="translate(667.000000, 611.000000)">
                <rect id="Rectangle-Copy-2" fill="#8B98A9" x="0" y="0" width="40" height="40" rx="20"></rect>
                <path d="M17.031872,27 C23.069888,27 26.371776,21.9990009 26.371776,17.6625324 C26.371776,17.5204254 26.368896,17.3789584 26.362368,17.2382591 C27.003264,16.7750839 27.560448,16.1971227 28,15.5390544 C27.411776,15.8002343 26.778816,15.9763163 26.114816,16.0556556 C26.792576,15.6494896 27.312896,15.0065854 27.558272,14.2403213 C26.923904,14.6162232 26.221632,14.8896239 25.47392,15.0368495 C24.874944,14.3989999 24.021824,14 23.077824,14 C21.264832,14 19.794688,15.4697605 19.794688,17.2815758 C19.794688,17.5391725 19.823552,17.7895392 19.879808,18.0298605 C17.15168,17.8927443 14.73248,16.586781 13.1136,14.6010592 C12.831424,15.0859247 12.669056,15.6494896 12.669056,16.2504848 C12.669056,17.3891317 13.248576,18.3942454 14.129792,18.982252 C13.591424,18.9656803 13.085504,18.8177509 12.643072,18.5716711 C12.642304,18.5853636 12.642304,18.59912 12.642304,18.6135162 C12.642304,20.2031175 13.774016,21.5300032 15.275904,21.8309167 C15.000256,21.9059052 14.71008,21.9463426 14.41056,21.9463426 C14.199104,21.9463426 13.993408,21.9254201 13.793472,21.8871581 C14.211392,23.1910099 15.423168,24.1398183 16.860096,24.1665633 C15.736384,25.0467816 14.321088,25.5713168 12.783104,25.5713168 C12.518208,25.5713168 12.25696,25.5562167 12,25.5258886 C13.452864,26.4566538 15.177792,27 17.031872,27" id="Fill-1" fill="#FFFFFF"></path>
            </g>
        </g>
    </g>
</svg>