<?xml version="1.0" encoding="UTF-8"?>
<svg width="64px" height="64px" viewBox="0 0 64 64" version="1.1" xmlns="http://www.w3.org/2000/svg" xmlns:xlink="http://www.w3.org/1999/xlink">
    <title>answerdash-logo-products-asset</title>
    <g id="answerdash-logo-products-asset" stroke="none" stroke-width="1" fill="none" fill-rule="evenodd">
        <path d="M27.2122628,46.046252 C37.0786099,46.046252 45.7238086,47.9101907 51.9159718,50.9339137 C51.7753454,51.382384 51.3596027,51.7551718 50.7807333,51.7792061 C49.2609457,51.8421044 47.7012712,51.8364794 46.0955736,51.7587513 C40.2240386,55.3971394 33.4003351,57.5883542 26.6098705,57.5883542 C17.9759219,57.5883542 11.227901,54.049683 7.56598997,48.4870146 C13.6640613,46.9385903 20.3906048,46.046252 27.2122628,46.046252 Z M39.8447053,6.02173317 L9.60849871,39.354277 C14.3857048,37.3435754 20.08542,35.9444707 24.1139823,35.5000914 L24.1139823,35.5000914 L37.2070657,21.0667107 L44.4352618,41.2069657 C40.4409611,40.4624129 36.0667136,40.0594544 31.3871789,40.0594544 C20.0849086,40.0594544 9.27355223,42.3958979 0.5,46.2863907 C1.21080245,44.4654069 3.70423607,42.5135127 4.86862253,41.7812327 C4.29231004,38.7089298 4.42782274,35.3369648 5.39891184,31.7942026 C9.22855179,17.8236106 24.5241,6.4553738 39.8447053,6.02173317 L39.8447053,6.02173317 Z M40.7504415,6 C56.369686,6 65.8663136,17.5482386 61.9615024,31.793947 C60.7147856,36.3420599 58.2346476,40.6027836 54.9511494,44.3117406 C54.6744989,44.193103 54.376371,44.0887838 54.0925614,43.9747486 L54.0925614,43.9747486 L40.4656091,6.00664779 L40.4656091,6.00664779 L40.7279412,6.00051137 L40.7279412,6.00051137 Z" id="Combined-Shape" fill="#F8EFE2"></path>
    </g>
</svg>