<?xml version="1.0" encoding="UTF-8"?>
<svg width="64px" height="64px" viewBox="0 0 64 64" version="1.1" xmlns="http://www.w3.org/2000/svg" xmlns:xlink="http://www.w3.org/1999/xlink">
    <title>chordconnect-logo-products-asset</title>
    <g id="chordconnect-logo-products-asset" stroke="none" stroke-width="1" fill="none" fill-rule="evenodd">
        <path d="M52.3504837,0.0019869281 L52.3401811,0.174849673 C52.3288482,0.291857662 52.3107451,0.410631808 52.2988235,0.520575163 L52.2988235,0.520575163 L52.2913503,0.589767359 C52.2444612,0.994205839 52.0378736,2.4844549 52.0286013,2.71811765 L52.0286013,2.71811765 L52.02025,3.14490359 C52.0186667,3.57063399 52.0380392,3.99273203 52.0842353,4.40700654 L52.0842353,4.40700654 L52.1179966,4.67304061 C52.2941874,5.90919483 52.7336959,7.06180741 53.5366797,7.76094118 L53.5366797,7.76094118 L53.5396962,7.76399089 L53.563285,7.78819256 C54.0697814,8.31220996 61.5780427,16.3108253 56.2269804,24.6120784 L56.2269804,24.6120784 L56.2208494,24.6213908 C56.0868177,24.8245027 53.783351,28.2918693 52.0882092,29.2753987 L52.0882092,29.2753987 C52.0348438,29.2872489 51.4708792,29.3902086 51.9213072,28.2878954 L51.9213072,28.2878954 C52.0919277,28.1053332 57.2391921,22.5287202 55.4739346,15.919268 L55.4739346,15.919268 C55.3940233,15.7232116 54.1046401,12.6130798 52.1239739,11.2162092 L52.1239739,11.2162092 L52.2153725,12.0248889 L52.1772391,12.6893666 C51.4349676,24.583889 47.6985431,32.9112604 44.6650458,37.835085 L44.6650458,37.835085 L44.3826536,38.2844412 C44.1010065,38.7272157 43.8215948,39.1504314 43.5444183,39.5557647 L43.5444183,39.5557647 L43.4787702,40.1848738 C43.3862588,41.0310191 43.2734013,41.9059033 43.1351111,42.8024052 L43.1351111,42.8024052 L43.0710477,43.2112001 C42.1007438,49.2587912 39.7647954,57.5571567 34.1482353,63.5816993 L34.1482353,63.5816993 L30.3253856,60.0787451 L30.692027,59.67514 C32.5110279,57.6198871 33.908024,55.2384262 34.9808863,52.7959653 C32.3776072,54.251582 29.3341513,55.2851658 26.087268,55.7929412 L26.087268,55.7929412 L25.4371622,55.8861638 C23.921299,56.0864788 22.414183,56.1662353 20.945098,56.1227712 L20.945098,56.1227712 L20.3674026,56.1008675 C17.4891703,55.9600993 14.7689804,55.351098 12.4032941,54.2967843 L12.4032941,54.2967843 L12.0526892,54.1366539 C8.12242913,52.2906438 5.66726723,49.388788 5.11524183,45.9338039 L5.11524183,45.9338039 L5.06057371,45.5339898 C4.98427015,44.8669891 4.98178649,44.1972288 5.0496732,43.5316078 L5.0496732,43.5316078 L5.32073366,43.9425605 C5.59893464,44.3517124 5.8980915,44.7555556 6.21401307,45.1549281 L6.21401307,45.1549281 L6.56498669,45.5849945 C7.99520594,47.2922044 9.73928205,48.8414439 11.7237647,50.1858301 L11.7237647,50.1858301 L11.7314641,50.1766405 L11.7314641,50.1766405 L11.7376732,50.1659608 L12.1086724,50.4076189 C12.6147827,50.7244465 13.1666719,51.0191477 13.7643399,51.2846013 L13.7643399,51.2846013 L14.149939,51.4499026 C17.3952276,52.7891997 21.430367,53.172183 25.5647059,52.5264314 L25.5647059,52.5264314 L26.2328289,52.4127349 C26.6758402,52.3314916 27.1138475,52.2396514 27.5456732,52.1389804 L27.5456732,52.1389804 L27.5218301,52.1389804 L26.9225953,52.0999881 C24.7195577,51.9306151 22.4551634,51.4708758 20.2258301,50.7223007 L20.2258301,50.7223007 L19.7378418,50.5538953 C15.2063464,48.9452498 11.3285716,46.3098129 8.7751634,43.0964706 L8.7751634,43.0964706 L8.53254433,42.7838463 C5.91800032,39.3370892 5.09584006,35.6364321 6.22593464,32.3213595 L6.22593464,32.3213595 L6.36002124,31.9532966 C6.69013072,31.1032484 7.1404183,30.3148105 7.70023529,29.5933072 L7.70023529,29.5933072 L7.74880465,30.1388293 C7.78589397,30.5044241 7.83269717,30.8735512 7.89098039,31.2444444 L7.89098039,31.2444444 L7.9875288,31.8046029 C8.23111765,33.1128709 8.60230065,34.4287451 9.08909804,35.7309281 L9.08909804,35.7309281 L9.11569651,36.0346486 C9.29464541,37.6603109 10.066316,39.3763568 11.3959216,41.0519216 L11.3959216,41.0519216 L11.6512132,41.3641827 C13.9081727,44.0519268 17.3129935,46.2532578 21.2908235,47.5849412 L21.2908235,47.5849412 L21.8734226,47.7747802 C22.651154,48.0172173 23.4319373,48.2171817 24.207634,48.3777255 L24.207634,48.3777255 L23.7244349,48.1017321 C21.4772504,46.7832643 19.3416471,45.0398187 17.4500915,42.9553987 L17.4500915,42.9553987 L17.108437,42.5724528 C13.9578137,38.9773371 11.8798413,34.8040604 11.2429281,30.7715556 L11.2429281,30.7715556 L11.1857128,30.3818275 C10.6076749,26.1143198 11.7216609,22.4967013 14.340549,20.1593725 C16.1824314,18.5141961 18.5846275,17.6717386 21.3166536,17.6717386 L21.3166536,17.6717386 L21.7952433,17.6802218 C22.9193595,17.7198284 24.0946275,17.8982484 25.3064052,18.2181438 L25.3064052,18.2181438 L25.7330345,18.3358442 C29.7138654,19.4852794 33.6573955,22.0546964 36.8822484,25.6095163 L36.8822484,25.6095163 L37.2241015,25.9926607 C39.214167,28.2633254 40.7760743,30.7636851 41.8180398,33.3133222 L43.717281,27.9918431 L43.7897631,27.8002158 C45.0121192,24.5556497 48.0982588,15.7426698 49.8409935,8.64711111 L49.8409935,8.64711111 L49.9217124,8.10666667 L49.9217124,8.10666667 L50.0039216,7.56622222 L50.2214902,6.11253595 L50.2214902,6.11253595 L50.4390588,4.65735948 L50.6064575,3.5456732 L50.6064575,3.5456732 L50.7708758,2.43398693 L50.7826533,2.35595293 C50.8419288,1.96064186 51.0036303,0.853243697 51.0848105,0.244392157 L51.0848105,0.244392157 L52.3504837,0.0019869281 Z M26.4238756,33.1285273 C25.1478159,33.1265114 23.83693,33.2262633 22.5187451,33.4340392 L22.5187451,33.4340392 L21.9532318,33.5284321 C19.8899702,33.896345 17.9421874,34.5030065 16.1864052,35.3116863 L16.1864052,35.3116863 L16.425837,35.7822732 C17.3291511,37.5045374 18.5104488,39.1886797 19.923817,40.7459346 L19.923817,40.7459346 L20.2504251,41.0986296 C23.102564,44.12178 26.5071721,46.2680494 29.8823007,47.1577516 C30.977098,47.4458562 32.0202353,47.588915 32.9918431,47.588915 L32.9918431,47.588915 L33.3269776,47.5831654 C34.7886811,47.5325928 36.0797365,47.1486856 37.1294652,46.4426036 L39.5047716,39.7892957 C38.8778771,37.6938863 37.0660828,35.8994687 34.3171242,34.6758693 L34.3171242,34.6758693 L33.8875315,34.4923902 C31.860707,33.6626772 29.5290248,33.2047477 27.0588758,33.1379869 L27.0588758,33.1379869 Z M20.6018476,27.9787079 C18.8682491,27.9302812 17.2031705,28.1004017 15.667817,28.4905621 L15.667817,28.4905621 L15.2287795,28.6115439 C14.9401598,28.695878 14.6597821,28.7872767 14.3882353,28.8839739 L14.3882353,28.8839739 L14.4201733,29.3341235 C14.4469601,29.6374611 14.4849325,29.9469804 14.535268,30.260915 C14.6385882,30.9126275 14.7876078,31.5683137 14.9783529,32.2259869 L14.9783529,32.2259869 L15.5199415,31.9901462 C17.522504,31.1459121 19.7069107,30.5283224 21.9981699,30.1695163 L21.9981699,30.1695163 L22.6409883,30.0765378 C24.9960581,29.7625824 27.32678,29.744976 29.5306144,30.0145359 L29.5306144,30.0145359 L29.041116,29.8089199 C28.5479542,29.6078366 28.0438954,29.4204444 27.5297778,29.2475817 L27.5297778,29.2475817 L26.9434862,29.0588638 C24.9877578,28.4546496 23.0205348,28.0991373 21.1239216,27.9997908 L21.1239216,27.9997908 Z M24.1191742,21.3231563 C21.0094877,20.5818298 18.3386595,21.0363615 16.5698824,22.6152157 C15.7810719,23.3185882 15.198902,24.2246275 14.8313203,25.287634 L14.8313203,25.287634 L14.8352941,25.287634 L15.2815445,25.1795466 C19.3227282,24.2532453 24.0271783,24.581423 28.5967582,26.1141961 L28.5967582,26.1141961 L29.1613177,26.3095173 C31.7802939,27.2459238 34.1773769,28.5288436 36.2265621,30.0661961 L36.2265621,30.0661961 L35.8887048,29.6060871 C35.429645,28.9959571 34.936251,28.3995608 34.4085229,27.8209673 L34.4085229,27.8209673 L34.0692625,27.4546582 C31.219856,24.4370818 27.8222383,22.2993705 24.4540131,21.4071634 L24.4540131,21.4071634 Z" id="Combined-Shape" fill="#F8EFE2"></path>
    </g>
</svg>