<?xml version="1.0" encoding="UTF-8"?>
<svg width="263px" height="37px" viewBox="0 0 263 37" version="1.1" xmlns="http://www.w3.org/2000/svg" xmlns:xlink="http://www.w3.org/1999/xlink">
    <!-- Generator: Sketch 58 (84663) - https://sketch.com -->
    <title> Logo / Blue</title>
    <desc>Created with Sketch.</desc>
    <g id="🚀-Cumulus" stroke="none" stroke-width="1" fill="none" fill-rule="evenodd">
        <g id="Buttons" transform="translate(-190.000000, -2126.000000)">
            <g id="-Logo-/-Blue" transform="translate(189.000000, 2126.000000)">
                <g id="Group-2" transform="translate(0.999529, 0.000000)">
                    <g id="Group" fill="#1F7697">
                        <polyline id="Fill-13" points="29.2840331 14.9922617 29.2840331 8.31739252 66.4855376 8.31739252 66.4855376 36.8321168 29.2840331 36.8321168 29.2840331 30.573757 31.7997114 30.573757 31.7997114 34.3199206 63.9705517 34.3199206 63.9705517 10.8299346 31.7997114 10.8299346 31.7997114 14.9922617 29.2840331 14.9922617"></polyline>
                        <path d="M17.6990686,21.5684065 L50.7624181,21.5684065 L50.7624181,2.51254206 L17.6990686,2.51254206 L17.6990686,21.5684065 Z M15.1833903,24.0809486 L53.2775771,24.0809486 L53.2775771,-2.59348099e-13 L15.1833903,-2.59348099e-13 L15.1833903,24.0809486 Z" id="Fill-14"></path>
                        <path d="M2.51602455,28.0606963 L40.0261683,28.0606963 L40.0261683,17.5048037 L2.51602455,17.5048037 L2.51602455,28.0606963 Z M2.84217094e-14,30.573757 L42.5416736,30.573757 L42.5416736,14.9922617 L2.84217094e-14,14.9922617 L2.84217094e-14,30.573757 Z" id="Fill-15"></path>
                    </g>
                    <g id="Group" transform="translate(82.000000, 3.000000)" fill="#177EA5">
                        <path d="M-4.4408921e-16,19.185379 L-4.4408921e-16,11.9444957 C-4.4408921e-16,10.0271983 1.14223446,8.32482935 2.94877175,7.60126826 C4.75530904,6.8764666 6.74632225,7.27499896 8.18580301,8.6145019 C8.36838363,8.8312911 8.47925871,9.08436691 8.47925871,9.40970578 C8.47925871,9.70092904 8.36838363,9.95431499 8.18580301,10.1717245 C7.96342108,10.3519169 7.70566021,10.4604666 7.37335085,10.4604666 C7.0789475,10.4604666 6.82118662,10.3519169 6.59975235,10.1717245 C5.86184867,9.40970578 4.79258329,9.19384701 3.79660285,9.59082866 C2.80157007,9.98998131 2.21149984,10.9309519 2.21149984,11.9444957 L2.21149984,19.185379 C2.21149984,20.1986127 2.80157007,21.1398934 3.79660285,21.5393562 C4.79258329,21.9360277 5.86184867,21.7186182 6.59975235,20.9950571 C6.82118662,20.7776476 7.0789475,20.6694081 7.37335085,20.6694081 C7.70566021,20.6694081 7.96342108,20.7776476 8.18580301,20.9950571 C8.36838363,21.1758699 8.47925871,21.4289457 8.47925871,21.755215 C8.47925871,22.0455078 8.36838363,22.2988937 8.18580301,22.5163032 C6.74632225,23.8548757 4.75530904,24.2534081 2.94877175,23.5289166 C1.14223446,22.8050453 -4.4408921e-16,21.1042271 -4.4408921e-16,19.185379" id="Fill-1"></path>
                        <path d="M16.1767059,20.3074725 L16.1767059,1.08549671 C16.1767059,0.468934579 16.6925436,2.84217094e-14 17.2832456,2.84217094e-14 C17.9102742,2.84217094e-14 18.3882058,0.468934579 18.3882058,1.08549671 L18.3882058,20.3074725 C18.3882058,20.9950571 18.7584212,21.5393562 19.3121648,21.8643849 C19.864329,22.1543676 20.0494367,22.8050453 19.7171273,23.3493444 C19.4217763,23.8908522 18.7584212,24.0356885 18.2056252,23.7463261 C16.9882105,23.0224548 16.1767059,21.7186182 16.1767059,20.3074725" id="Fill-2"></path>
                        <path d="M29.6090167,11.9444957 L29.6090167,19.185379 C29.6090167,20.5977653 30.7525147,21.7186182 32.1888366,21.7186182 C33.626738,21.7186182 34.7705518,20.5977653 34.7705518,19.185379 L34.7705518,11.9444957 C34.7705518,10.5333499 33.626738,9.40970578 32.1888366,9.40970578 C30.7525147,9.40970578 29.6090167,10.5333499 29.6090167,11.9444957 Z M27.3965692,19.185379 L27.3965692,11.9444957 C27.3965692,9.33744271 29.5344682,7.23933264 32.1888366,7.23933264 C34.8071943,7.23933264 36.9826835,9.33744271 36.9826835,11.9444957 L36.9826835,19.185379 C36.9826835,21.792432 34.8071943,23.8908522 32.1888366,23.8908522 C29.5344682,23.8908522 27.3965692,21.792432 27.3965692,19.185379 L27.3965692,19.185379 Z" id="Fill-3"></path>
                        <path d="M45.1817536,19.0402326 L45.1817536,8.32482935 C45.1817536,7.70981793 45.6606328,7.23933264 46.2867138,7.23933264 C46.9150059,7.23933264 47.3942011,7.70981793 47.3942011,8.32482935 L47.3942011,19.0402326 C47.3942011,20.4519986 48.5361196,21.5740921 49.9743369,21.5740921 L52.5560521,21.5740921 L52.5560521,8.32482935 C52.5560521,7.70981793 53.0355631,7.23933264 53.661644,7.23933264 C54.2880409,7.23933264 54.7675519,7.70981793 54.7675519,8.32482935 L54.7675519,22.6598989 C54.7675519,23.2755306 54.2880409,23.7463261 53.661644,23.7463261 L49.9743369,23.7463261 C47.3199685,23.7463261 45.1817536,21.6479058 45.1817536,19.0402326" id="Fill-4"></path>
                        <path d="M65.632994,12.0896421 L65.632994,19.0402326 C65.632994,20.4519986 66.7758602,21.5740921 68.2137615,21.5740921 L70.7938973,21.5740921 L70.7938973,9.55640291 L68.2137615,9.55640291 C66.7758602,9.55640291 65.632994,10.6781862 65.632994,12.0896421 Z M63.4208624,19.0402326 L63.4208624,12.0896421 C63.4208624,9.48351956 65.5593932,7.38354863 68.2137615,7.38354863 L70.7938973,7.38354863 L70.7938973,1.08549671 C70.7938973,0.468934579 71.2749878,-6.83897383e-13 71.900437,-6.83897383e-13 C72.4905072,-6.83897383e-13 73.0069766,0.468934579 73.0069766,1.08549671 L73.0069766,22.6598989 C73.0069766,23.2755306 72.4905072,23.7463261 71.900437,23.7463261 L68.2137615,23.7463261 C65.5593932,23.7463261 63.4208624,21.6479058 63.4208624,19.0402326 L63.4208624,19.0402326 Z" id="Fill-5"></path>
                        <path d="M84.0316239,11.9444957 L84.0316239,14.4783551 L89.1925273,14.4783551 L89.1925273,11.9444957 C89.1925273,10.5333499 88.0493452,9.40970578 86.6130233,9.40970578 C85.1735425,9.40970578 84.0316239,10.5333499 84.0316239,11.9444957 Z M81.8191764,19.185379 L81.8191764,11.9444957 C81.8191764,9.33744271 83.9561278,7.23933264 86.6130233,7.23933264 C89.2677075,7.23933264 91.4046589,9.33744271 91.4046589,11.9444957 L91.4046589,15.5657127 C91.4046589,16.1807241 90.9254637,16.6515196 90.298751,16.6515196 L84.0316239,16.6515196 L84.0316239,19.185379 C84.0316239,20.1986127 84.6216942,21.1398934 85.6173587,21.5393562 C86.6130233,21.9360277 87.6807092,21.7186182 88.4179811,20.9950571 C88.6397313,20.7776476 88.8974922,20.6694081 89.1925273,20.6694081 C89.5254684,20.6694081 89.7825975,20.7776476 90.0046636,20.9950571 C90.2264137,21.1758699 90.3363412,21.4289457 90.3363412,21.755215 C90.3363412,22.0455078 90.2264137,22.2988937 90.0046636,22.5163032 C88.6397313,23.8548757 86.5751172,24.2534081 84.7688958,23.5289166 C82.9620427,22.8050453 81.8191764,21.1042271 81.8191764,19.185379 L81.8191764,19.185379 Z" id="Fill-6"></path>
                        <path d="M99.9669949,22.8050453 L99.9669949,8.46997577 C99.9669949,7.85434406 100.44619,7.38354863 101.073535,7.38354863 L104.761158,7.38354863 C107.379199,7.38354863 109.554057,9.48351956 109.554057,12.0896421 L109.554057,22.8050453 C109.554057,23.4216075 109.036956,23.8908522 108.448465,23.8908522 C107.820173,23.8908522 107.341925,23.4216075 107.341925,22.8050453 L107.341925,12.0896421 C107.341925,10.6781862 106.198743,9.55640291 104.761158,9.55640291 L102.179127,9.55640291 L102.179127,22.8050453 C102.179127,23.4216075 101.663605,23.8908522 101.073535,23.8908522 C100.44619,23.8908522 99.9669949,23.4216075 99.9669949,22.8050453" id="Fill-7"></path>
                        <path d="M120.282405,12.0896421 L120.282405,19.0402326 C120.282405,20.4519986 121.426219,21.5740921 122.864121,21.5740921 L125.444256,21.5740921 L125.444256,9.55640291 L122.864121,9.55640291 C121.426219,9.55640291 120.282405,10.6781862 120.282405,12.0896421 Z M118.070906,19.0402326 L118.070906,12.0896421 C118.070906,9.48351956 120.208173,7.38354863 122.864121,7.38354863 L126.550164,7.38354863 C127.177509,7.38354863 127.656704,7.85434406 127.656704,8.46997577 L127.656704,26.4253319 C127.656704,28.3451104 126.513838,30.0459287 124.7073,30.7688695 C122.900447,31.4927407 120.910698,31.0951388 119.471217,29.7556359 C119.251362,29.5382264 119.141119,29.2848404 119.141119,28.9585711 C119.141119,28.6692087 119.251362,28.4164431 119.471217,28.2356303 C119.692651,28.0182208 119.95136,27.9096712 120.246079,27.9096712 C120.577756,27.9096712 120.836149,28.0182208 121.057268,28.2356303 C121.794855,28.9585711 122.864121,29.1762908 123.860417,28.7783787 C124.854502,28.379226 125.444256,27.4379453 125.444256,26.4253319 L125.444256,23.7463261 L122.864121,23.7463261 C120.208173,23.7463261 118.070906,21.6479058 118.070906,19.0402326 L118.070906,19.0402326 Z" id="Fill-8"></path>
                        <path d="M140.12715,21.5740921 L142.707917,21.5740921 L142.707917,16.5069934 L140.12715,16.5069934 C138.688933,16.5069934 137.547014,17.6281565 137.547014,19.0402326 C137.547014,20.4519986 138.688933,21.5740921 140.12715,21.5740921 Z M142.707917,11.873163 C142.707917,10.8596192 142.08152,9.98998131 141.160089,9.59082866 C140.164108,9.19384701 139.131169,9.40970578 138.431172,10.1345074 C138.209737,10.3519169 137.951976,10.4604666 137.619667,10.4604666 C137.324632,10.4604666 137.066871,10.3519169 136.845121,10.1345074 C136.624003,9.91833853 136.514707,9.66371201 136.514707,9.37465974 C136.514707,9.04963101 136.624003,8.79562478 136.845121,8.6145019 C138.209737,7.27499896 140.237709,6.8764666 142.00792,7.60126826 C143.777183,8.32482935 144.920681,9.98998131 144.920681,11.873163 L144.920681,22.6598989 C144.920681,23.2755306 144.404527,23.7463261 143.813825,23.7463261 L140.12715,23.7463261 C137.471518,23.7463261 135.332987,21.6479058 135.332987,19.0402326 C135.332987,16.4341101 137.471518,14.3341391 140.12715,14.3341391 L142.707917,14.3341391 L142.707917,11.873163 L142.707917,11.873163 Z" id="Fill-9"></path>
                        <path d="M155.379265,12.0896421 L155.379265,19.0402326 C155.379265,20.4519986 156.521183,21.5740921 157.960032,21.5740921 L160.5408,21.5740921 L160.5408,9.55640291 L157.960032,9.55640291 C156.521183,9.55640291 155.379265,10.6781862 155.379265,12.0896421 Z M153.167449,19.0402326 L153.167449,12.0896421 C153.167449,9.48351956 155.304716,7.38354863 157.960032,7.38354863 L161.646708,7.38354863 C162.273105,7.38354863 162.753879,7.85434406 162.753879,8.46997577 L162.753879,26.4253319 C162.753879,28.3451104 161.609118,30.0459287 159.803844,30.7688695 C157.995411,31.4927407 156.005346,31.0951388 154.567445,29.7556359 C154.34601,29.5382264 154.235451,29.2848404 154.235451,28.9585711 C154.235451,28.6692087 154.34601,28.4164431 154.567445,28.2356303 C154.789195,28.0182208 155.046956,27.9096712 155.342622,27.9096712 C155.674616,27.9096712 155.932061,28.0182208 156.152548,28.2356303 C156.889819,28.9585711 157.960032,29.1762908 158.955697,28.7783787 C159.95073,28.379226 160.5408,27.4379453 160.5408,26.4253319 L160.5408,23.7463261 L157.960032,23.7463261 C155.304716,23.7463261 153.167449,21.6479058 153.167449,19.0402326 L153.167449,19.0402326 Z" id="Fill-10"></path>
                        <path d="M173.196985,11.9444957 L173.196985,14.4783551 L178.358836,14.4783551 L178.358836,11.9444957 C178.358836,10.5333499 177.21597,9.40970578 175.777753,9.40970578 C174.338904,9.40970578 173.196985,10.5333499 173.196985,11.9444957 Z M170.984538,19.185379 L170.984538,11.9444957 C170.984538,9.33744271 173.121805,7.23933264 175.777753,7.23933264 C178.432121,7.23933264 180.572863,9.33744271 180.572863,11.9444957 L180.572863,15.5657127 C180.572863,16.1807241 180.091773,16.6515196 179.465376,16.6515196 L173.196985,16.6515196 L173.196985,19.185379 C173.196985,20.1986127 173.787055,21.1398934 174.783036,21.5393562 C175.777753,21.9360277 176.847334,21.7186182 177.584606,20.9950571 C177.80604,20.7776476 178.063801,20.6694081 178.358836,20.6694081 C178.690198,20.6694081 178.949538,20.7776476 179.169393,20.9950571 C179.390827,21.1758699 179.501702,21.4289457 179.501702,21.755215 C179.501702,22.0455078 179.390827,22.2988937 179.169393,22.5163032 C177.80604,23.8548757 175.740794,24.2534081 173.934889,23.5289166 C172.127404,22.8050453 170.984538,21.1042271 170.984538,19.185379 L170.984538,19.185379 Z" id="Fill-12"></path>
                    </g>
                </g>
            </g>
        </g>
    </g>
</svg>