<?xml version="1.0" encoding="UTF-8"?>
<svg width="434px" height="440px" viewBox="0 0 434 440" version="1.1" xmlns="http://www.w3.org/2000/svg" xmlns:xlink="http://www.w3.org/1999/xlink">
    <title>google-icon</title>
    <g id="Page-1" stroke="none" stroke-width="1" fill="none" fill-rule="evenodd">
        <g id="google-icon" fill-rule="nonzero">
            <path d="M429.99,188.419 C432.03,199.69 433.45,210.51 433.45,225.15 C433.45,294.049 407.55,352.04 363.189,390.339 L304.649,331.799 C330.589,310.919 342.509,282.589 345.45,264.089 L230.55,264.089 L230.55,188.419 L429.99,188.419 L429.99,188.419 Z" id="Path" fill="#3B7DED"></path>
            <path d="M368.07,57.57 L308.189,115.15 C242.83,52.08 130.589,81.17 95.219,164.37 L34,103.15 C72.87,41.14 141.81,0 220.55,0 C279.8,0 329.66,21.74 368.07,57.57 Z" id="Path" fill="#E43E2B"></path>
            <path d="M304.649,331.8 L363.189,390.34 C326.74,421.82 277.81,440 220.55,440 C144.4,440 77.42,401.52 37.94,342.91 L98.65,282.2 C121.1,327.7 167.371,358.92 220.55,358.92 C257.88,358.92 285.2,347.45 304.649,331.8 Z" id="Path" fill="#2BA24C"></path>
            <path d="M98.649,282.2 L37.939,342.91 C14.32,307.84 0.55,265.56 0.55,220 C0.55,177.03 12.8,136.98 34,103.15 L95.22,164.37 C88.19,180.88 84.2,199.52 84.2,220 C84.2,242.36 89.41,263.49 98.649,282.2 Z" id="Path" fill="#F0B501"></path>
        </g>
    </g>
</svg>