<?xml version="1.0" encoding="UTF-8"?>
<svg width="18px" height="18px" viewBox="0 0 18 18" version="1.1" xmlns="http://www.w3.org/2000/svg" xmlns:xlink="http://www.w3.org/1999/xlink">
    <title>linkedin-icon</title>
    <g id="linkedin-icon" stroke="none" stroke-width="1" fill="none" fill-rule="evenodd">
        <path d="M12.423,6.14285714 C14.509,6.14285714 16,7.45 16,10.1428571 L16,10.1428571 L16,16.1428571 C16,16.3401017 15.8432997,16.5 15.65,16.5 L15.65,16.5 L13.55,16.5 C13.3567003,16.5 13.2,16.3401017 13.2,16.1428571 L13.2,16.1428571 L13.2,10.7857143 C13.2,9.79949152 12.4164983,9 11.45,9 C10.4835017,9 9.7,9.79949152 9.7,10.7857143 L9.7,10.7857143 L9.7,16.1428571 C9.7,16.3401017 9.54329966,16.5 9.35,16.5 L9.35,16.5 L7.25,16.5 C7.05670034,16.5 6.9,16.3401017 6.9,16.1428571 L6.9,16.1428571 L6.9,6.85714286 C6.9,6.6598983 7.05670034,6.5 7.25,6.5 L7.25,6.5 L9.35,6.5 C9.54329966,6.5 9.7,6.6598983 9.7,6.85714286 C9.69950926,6.97965588 9.77380597,7.08953299 9.88622517,7.13255054 C9.99864438,7.1755681 10.1254244,7.1426336 10.204,7.05 C10.7848756,6.44133929 11.5909617,6.11180559 12.423,6.14285714 Z M5.14583333,6.5 C5.34143418,6.5 5.5,6.65856582 5.5,6.85416667 L5.5,16.1458333 C5.5,16.3414342 5.34143418,16.5 5.14583333,16.5 L2.35416667,16.5 C2.15856582,16.5 2,16.3414342 2,16.1458333 L2,6.85416667 C2,6.65856582 2.15856582,6.5 2.35416667,6.5 L5.14583333,6.5 Z M3.736,1.5 C4.69476633,1.5 5.472,2.29949152 5.472,3.28571429 C5.472,4.27193705 4.69476633,5.07142857 3.736,5.07142857 C2.77723367,5.07142857 2,4.27193705 2,3.28571429 C2,2.29949152 2.77723367,1.5 3.736,1.5 Z" id="Combined-Shape" fill="#FFFFFF" fill-rule="nonzero"></path>
    </g>
</svg>