<?xml version="1.0" encoding="UTF-8"?>
<svg width="18px" height="18px" viewBox="0 0 18 18" version="1.1" xmlns="http://www.w3.org/2000/svg" xmlns:xlink="http://www.w3.org/1999/xlink">
    <title>mic-icon</title>
    <g id="mic-icon" stroke="none" stroke-width="1" fill="none" fill-rule="evenodd">
        <path d="M10.0833333,0.743113203 C10.3223963,0.503990263 10.6784802,0.434054918 10.9874474,0.56554402 C11.2964147,0.697033122 11.4982827,1.00441954 11.5,1.34601282 L11.5,1.34601282 L11.5,16.6523502 C11.4989215,16.9955466 11.2957726,17.3044398 10.9849385,17.4355144 C10.6741045,17.5665891 10.3165242,17.4941481 10.0783333,17.2518484 L10.0783333,17.2518484 L5.14,12.212662 C5.10099065,12.1725052 5.04791106,12.1498605 4.9925,12.149736 L4.9925,12.149736 L3.16666667,12.149736 C2.24619208,12.149736 1.5,11.3883048 1.5,10.4490318 L1.5,10.4490318 L1.5,7.54592981 C1.5,6.60665684 2.24619208,5.84522566 3.16666667,5.84522566 L3.16666667,5.84522566 L4.9925,5.84522566 C5.04780932,5.84542045 5.10090596,5.82307461 5.14,5.78314996 L5.14,5.78314996 Z M14.1537804,4.52809327 C14.4408437,4.45159458 14.7469626,4.53386635 14.956825,4.74391761 C17.0147159,6.81139134 17.0143444,10.1507328 14.9559936,12.2177497 C14.7517851,12.4498229 14.4354629,12.5494784 14.1348934,12.4764325 C13.8343238,12.4033866 13.5992059,12.1697175 13.524581,11.8698808 C13.4499562,11.5700441 13.5481635,11.2536177 13.7795048,11.0485102 C15.1937017,9.62971888 15.1937017,7.33610054 13.7795048,5.91730924 C13.5696424,5.70725799 13.4879195,5.40133904 13.5651203,5.11478909 C13.6423212,4.82823914 13.8667171,4.60459196 14.1537804,4.52809327 Z" id="Combined-Shape" fill="#FFFFFF" fill-rule="nonzero"></path>
    </g>
</svg>