<?xml version="1.0" encoding="UTF-8"?>
<svg width="22px" height="22px" viewBox="0 0 22 22" version="1.1" xmlns="http://www.w3.org/2000/svg" xmlns:xlink="http://www.w3.org/1999/xlink">
    <title>muted-icon</title>
    <g id="muted-icon" stroke="none" stroke-width="1" fill="none" fill-rule="evenodd">
        <path d="M17.5282275,3.54141657 C17.9088122,3.25232796 18.4480549,3.26498167 18.7965186,3.61344538 C19.1761299,3.99403004 19.1761299,4.61016839 18.7965186,4.9897797 L18.7965186,4.9897797 L13.7204341,10.0658642 L13.7204341,10.7306706 C13.7184874,12.6160735 12.1893352,14.1442523 10.3039324,14.146199 C10.0975796,14.146199 9.89706693,14.1199182 9.70142111,14.0848772 L9.70142111,14.0848772 L8.37472827,15.41157 C8.96750592,15.6656176 9.61965867,15.8077285 10.3039324,15.8077285 C13.0205866,15.8077285 15.2310924,13.5962493 15.2310924,10.8795951 L15.2310924,10.8795951 L15.2310924,10.5554654 C15.2310924,10.0181694 15.6681321,9.58210311 16.2044548,9.58210311 C16.7427241,9.58210311 17.1778171,10.0181694 17.1778171,10.5554654 L17.1778171,10.5554654 L17.1778171,10.8795951 C17.1778171,14.3389248 14.6071672,17.2015833 11.2772947,17.6765841 L11.2772947,17.6765841 L11.2772947,19.0266377 C11.2772947,19.5639337 10.8412284,20 10.3039324,20 C9.76566302,20 9.33057007,19.5639337 9.33057007,19.0266377 L9.33057007,19.0266377 L9.33057007,17.6765841 C8.46719769,17.5539405 7.65541352,17.2736121 6.92539178,16.8599332 L6.92539178,16.8599332 L4.1610428,19.6242821 C3.97123714,19.8150612 3.72205639,19.9094773 3.47287564,19.9094773 C3.22466825,19.9094773 2.97548749,19.8150612 2.78470848,19.6242821 C2.40509717,19.2446708 2.40509717,18.6285325 2.78470848,18.2479478 L2.78470848,18.2479478 L3.07963726,17.9539924 C3.1146783,17.9267383 3.15555952,17.9140846 3.18768048,17.8819636 L3.18768048,17.8819636 Z M4.40185263,9.58200578 C4.94012199,9.58200578 5.37521495,10.0180721 5.37521495,10.5553681 L5.37521495,10.5553681 L5.37521495,10.8794977 C5.37521495,11.4917426 5.49980533,12.0708932 5.70615814,12.6111093 L5.70615814,12.6111093 L4.22762078,14.0886733 C3.71855229,13.1308848 3.42849032,12.0387723 3.42849032,10.8794977 L3.42849032,10.8794977 L3.42849032,10.5553681 C3.42849032,10.0180721 3.86455663,9.58200578 4.40185263,9.58200578 Z M10.303835,2 C11.9381104,2 13.2988709,3.14856754 13.6366276,4.68063982 L13.6366276,4.68063982 L6.95254859,11.3647189 C6.91361409,11.158366 6.88733331,10.9471464 6.88733331,10.7300866 L6.88733331,10.7300866 L6.88733331,5.41650174 C6.88733331,3.5291522 8.41745888,2 10.303835,2 Z" id="Combined-Shape" fill="#FFFFFF"></path>
    </g>
</svg>