<?xml version="1.0" encoding="UTF-8"?>
<svg width="22px" height="22px" viewBox="0 0 22 22" version="1.1" xmlns="http://www.w3.org/2000/svg" xmlns:xlink="http://www.w3.org/1999/xlink">
    <title>private-message-icon</title>
    <g id="private-message-icon" stroke="none" stroke-width="1" fill="none" fill-rule="evenodd">
        <path d="M15.3176582,12.447875 C14.5189254,12.447875 13.8698144,11.799875 13.8698144,11 C13.8698144,10.200125 14.5189254,9.552125 15.3176582,9.552125 C16.1175159,9.552125 16.7655019,10.200125 16.7655019,11 C16.7655019,11.799875 16.1175159,12.447875 15.3176582,12.447875 M11.0000013,12.447875 C10.2001436,12.447875 9.55215759,11.799875 9.55215759,11 C9.55215759,10.200125 10.2001436,9.552125 11.0000013,9.552125 C11.7998591,9.552125 12.4478451,10.200125 12.4478451,11 C12.4478451,11.799875 11.7998591,12.447875 11.0000013,12.447875 M6.68234452,12.447875 C5.88248679,12.447875 5.23450077,11.799875 5.23450077,11 C5.23450077,10.200125 5.88248679,9.552125 6.68234452,9.552125 C7.48220226,9.552125 8.13018828,10.200125 8.13018828,11 C8.13018828,11.799875 7.48220226,12.447875 6.68234452,12.447875 M19.3011972,7.5125 C18.846707,6.433625 18.196471,5.465 17.3662389,4.633625 C16.5416317,3.80675 15.5640278,3.14975 14.4874261,2.698625 C13.3826999,2.235125 12.2093502,2 11.0000013,2 L10.9595022,2 C9.74227848,2.00675 8.56330393,2.2475 7.45407787,2.721125 C6.38760088,3.17675 5.41787181,3.834875 4.60226442,4.660625 C3.78103214,5.48975 3.13529608,6.453875 2.68980569,7.52825 C2.22744067,8.642 1.99457069,9.824375 2.00009606,11.041625 C2.00694543,12.43775 2.33768829,13.811375 2.96542474,15.057875 L2.96542474,18.11225 C2.96542474,18.621875 3.37829083,19.035875 3.88902981,19.035875 L6.94446387,19.035875 C8.19093696,19.663625 9.56453232,19.99325 10.9595022,20 L11.0022513,20 C12.2048503,20 13.3725751,19.767125 14.4716764,19.3115 C15.5426533,18.866 16.5168823,18.21575 17.3403645,17.397875 C18.1694716,16.576625 18.8230825,15.615875 19.2786977,14.546 C19.7523124,13.43675 19.9941822,12.25775 19.9999052,11.0405 C20.005432,9.8165 19.7691871,8.629625 19.3011972,7.5125" id="Fill-1" fill="#8D98A7"></path>
    </g>
</svg>
