<?xml version="1.0" encoding="UTF-8"?>
<svg width="26px" height="26px" viewBox="0 0 26 26" version="1.1" xmlns="http://www.w3.org/2000/svg" xmlns:xlink="http://www.w3.org/1999/xlink">
    <title>quick-start-icon</title>
    <g id="quick-start-icon" stroke="none" stroke-width="1" fill="none" fill-rule="evenodd">
        <g id="Group-32" transform="translate(1.000000, 0.000000)" fill-rule="nonzero">
            <path d="M18.2106641,17.5882105 L13.4839272,16.1772632 C13.350388,16.1375366 13.2588966,16.0146914 13.2590851,15.8753684 L13.2590851,10.1052632 C13.2590851,9.40764032 12.6935501,8.84210526 11.9959272,8.84210526 C11.2983044,8.84210526 10.7327693,9.40764032 10.7327693,10.1052632 L10.7327693,19.0282105 C10.7329647,19.1666131 10.6430148,19.289015 10.510871,19.330165 C10.3787272,19.3713151 10.2351867,19.3216229 10.1567693,19.2075789 C8.27592722,16.5069474 5.28729564,17.3772632 6.66919038,19.4905263 L10.3475062,25.0067368 C10.4645348,25.1826003 10.6617368,25.2884212 10.8729799,25.2884212 L17.7395062,25.2884212 C18.0441525,25.2886347 18.3055343,25.0713478 18.3609799,24.7717895 C18.6363483,23.2749474 19.3386641,19.5082105 19.3386641,19.5082105 C19.532857,18.6701103 19.0372846,17.8265829 18.2106641,17.5882105 Z" id="Shape" fill="#040E22"></path>
            <path d="M12,6.31578947 C12.6976228,6.31578947 13.2631579,5.75025442 13.2631579,5.05263158 L13.2631579,1.26315789 C13.2631579,0.565535053 12.6976228,4.30766534e-13 12,4.30766534e-13 C11.3023772,4.30766534e-13 10.7368421,0.565535053 10.7368421,1.26315789 L10.7368421,5.05263158 C10.7368421,5.75025442 11.3023772,6.31578947 12,6.31578947 Z" id="Shape" fill="#0077FF"></path>
            <path d="M17.8054737,7.97810526 L20.4858947,5.29768421 C20.9791141,4.80411605 20.9788313,4.00416673 20.4852631,3.51094738 C19.991695,3.01772804 19.1917457,3.0180108 18.6985263,3.51157895 L16.0193684,6.18947368 C15.6910022,6.50662038 15.5593104,6.97626681 15.6749089,7.41790399 C15.7905073,7.85954117 16.1354062,8.20444006 16.5770434,8.32003851 C17.0186806,8.43563696 17.488327,8.30394516 17.8054737,7.97557895 L17.8054737,7.97810526 Z" id="Shape" fill="#0077FF"></path>
            <path d="M17.6842105,12 C17.6842105,12.6976228 18.2497456,13.2631579 18.9473684,13.2631579 L22.7368421,13.2631579 C23.4344649,13.2631579 24,12.6976228 24,12 C24,11.3023772 23.4344649,10.7368421 22.7368421,10.7368421 L18.9473684,10.7368421 C18.2497456,10.7368421 17.6842105,11.3023772 17.6842105,12 Z" id="Shape" fill="#0077FF"></path>
            <path d="M6.19452632,7.97810526 C6.68844329,8.47132461 7.48867539,8.47075908 7.98189474,7.97684211 C8.47511409,7.48292513 8.47454855,6.68269303 7.98063158,6.18947368 L5.30147368,3.51157895 C4.8058372,3.03287721 4.01799818,3.03972332 3.53075548,3.52696601 C3.04351279,4.0142087 3.03666668,4.80204772 3.51536842,5.29768421 L6.19452632,7.97810526 Z" id="Shape" fill="#0077FF"></path>
            <path d="M6.31578947,12 C6.31578947,11.3023772 5.75025442,10.7368421 5.05263158,10.7368421 L1.26315789,10.7368421 C0.565535053,10.7368421 1.34026124e-12,11.3023772 1.34026124e-12,12 C1.34026124e-12,12.6976228 0.565535053,13.2631579 1.26315789,13.2631579 L5.05263158,13.2631579 C5.75025442,13.2631579 6.31578947,12.6976228 6.31578947,12 Z" id="Shape" fill="#0077FF"></path>
        </g>
    </g>
</svg>