<?xml version="1.0" encoding="UTF-8"?>
<svg width="18px" height="18px" viewBox="0 0 18 18" version="1.1" xmlns="http://www.w3.org/2000/svg" xmlns:xlink="http://www.w3.org/1999/xlink">
    <title>twitter-icon</title>
    <g id="twitter-icon" stroke="none" stroke-width="1" fill="none" fill-rule="evenodd">
        <path d="M6.031872,16 C12.069888,16 15.371776,10.9990009 15.371776,6.66253236 C15.371776,6.52042544 15.368896,6.37895835 15.362368,6.23825906 C16.003264,5.77508392 16.560448,5.19712272 17,4.53905443 C16.411776,4.80023428 15.778816,4.97631633 15.114816,5.05565563 C15.792576,4.64948961 16.312896,4.00658536 16.558272,3.24032129 C15.923904,3.61622321 15.221632,3.88962388 14.47392,4.03684946 C13.874944,3.39899989 13.021824,3 12.077824,3 C10.264832,3 8.794688,4.46976051 8.794688,6.28157576 C8.794688,6.53917255 8.823552,6.78953922 8.879808,7.02986052 C6.15168,6.89274429 3.73248,5.58678105 2.1136,3.60105917 C1.831424,4.08592466 1.669056,4.64948961 1.669056,5.2504848 C1.669056,6.3891317 2.248576,7.39424544 3.129792,7.98225202 C2.591424,7.96568034 2.085504,7.81775094 1.643072,7.57167115 C1.642304,7.58536357 1.642304,7.59911998 1.642304,7.61351623 C1.642304,9.20311746 2.774016,10.5300032 4.275904,10.8309167 C4.000256,10.9059052 3.71008,10.9463426 3.41056,10.9463426 C3.199104,10.9463426 2.993408,10.9254201 2.793472,10.8871581 C3.211392,12.1910099 4.423168,13.1398183 5.860096,13.1665633 C4.736384,14.0467816 3.321088,14.5713168 1.783104,14.5713168 C1.518208,14.5713168 1.25696,14.5562167 1,14.5258886 C2.452864,15.4566538 4.177792,16 6.031872,16" id="Fill-1" fill="#FFFFFF"></path>
    </g>
</svg>